<svg xmlns="http://www.w3.org/2000/svg" xmlns:xlink="http://www.w3.org/1999/xlink" width="176" height="145" viewBox="0 0 176 145">
    <defs>
        <path id="a" d="M.23 53.8h66.098V.572H.23z"/>
    </defs>
    <g fill="none" fill-rule="evenodd">
        <g transform="translate(-2.264)">
            <circle cx="42.264" cy="40" r="40" fill="#5A626F"/>
            <g transform="rotate(-26 67.157 14.348)">
                <mask id="b" fill="#fff">
                    <use xlink:href="#a"/>
                </mask>
                <path fill="#FFF" d="M39.195 43.003H27.363L21.448 32.76l5.918-10.25h11.826l5.918 10.25-5.915 10.244zM2.155 21.616L8.07 11.368h11.832l5.915 10.245-5.918 10.25H8.07L2.155 21.616zm62.249 0l-5.916 10.247h-11.83l-5.918-10.25 5.915-10.245h11.833l5.916 10.248zm-4.34 11.089l6.145-10.643a.893.893 0 0 0 0-.893l-6.432-11.14a.893.893 0 0 0-.774-.447H46.6L40.434.946a.893.893 0 0 0-1.453 1.037l6.098 8.543-5.887 10.197H27.366L21.48 10.526l6.098-8.543A.893.893 0 1 0 26.124.946l-6.165 8.636H7.555c-.32 0-.614.17-.773.447L.35 21.169a.893.893 0 0 0 0 .893l6.432 11.14c.159.277.454.447.773.447H19.9l5.888 10.2-6.096 8.54a.893.893 0 0 0 1.454 1.037l6.164-8.636h12.401c.319 0 .614-.17.773-.447L46.66 33.65h11.884l6.165 8.637a.892.892 0 0 0 1.246.208.893.893 0 0 0 .208-1.246l-6.098-8.543z" mask="url(#b)"/>
                <path fill="#FFF" d="M10.598 13.5a1.025 1.025 0 0 0-1.404.364l-4.168 7.074a1.025 1.025 0 1 0 1.767 1.041l4.168-7.075a1.025 1.025 0 0 0-.363-1.403M20.706 21.791a1.025 1.025 0 1 0 1.766-1.04l-4.167-7.076a1.025 1.025 0 0 0-1.767 1.041l4.168 7.075zM18.09 28.005H9.884a1.025 1.025 0 0 0 0 2.05h8.208a1.025 1.025 0 1 0 0-2.05M30.128 24.644a1.025 1.025 0 0 0-1.404.363l-4.168 7.074a1.025 1.025 0 0 0 1.767 1.041l4.168-7.074a1.025 1.025 0 0 0-.363-1.404M42.002 31.893l-4.168-7.074a1.025 1.025 0 0 0-1.766 1.04l4.167 7.075a1.025 1.025 0 1 0 1.767-1.04M37.62 39.148h-8.207a1.025 1.025 0 0 0 0 2.05h8.207a1.025 1.025 0 1 0 0-2.05M44.211 22.188a1.025 1.025 0 0 0 1.404-.363l4.168-7.075a1.025 1.025 0 1 0-1.767-1.04l-4.168 7.074a1.025 1.025 0 0 0 .363 1.404M59.527 21.637a1.025 1.025 0 1 0 1.767-1.041l-4.167-7.075a1.026 1.026 0 0 0-1.767 1.041l4.167 7.075zM56.913 27.85h-8.208a1.025 1.025 0 0 0 0 2.051h8.208a1.025 1.025 0 1 0 0-2.05" mask="url(#b)"/>
            </g>
        </g>
        <g transform="translate(70 39)">
            <circle cx="53" cy="53" r="53" fill="#6E318D"/>
            <path fill="#FFF" fill-rule="nonzero" d="M86.985 56.345l-1.24-17.4c-.124-1.103-.62-2.206-1.488-2.941-.868-.736-1.983-1.103-3.1-.98-2.23.122-3.966 2.082-3.966 4.288l.124 14.215-6.199 7.842c-.992 1.226-2.603 1.716-4.09 1.348l6.818-8.7c1.24-1.47.991-3.676-.496-5.024-.744-.735-1.736-.98-2.852-.98-.991.122-1.983.49-2.603 1.347l-10.29 12.132C55.868 63.452 55 66.026 55 68.599l.124 16.176c0 .612.496 1.102 1.24 1.225h16.984c.372 0 .62-.123.868-.368.247-.245.371-.612.247-.857l-.743-7.966L85 61.982c1.488-1.593 2.108-3.676 1.984-5.637zm-3.596 4.29L71.86 75.828c-.124.245-.248.49-.248.858l.62 7.107H57.727l-.124-14.95c0-2.083.744-4.043 1.984-5.637l10.166-12.376c.248-.245.62-.49.991-.49.372 0 .744.122.992.367.496.49.62 1.348.124 1.838l-7.686 9.926c-.248.245-.248.613-.248.858 0 .368.248.613.496.735 2.727 1.838 6.446 1.226 8.554-1.348l6.446-8.21c.124-.245.248-.49.248-.735V39.19c0-.98.744-1.839 1.736-1.839.496 0 .992.123 1.364.49.371.368.62.736.62 1.226l1.24 17.4c.123 1.471-.373 2.942-1.24 4.167zM38.654 49.36c-.605-.735-1.573-1.225-2.541-1.348-.969-.122-1.937.246-2.784.98-1.452 1.349-1.573 3.554-.484 5.025l6.657 8.7a3.871 3.871 0 0 1-3.994-1.348l-6.052-7.842.12-14.215c0-2.206-1.694-4.044-3.872-4.289-1.09-.122-2.179.245-3.026.98-.847.736-1.331 1.716-1.452 2.942l-1.21 17.4c-.122 2.083.483 4.044 1.694 5.637L32.724 76.81l-.726 7.966c0 .367.12.612.242.857.242.245.484.368.847.368h16.582c.605 0 1.21-.49 1.21-1.225L51 68.599c0-2.573-.847-5.146-2.542-7.107L38.654 49.36zM48.7 83.672H34.54l.604-7.108c0-.245 0-.612-.242-.857L23.525 60.634c-.847-1.225-1.331-2.573-1.21-4.044l1.21-17.4c0-.49.242-.98.605-1.226.363-.245.727-.49 1.21-.49h.122c.968.123 1.694.858 1.694 1.838l-.12 14.582c0 .246.12.49.241.736l6.294 8.21c1.937 2.573 5.689 3.186 8.351 1.348.242-.123.485-.49.485-.735 0-.368 0-.613-.243-.858l-7.504-9.926c-.484-.613-.363-1.348.121-1.838.242-.245.606-.368.969-.368s.726.245.968.49l10.046 12.132c1.331 1.593 2.057 3.554 1.936 5.637v14.95zM77 32.1c0-3.517-1.348-6.792-3.92-9.218C70.63 20.456 67.2 19 63.77 19c-3.553 0-6.86 1.334-9.31 3.882l-.49.485-.49-.485C51.03 20.456 47.6 19 44.17 19c-3.553 0-6.861 1.334-9.311 3.882-5.145 5.094-5.145 13.464 0 18.559l18.375 18.195c.245.243.49.364.858.364.367 0 .612-.121.857-.364l18.376-18.195C75.652 38.893 77 35.497 77 32.1zM53.515 57L36.182 39.55a10.88 10.88 0 0 1 0-15.377C38.242 22.098 40.909 21 43.818 21c2.91 0 5.576 1.098 7.637 3.173l1.212 1.22c.242.244.485.366.848.366.364 0 .606-.122.849-.366l1.212-1.22C57.636 22.098 60.303 21 63.212 21c2.91 0 5.576 1.098 7.636 3.173C72.91 26.247 74 28.933 74 31.86c0 2.929-1.09 5.736-3.152 7.688L53.515 57z"/>
        </g>
    </g>
</svg>
