<svg xmlns="http://www.w3.org/2000/svg" xmlns:xlink="http://www.w3.org/1999/xlink" width="119" height="119" viewBox="0 0 119 119">
    <defs>
        <path id="a" d="M0 .657V119h118.343V.657z"/>
    </defs>
    <g fill="none" fill-rule="evenodd">
        <g transform="translate(0 -.657)">
            <mask id="b" fill="#fff">
                <use xlink:href="#a"/>
            </mask>
            <path fill="#FFF" d="M59.172 3.396c-31.117 0-56.433 25.315-56.433 56.432s25.316 56.432 56.433 56.432c31.116 0 56.432-25.315 56.432-56.432S90.288 3.396 59.172 3.396m0 115.604c-15.806 0-30.665-6.155-41.841-17.332C6.155 90.493 0 75.633 0 59.828c0-15.805 6.155-30.664 17.33-41.84C28.508 6.811 43.367.658 59.173.658c15.805 0 30.664 6.153 41.84 17.33 11.177 11.176 17.33 26.035 17.33 41.84 0 15.805-6.153 30.665-17.33 41.84C89.836 112.845 74.977 119 59.172 119" mask="url(#b)"/>
        </g>
        <path fill="#FFF" d="M52.39 82.948c-.623 0-1.131.507-1.131 1.13 0 .624.508 1.131 1.13 1.131h13.595c.624 0 1.132-.507 1.132-1.13 0-.624-.508-1.13-1.132-1.13H52.39zm13.594 3.813H52.39a2.687 2.687 0 0 1-2.683-2.683 2.686 2.686 0 0 1 2.683-2.683h13.594a2.685 2.685 0 0 1 2.683 2.683 2.686 2.686 0 0 1-2.683 2.683zM52.349 89.636a3.678 3.678 0 0 0 3.383 2.873.777.777 0 0 1 .722.659 2.76 2.76 0 0 0 2.738 2.368 2.756 2.756 0 0 0 2.738-2.368.778.778 0 0 1 .722-.66 3.676 3.676 0 0 0 3.375-2.872H52.349zm6.843 7.453a4.295 4.295 0 0 1-4.142-3.1c-2.475-.424-4.337-2.574-4.337-5.128 0-.43.348-.777.776-.777h15.397c.429 0 .776.348.776.777 0 2.55-1.858 4.7-4.327 5.129a4.294 4.294 0 0 1-4.143 3.099zM51.491 78.484h15.29v-5.162c0-.142.037-.28.11-.4 1.881-3.136 4.168-6.486 6.12-8.96a17.363 17.363 0 0 0 3.764-10.85c0-9.698-7.889-17.587-17.587-17.587-9.699 0-17.59 7.89-17.59 17.587 0 3.974 1.302 7.724 3.764 10.848a80.34 80.34 0 0 1 6.022 8.806c.07.118.107.254.107.393v5.325zm16.065 1.552h-16.84a.777.777 0 0 1-.777-.778v-5.886a78.69 78.69 0 0 0-5.796-8.453 18.902 18.902 0 0 1-4.096-11.806c0-10.554 8.587-19.142 19.141-19.142 10.553 0 19.14 8.588 19.14 19.142 0 4.325-1.418 8.41-4.1 11.81-1.873 2.376-4.068 5.584-5.895 8.614v5.721a.777.777 0 0 1-.777.778zM34.622 42.107c-.078 0-.157-.01-.237-.027l-7.403-1.69a1.065 1.065 0 0 1 .474-2.075l7.402 1.689a1.064 1.064 0 0 1-.236 2.103M83.94 42.107a1.066 1.066 0 0 1-.236-2.103l7.402-1.69a1.064 1.064 0 1 1 .474 2.076l-7.403 1.69c-.08.018-.16.027-.238.027M75.34 31.115a1.135 1.135 0 0 1-.71-2.018l5.968-4.782a1.134 1.134 0 0 1 1.417 1.77l-5.966 4.781c-.21.167-.46.25-.708.25M60.02 28.666a1.134 1.134 0 0 1-1.135-1.129l-.032-7.645a1.134 1.134 0 0 1 1.127-1.139h.006c.623 0 1.13.505 1.134 1.13l.033 7.644a1.134 1.134 0 0 1-1.128 1.14h-.005zM44.004 31.115a1.13 1.13 0 0 1-.708-.249l-5.966-4.782a1.133 1.133 0 1 1 1.417-1.769l5.966 4.782a1.133 1.133 0 0 1-.71 2.018"/>
    </g>
</svg>
