<svg xmlns="http://www.w3.org/2000/svg" xmlns:xlink="http://www.w3.org/1999/xlink" width="119" height="119" viewBox="0 0 119 119">
    <defs>
        <path id="a" d="M118.343.657V119H0V.657h118.343z"/>
    </defs>
    <g fill="none" fill-rule="evenodd">
        <path fill="#FFF" d="M60.867 31.328c.46 0 .913-.159 1.274-.446l.142-.117c.343-.287.917-.767 2.063-.767 1.331 0 2.022.713 2.03.72a2.046 2.046 0 0 0 2.315.511 2.38 2.38 0 0 1 .912-.192c.187 0 .455.027.678.157l.09.051c.138.076.325.18.473.666a2.045 2.045 0 0 0 1.968 1.461c.308 0 .618-.07.896-.205a3.045 3.045 0 0 1 1.344-.288c1.795 0 3.904 1.321 4.058 3.218l.091 1.043c.074.845.644 1.55 1.45 1.796.58.177.867.778.964 1.028.221.57.216 1.212-.014 1.598-.727 1.23.028 2.331.58 3.136.643.94 1.525 2.226 1.668 4.26.268 3.776-1.488 4.76-1.842 4.917a2.05 2.05 0 0 0-1.147 2.415c.068.252.241 1.151-.374 2.141-.213.342-.535.693-1.31.693-.548 0-1.066-.172-1.263-.246a2.048 2.048 0 0 0-2.738 1.594c-.066.394-.732 1.685-6.553 1.765-.236.003-.423.005-.574.013-1.504.068-1.843 1.165-1.91 1.5l-.276 1.348c-1.064-3.493-2.044-5.67-2.92-6.492-1.454-1.36-3.169-1.758-4.68-2.11l-.193-.045c-1.454-.34-2.377-.776-2.993-1.416a31.037 31.037 0 0 1-.59-.638c-1.483-1.63-3.724-4.09-7.27-4.892-1.4-.317-1.776-.784-1.858-.92-.114-.19-.088-.412-.046-.566a2.056 2.056 0 0 0-1.862-2.599c-.06-.003-.27-.04-.53-.384-.316-.415-.69-1.979.255-3.92.698-1.433 1.826-2.092 2.155-2.259a2.049 2.049 0 0 0 1.058-2.342c.051-.076.152-.2.344-.369.102-.089.505-.222 1-.243a2.037 2.037 0 0 0 1.848-1.373c.03-.084.323-.84 1.55-1.416.432-.203.973-.307 1.607-.307.69 0 1.27.125 1.485.178a2.05 2.05 0 0 0 2.314-1.053c.218-.417.648-.97 1.143-1.148.202-.07.426-.108.667-.108.748 0 1.434.344 1.564.413.295.156.625.24.957.24m2.377-11.878c-1.579 0-3.175.107-4.742.32-5.146.694-10.03 2.56-14.126 5.393-3.832 2.651-7.144 6.214-9.576 10.301-2.499 4.2-4.027 8.891-4.416 13.571-.116 1.38.084 2.787.276 4.15.213 1.506.414 2.928.152 4.01-.09.38-.774 2.503-5.276 7.13a4.19 4.19 0 0 0-1.008 4.088c.42 1.44 1.526 2.501 2.96 2.84.645.151 1.231.286 1.741.403.257.06.516.118.757.175.02 2.703.07 8.232.142 9.128.3 3.683 3.104 5.883 7.506 5.883.837 0 1.738-.079 2.678-.237a9.106 9.106 0 0 1 1.485-.132c2.05 0 3.252.841 3.673 2.573.038.333.168 1.495.251 2.771.14 2.133 1.886 3.805 3.98 3.805h27.976c2.2 0 3.988-1.826 3.988-4.07V83.52c0-5.782.894-9.736 2.658-11.754 4.154-4.75 7.12-10.08 8.577-15.417 1.662-6.09 1.42-12.11-.719-17.896-2.207-5.967-6.236-10.894-11.654-14.246-5.028-3.112-11.005-4.757-17.283-4.757M60.867 29.49a.214.214 0 0 1-.095-.023c-.328-.174-1.292-.628-2.426-.628-.415 0-.85.06-1.287.216-1.234.442-1.934 1.608-2.155 2.033a.217.217 0 0 1-.242.113 8.347 8.347 0 0 0-1.925-.23c-.75 0-1.604.112-2.39.48-1.798.845-2.36 2.065-2.502 2.474a.21.21 0 0 1-.19.142c-.39.017-1.467.115-2.132.696-1.175 1.025-1.06 1.835-.925 2.18a.222.222 0 0 1-.102.277c-.537.273-2.04 1.175-2.974 3.093-1.285 2.641-.77 4.91-.066 5.836.688.907 1.474 1.083 1.89 1.108a.219.219 0 0 1 .193.28c-.213.778-.43 2.926 3.271 3.763 3.472.783 5.572 3.588 6.942 5.011 1.053 1.093 2.477 1.6 3.898 1.931 1.452.34 2.891.636 4.036 1.708 1.206 1.128 2.908 7.342 3.197 8.422a.21.21 0 0 0 .203.16h1.782c.1 0 .186-.072.207-.174l.863-4.24c.036-.18 8.406.536 9.05-3.344a.216.216 0 0 1 .21-.186.21.21 0 0 1 .07.012 5.633 5.633 0 0 0 1.907.363c.99 0 2.11-.332 2.873-1.562.988-1.59.725-3.074.588-3.587a.22.22 0 0 1 .12-.259c.71-.318 3.275-1.812 2.927-6.727-.28-3.962-2.86-5.719-2.5-6.328 1.041-1.757.136-4.67-1.996-5.32a.228.228 0 0 1-.155-.199l-.09-1.033c-.232-2.866-3.137-4.906-5.89-4.906-.745 0-1.479.15-2.145.471a.216.216 0 0 1-.095.022.222.222 0 0 1-.21-.158c-.39-1.29-1.183-1.646-1.394-1.77a3.174 3.174 0 0 0-1.605-.407c-.562 0-1.129.124-1.63.34a.204.204 0 0 1-.235-.055c-.285-.317-1.454-1.324-3.392-1.324-1.986 0-2.996 1.003-3.349 1.283a.205.205 0 0 1-.13.046m2.377-8.2c11.582 0 22.855 6.018 27.213 17.803 4.231 11.442.06 22.801-7.518 31.465-2.734 3.126-3.113 9.004-3.113 12.964v8.031c0 1.233-.962 2.232-2.149 2.232H49.7c-1.133 0-2.068-.912-2.145-2.086-.103-1.579-.272-2.969-.272-2.969-.502-2.237-2.15-4.093-5.486-4.093-.549 0-1.144.05-1.786.157-.85.141-1.645.212-2.377.212-3.38 0-5.454-1.482-5.674-4.194-.088-1.088-.145-10.388-.145-10.388-.228-.135-1.724-.445-3.905-.959-1.695-.4-2.293-2.587-1.057-3.857 4.958-5.093 5.623-7.468 5.746-7.979.615-2.54-.606-5.772-.383-8.44.757-9.097 5.943-17.487 13.206-22.512 3.98-2.754 8.592-4.445 13.326-5.084a33.566 33.566 0 0 1 4.496-.303"/>
        <g transform="translate(0 -.657)">
            <mask id="b" fill="#fff">
                <use xlink:href="#a"/>
            </mask>
            <path fill="#FFF" d="M59.171 3.396C28.055 3.396 2.74 28.711 2.74 59.83c0 31.116 25.316 56.431 56.432 56.431 31.117 0 56.433-25.315 56.433-56.43 0-31.119-25.316-56.434-56.433-56.434m0 115.604c-15.805 0-30.664-6.155-41.84-17.332C6.154 90.493.001 75.633.001 59.83c0-15.806 6.153-30.665 17.33-41.84C28.507 6.811 43.366.656 59.171.656c15.806 0 30.665 6.155 41.841 17.331 11.176 11.176 17.331 26.035 17.331 41.841 0 15.804-6.155 30.664-17.33 41.84C89.835 112.844 74.976 119 59.17 119" mask="url(#b)"/>
        </g>
        <path fill="#FFF" d="M66.315 53.162c2.812-1.23 8.2-5.862 8.2-10.165 0-3.633-4.1-5.68-8.2-2.519-4.1-3.162-8.2-1.114-8.2 2.52 0 4.302 5.388 8.933 8.2 10.164"/>
    </g>
</svg>
