<svg xmlns="http://www.w3.org/2000/svg" width="60" height="38" viewBox="0 0 60 38">
    <g fill="none" fill-rule="evenodd">
        <path fill="#333" d="M47.372 25.93c-1.165-2.436-5.333-5.817-9.36-9.084-2.246-1.821-4.368-3.543-5.721-4.9a1.234 1.234 0 0 0-1.294-.29c-.834.303-1.348.536-1.754.717-.618.278-.826.372-1.66.456-.368.038-.7.236-.905.544-1.749 2.622-3.56 2.399-4.769 1.992-.386-.13-.455-.296-.492-.454-.26-1.09 1.044-3.625 2.733-5.32 4.02-4.033 6.093-5.043 10.47-3.08 4.968 2.227 9.944 3.972 9.994 3.989.65.226 1.35-.117 1.576-.764a1.244 1.244 0 0 0-.762-1.58c-.05-.018-4.928-1.727-9.796-3.913-5.671-2.543-8.783-.868-13.228 3.593-1.692 1.696-3.99 5.13-3.396 7.648.254 1.072 1.006 1.865 2.124 2.235 2.803.928 5.36.04 7.265-2.496.787-.121 1.215-.3 1.858-.59.232-.104.504-.226.866-.372 1.414 1.332 3.324 2.882 5.335 4.512 3.636 2.95 7.76 6.294 8.687 8.23.458.954-.035 1.577-.368 1.862-.49.422-1.16.556-1.524.3a1.236 1.236 0 0 0-1.932 1.154c.084.789-.636 1.24-.947 1.397-.792.401-1.618.332-1.927.044a1.245 1.245 0 0 0-1.284-.253 1.24 1.24 0 0 0-.792 1.045c-.074.813-.675 1.595-1.46 1.9-.377.144-.927.23-1.419-.221a1.236 1.236 0 0 0-1.999.494c-.046.124-.153.421-1.31.421-.824 0-2.306-.558-3.03-1.04-.869-.572-6.313-4.646-11.015-8.595-.66-.558-1.804-1.754-2.813-2.81-.895-.939-1.714-1.79-2.134-2.147a1.229 1.229 0 0 0-1.744.147 1.244 1.244 0 0 0 .146 1.749c.383.325 1.125 1.111 1.944 1.967 1.103 1.156 2.243 2.352 3.01 2.997 4.606 3.867 10.142 8.043 11.245 8.77.91.6 2.872 1.443 4.39 1.443 1.22 0 2.158-.28 2.808-.828.87.34 1.86.342 2.813-.03a4.877 4.877 0 0 0 2.574-2.384c.975.208 2.09.062 3.105-.45.992-.5 1.71-1.267 2.065-2.162.985.052 1.999-.298 2.837-1.02 1.42-1.218 1.811-3.113.99-4.823"/>
        <path fill="#333" d="M25.146 5.085H13.498c-.715 0-1.295.455-1.295 1.017 0 .561.58 1.017 1.295 1.017h11.648c.715 0 1.295-.456 1.295-1.017 0-.562-.58-1.017-1.295-1.017M50.637 22.942c-.384-.587-1.153-.749-1.72-.349l-3.623 2.518a1.31 1.31 0 0 0-.337 1.78c.24.367.632.567 1.03.567a1.2 1.2 0 0 0 .69-.218l3.623-2.518a1.311 1.311 0 0 0 .337-1.78M43.245 29.255c-.91-.717-4.98-4.883-7.496-7.506a1.267 1.267 0 0 0-1.798-.038 1.27 1.27 0 0 0-.038 1.797c.654.681 6.416 6.688 7.756 7.745.23.183.51.272.785.272a1.27 1.27 0 0 0 .79-2.27M39.171 32.249c-1.566-1.253-5.502-5.435-6.39-6.402a1.31 1.31 0 0 0-1.928 1.77c.047.05 4.744 5.12 6.684 6.674a1.314 1.314 0 0 0 1.838-.204 1.31 1.31 0 0 0-.204-1.838M34.112 34.302c-1.865-1.571-5.68-5.631-6.425-6.429a1.307 1.307 0 1 0-1.912 1.786c1.073 1.147 4.723 5.017 6.65 6.643a1.304 1.304 0 0 0 1.844-.157 1.309 1.309 0 0 0-.157-1.843"/>
        <path fill="#333" d="M7.97 22.881H2.543V2.633c4.086.323 8.495 1.025 10.096 1.803-.673 5.568-3.722 15.46-4.667 18.445M14.858 2.89C12.679.825 3.966.157 1.348.002A1.27 1.27 0 0 0 0 1.27v22.881c0 .702.57 1.272 1.271 1.272H8.9a1.27 1.27 0 0 0 1.207-.877c.186-.57 4.566-14.014 5.144-20.625a1.265 1.265 0 0 0-.392-1.032M57.524 25.932H52.26c-1.174-3.925-4.64-14.16-6.574-18.391 1.89-.659 5.948-1.79 11.838-1.932v20.323zm1.238-22.881c-9.721 0-15.114 2.555-15.34 2.662a1.256 1.256 0 0 0-.66.79c-.1.349-.05.723.136 1.033 1.53 2.53 6.321 16.578 7.242 20.006.149.551.637.933 1.194.933h7.428c.683 0 1.238-.57 1.238-1.272V4.322c0-.704-.555-1.271-1.238-1.271z"/>
    </g>
</svg>
