<svg xmlns="http://www.w3.org/2000/svg" xmlns:xlink="http://www.w3.org/1999/xlink" width="33" height="58" viewBox="0 0 33 58">
    <defs>
        <path id="a" d="M33 58V0H0v58h33z"/>
    </defs>
    <g fill="none" fill-rule="evenodd">
        <mask id="b" fill="#fff">
            <use xlink:href="#a"/>
        </mask>
        <path fill="#333" d="M30.088 21.267h-15.53v29h15.53v5.8H2.911v-5.88h3.883v-29H2.911v-7.653h27.177v7.733zm0 11.6V34.8h-9.706v1.934h9.706v1.933h-9.706V40.6h9.706v1.934h-9.706v1.933h9.706v3.866H16.5V23.2h13.588v3.867h-9.706V29h9.706v3.867zM2.911 48.253h1.942V23.12H2.91v25.133zM1.941 11.6h1.941V1.933h-1.94V11.6zm3.883 0h1.94V1.933h-1.94V11.6zm3.882 0h1.94V1.933h-1.94V11.6zm3.882 0h1.941V1.933h-1.94V11.6zm3.883 0h1.94V1.933h-1.94V11.6zm3.882 0h1.94V1.933h-1.94V11.6zm3.882 0h1.941V1.933h-1.94V11.6zm3.883 0h1.94V1.934h-1.94V11.6zM32.029 0H.971A.969.969 0 0 0 0 .967v11.6c0 .533.434.967.97.967V58h31.06V13.534c.536 0 .97-.434.97-.967V.967A.969.969 0 0 0 32.03 0z" mask="url(#b)"/>
    </g>
</svg>
