<svg xmlns="http://www.w3.org/2000/svg" width="113" height="79" viewBox="0 0 113 79">
    <path fill="#424853" fill-rule="evenodd" d="M108.216 59.128c0 6.93-5.638 12.568-12.567 12.568H74.334V45.939H95.65c6.93 0 12.567 5.638 12.567 12.567v.622zm-58.98 12.568c-6.93 0-12.567-5.638-12.567-12.568v-.622a12.472 12.472 0 0 1 1.1-5.142c1.78-3.95 5.542-6.823 10.012-7.34.478-.056.963-.085 1.455-.085H70.551v25.757H49.236zM32.13 54.746c-5.62.668-11.17-.669-15.825-3.775l29.061-36.902c4.112 3.799 6.712 8.88 7.38 14.5.564 4.743-.302 9.437-2.453 13.586h-1.057c-7.658 0-14.102 5.292-15.87 12.41-.409.071-.821.132-1.236.181zM5.952 34.13a23.407 23.407 0 0 1 4.887-17.358 23.407 23.407 0 0 1 15.73-8.82c.945-.112 1.889-.167 2.827-.167 4.634 0 9.125 1.36 12.998 3.943L13.332 48.63c-4.111-3.799-6.712-8.881-7.38-14.5zm89.697 8.025h-41.17c1.888-4.37 2.601-9.18 2.024-14.033-.862-7.253-4.497-13.736-10.235-18.255-5.738-4.52-12.893-6.534-20.146-5.672-7.253.862-13.737 4.497-18.256 10.235-4.519 5.739-6.533 12.893-5.67 20.147.861 7.253 4.496 13.736 10.234 18.255 4.87 3.836 10.76 5.866 16.865 5.866a27.81 27.81 0 0 0 3.281-.195c.104-.012.207-.027.31-.04v.665c0 9.016 7.334 16.352 16.35 16.352H95.65c9.016 0 16.351-7.336 16.351-16.352v-.622c0-9.016-7.335-16.35-16.351-16.35z"/>
</svg>
