<?xml version="1.0" encoding="UTF-8"?>
<svg width="204px" height="161px" viewBox="0 0 204 161" version="1.1" xmlns="http://www.w3.org/2000/svg" xmlns:xlink="http://www.w3.org/1999/xlink">
    <!-- Generator: Sketch 47.1 (45422) - http://www.bohemiancoding.com/sketch -->
    <title>Group 5</title>
    <desc>Created with Sketch.</desc>
    <defs>
        <polygon id="path-1" points="13.0668379 31 25.9067586 31 25.9067586 0.0473773585 0.226917241 0.0473773585 0.226917241 31"></polygon>
        <polygon id="path-3" points="36.7545938 0.111410526 0.105254412 0.111410526 0.105254412 26.9622568 36.7545938 26.9622568 36.7545938 0.111410526"></polygon>
        <polygon id="path-5" points="39.8737379 0.0380387097 0.241737931 0.0380387097 0.241737931 43.7227716 39.8737379 43.7227716 39.8737379 0.0380387097"></polygon>
        <polygon id="path-7" points="0 82 67 82 67 0 0 0"></polygon>
    </defs>
    <g id="Desktop-Big-1440" stroke="none" stroke-width="1" fill="none" fill-rule="evenodd">
        <g id="2.0_Commitment" transform="translate(-145.000000, -498.000000)">
            <g id="Group-5" transform="translate(145.000000, 498.000000)">
                <g id="Icon/Patient">
                    <g id="Practitioner">
                        <circle id="Oval" fill="#5A626F" cx="53" cy="53" r="53"></circle>
                        <g id="Page-1" transform="translate(18.000000, 8.000000)">
                            <path d="M35.5,45 L35.5,43.2717027 C43.6405789,43.2717027 50.2631579,36.0923559 50.2631579,27.26767 C50.2631579,22.6822093 48.4779737,18.377885 45.3400789,15.3378101 C43.9766579,16.4047456 40.4899474,18.6296403 35.5,18.3159543 C30.5071579,18.6310805 27.0230526,16.4050337 25.6596316,15.3378101 C22.5220263,18.377885 20.7368421,22.6822093 20.7368421,27.26767 C20.7368421,36.0923559 27.3594211,43.2717027 35.5,43.2717027 L35.5,45 C26.4018421,45 19,37.0455118 19,27.26767 C19,21.9249271 21.2092632,16.9189141 25.0615789,13.5334678 L25.6688947,13 L26.2458158,13.5654413 C26.2793947,13.5979909 29.8248684,16.965002 35.4409474,16.5876571 L35.5,16.5839124 L35.5587632,16.5876571 C41.1748421,16.9655781 44.7206053,13.5977028 44.7556316,13.564001 L45.3325526,13.0043207 L45.9384211,13.5334678 C49.7907368,16.9189141 52,21.9249271 52,27.26767 C52,37.0455118 44.5981579,45 35.5,45" id="Fill-1" fill="#FFFFFF"></path>
                            <path d="M35.9211489,56 C33.2001892,56 30.4807228,55.5211113 27.9001419,54.5644341 L24,53.1184156 L25.3228464,52.2431577 C28.1596934,50.3655618 28.9356597,46.0431853 28.9431267,46 L30.7133932,46.2563609 C30.6826294,46.4362536 30.0168753,50.1862192 27.5208204,52.6447531 L28.5691814,53.0334204 C33.1963063,54.7487278 38.3099783,54.7883372 42.9681659,53.1445468 L44.4346766,52.6268739 C41.9535555,50.16834 41.2907883,46.4357035 41.2600244,46.2563609 L43.0305896,46.0005501 C43.0380566,46.0431853 43.8137243,50.3655618 46.6508699,52.2431577 L48,53.1362949 L43.6094283,54.6860129 C41.1253205,55.562096 38.5223387,56 35.9211489,56" id="Fill-3" fill="#FFFFFF"></path>
                            <path d="M1.74300876,83 L0,82.9027574 C0.368618278,76.1968244 2.43224057,67.0293643 5.66252371,62.4823932 C10.1100909,56.2219602 18.0518219,51.9055009 25,52.001572 L24.9775978,53.7589687 C18.5790013,53.6754924 11.2176913,57.6835285 7.0823005,63.5046123 C4.84004236,66.6608968 2.20676372,74.5659602 1.74300876,83" id="Fill-5" fill="#FFFFFF"></path>
                            <g id="Group-9" transform="translate(44.000000, 52.000000)">
                                <mask id="mask-2" fill="white">
                                    <use xlink:href="#path-1"></use>
                                </mask>
                                <g id="Clip-8"></g>
                                <path d="M24.1164345,31 C23.6400667,22.5788208 20.9351701,14.6858113 18.6319287,11.5343396 C14.4274,5.78179245 6.97795172,1.80209434 0.450457471,1.80209434 C0.383216092,1.80209434 0.316871264,1.80267925 0.249928736,1.8035566 L0.226917241,0.0488396226 C0.299537931,0.0479622642 0.373055172,0.0473773585 0.445675862,0.0473773585 C7.52066437,0.0473773585 15.5684115,4.32625472 20.0903195,10.5136792 C23.4084575,15.053717 25.5282046,24.2071981 25.9068483,30.9029057 L24.1164345,31 Z" id="Fill-7" fill="#FFFFFF" mask="url(#mask-2)"></path>
                            </g>
                            <g id="Group-12" transform="translate(17.000000, 0.000000)">
                                <mask id="mask-4" fill="white">
                                    <use xlink:href="#path-3"></use>
                                </mask>
                                <g id="Clip-11"></g>
                                <path d="M1.89827619,26.9622568 C-0.943088889,20.7153095 -0.376342857,13.3750042 3.37710159,7.80675158 C6.6736254,2.91634105 11.9493556,0.111183158 17.8517365,0.111183158 C20.8736968,0.111183158 22.5134429,1.08119368 23.7106571,1.78973053 C24.3766571,2.18364632 24.8582444,2.46842526 25.360681,2.47297263 C28.2833873,2.49968842 31.0827603,4.28197263 33.2434429,7.49213053 C36.3297127,12.0778674 38.2675143,20.12472 35.2279349,26.9560042 L33.609919,26.2812884 C36.268927,20.3051937 34.695546,12.7738989 31.7669667,8.42292 C29.9389905,5.70672 27.6579111,4.19926737 25.3442365,4.17823579 C24.3546333,4.16942526 23.595546,3.72008842 22.7915302,3.24460421 C21.6600937,2.57500421 20.3780143,1.81644632 17.8517365,1.81644632 C12.5557444,1.81644632 7.81798254,4.33938316 4.85299048,8.73839368 C1.42109365,13.8297411 0.90661746,20.5496147 3.5107127,26.2750358 L1.89827619,26.9622568 Z" id="Fill-10" fill="#FFFFFF" mask="url(#mask-4)"></path>
                            </g>
                        </g>
                    </g>
                </g>
                <g id="Icon/Practitioner" transform="translate(98.000000, 55.000000)">
                    <g id="Practitioner">
                        <circle id="Oval" fill="#6E318D" cx="53" cy="53" r="53"></circle>
                        <g transform="translate(20.000000, 8.000000)">
                            <g id="Group-3" transform="translate(14.000000, 0.000000)">
                                <mask id="mask-6" fill="white">
                                    <use xlink:href="#path-5"></use>
                                </mask>
                                <g id="Clip-2"></g>
                                <path d="M8.06573793,43.7227716 C3.09332414,39.0806297 0.241737931,32.0216103 0.241737931,24.3559587 C0.241737931,10.9470297 9.13111724,0.0378683871 20.0577379,0.0378683871 C30.9843586,0.0378683871 39.8737379,10.9470297 39.8737379,24.3559587 C39.8737379,31.6676232 37.2326345,38.5222555 32.6279448,43.1618426 L31.2767724,41.74192 C35.5131862,37.4736361 37.9427034,31.1367845 37.9427034,24.3559587 C37.9427034,12.0424877 29.919531,2.02496516 20.0577379,2.02496516 C10.1959448,2.02496516 2.17277241,12.0424877 2.17277241,24.3559587 C2.17277241,31.4623845 4.79346207,37.9848877 9.36311724,42.2511845 L8.06573793,43.7227716 Z" id="Fill-1" fill="#FFFFFF" mask="url(#mask-6)"></path>
                            </g>
                            <path d="M34,43.0048987 C41.7484522,43.0048987 48.0521739,35.9653262 48.0521739,27.3120018 C48.0521739,22.8569405 46.384,18.6726431 43.4480696,15.6968069 C42.0578783,16.7909775 38.7223652,18.9035048 34,18.5973992 C29.2781913,18.9032198 25.9424,16.7912625 24.5516522,15.6968069 C21.6157217,18.6726431 19.9478261,22.8569405 19.9478261,27.3120018 C19.9478261,35.9653262 26.2515478,43.0048987 34,43.0048987 L34,45 C25.1774609,45 18,37.0651971 18,27.3120018 C18,21.9845112 20.1409391,16.9921977 23.8738087,13.6159163 L24.554713,13 L25.2019478,13.6529682 C25.233113,13.6840347 28.6014609,16.977377 33.9340522,16.6022979 L34.0659478,16.6022979 C39.434713,16.978802 42.7649391,13.6860298 42.7980522,13.6529682 L43.4450087,13 L44.1261913,13.6159163 C47.8590609,16.9921977 50,21.9845112 50,27.3120018 C50,37.0651971 42.8225391,45 34,45 L34,43.0048987 Z" id="Fill-4" fill="#FFFFFF"></path>
                            <path d="M32.3549619,63 L23,51.809526 L23.8809298,51.2190613 C26.6596137,49.3562063 27.42551,45.0433675 27.4329604,45 L29.4934301,45.3027383 C29.4615426,45.4942779 28.732004,49.6525506 25.9315651,52.1517398 L34,61.8032248 L32.3549619,63 Z" id="Fill-6" fill="#FFFFFF"></path>
                            <path d="M13.9305792,82 L12,81.5846741 L15.5835865,65.5769064 L16.4852011,65.6954127 C28.6673056,67.2982938 33.7946212,63.1392202 35.9838534,61.3627329 C36.2487186,61.1475941 36.4777225,60.9620819 36.6841367,60.8131183 C39.4166531,58.845858 41.7866036,54.0280775 42.5874113,52.2706952 C39.7995499,49.8017212 39.0811949,45.496176 39.0501339,45.3015266 L41.0030205,45.0013844 L40.0265772,45.1514555 L41.0027382,45 C41.0097975,45.0431939 41.7354942,49.3387712 44.3683332,51.1941705 L45,51.6393998 L44.70718,52.3457307 C44.584348,52.6422734 41.6553005,59.6385767 37.8542874,62.3755743 C37.6936175,62.4910349 37.4852268,62.660211 37.2440809,62.855968 C34.9111212,64.7484697 29.5214817,69.1210207 17.1259038,67.7266332 L13.9305792,82 Z" id="Fill-8" fill="#FFFFFF"></path>
                            <path d="M1.9287601,82 L0,81.8917029 C0.333648729,75.7808905 3.33676326,63.9518778 6.23583678,59.3703776 C8.98119456,55.0331756 14.4937118,50.2633447 21,51.0953017 L20.7582496,53.0387734 C17.2503844,52.5879552 11.7682239,54.2557869 7.86185689,60.4284434 C5.18135226,64.6640644 2.24695446,76.1718235 1.9287601,82" id="Fill-10" fill="#FFFFFF"></path>
                            <path d="M65.0712399,82 C64.7530455,76.1710668 61.8186477,64.6626459 59.1381431,60.4266784 C55.2317761,54.2535169 49.7490637,52.588907 46.2417504,53.0364038 L46,51.0927731 C48.9821407,50.711883 52.0743938,51.5083658 54.9420067,53.3985432 C57.9928642,55.4090606 59.8992706,58.0019676 60.7641632,59.3685261 C63.6632367,63.9504011 66.6663513,75.7801018 67,81.891694 L65.0712399,82 Z" id="Fill-12" fill="#FFFFFF"></path>
                            <mask id="mask-8" fill="white">
                                <use xlink:href="#path-7"></use>
                            </mask>
                            <g id="Clip-15"></g>
                            <polygon id="Fill-14" fill="#FFFFFF" mask="url(#mask-8)" points="39 73 48 73 48 71 39 71"></polygon>
                            <polygon id="Fill-16" fill="#FFFFFF" mask="url(#mask-8)" points="43 76 45 76 45 67 43 67"></polygon>
                        </g>
                    </g>
                </g>
            </g>
        </g>
    </g>
</svg>