<svg xmlns="http://www.w3.org/2000/svg" xmlns:xlink="http://www.w3.org/1999/xlink" width="60" height="45" viewBox="0 0 60 45">
    <defs>
        <path id="a" d="M1.356.044v1.319H.03V.044h1.326z"/>
    </defs>
    <g fill="none" fill-rule="evenodd">
        <path fill="#423D3D" d="M19.646 16.932h4.708L26.712 13l-2.358-3.932h-4.708L17.288 13l2.358 3.932zM25.002 18h-6.004L16 13l2.998-5h6.004L28 13l-2.998 5z"/>
        <path fill="#423D3D" d="M11.646 21.932h4.708L18.712 18l-2.358-3.932h-4.708L9.288 18l2.358 3.932zM17.002 23h-6.004L8 18l2.998-5h6.004L20 18l-2.998 5z"/>
        <path fill="#423D3D" d="M19.646 25.932h4.708L26.712 22l-2.358-3.932h-4.708L17.288 22l2.358 3.932zM25.002 27h-6.004L16 22l2.998-5h6.004L28 22l-2.998 5zM11.959 13L8 8.721 9.041 8 13 12.279zM18.29 9L16 3.603 16.71 3 19 8.397zM25.094 9L24 8.296 27.905 3 29 3.704zM33.638 14H28v-1.266h5.197L36.25 9l.75.888z"/>
        <path fill="#423D3D" d="M33.978 23H28v-1.099h5.37l2.353-3.73-2.533-4.646.968-.525L37 18.212z"/>
        <path fill="#423D3D" d="M33.714 32h-6.731L24 27.048l1.028-.522 2.648 4.396h5.36l2.601-4.13-2.766-4.238L33.88 22 37 26.782z"/>
        <path fill="#423D3D" d="M25.126 37h-6.26L16 31.748 18.86 27l.99.503-2.57 4.27 2.284 4.187h4.88l2.554-4.443 1.002.486z"/>
        <path fill="#423D3D" d="M17 32h-5.944L8 26.862 10.892 22l.995.53-2.578 4.332 2.414 4.058H17zM8.709 17L3 15.796 3.291 15 9 16.204z"/>
        <path fill="#423D3D" d="M3.351 29L3 28.216 8.649 27l.351.784zM8.808 37L8 36.44 10.192 31l.808.56zM16.853 42L16 41.502 18.147 36l.853.498zM27.897 42L24 36.672 25.103 36 29 41.328zM35.257 36L33 31.67l.743-.67L36 35.33z"/>
        <path fill="#423D3D" d="M17.667 41.133l.288.223c2.202 1.705 4.468 2.148 6.735 1.315 1.759-.645 2.886-1.843 2.897-1.856l.312-.335.46.026c2.593.159 4.494-.521 5.648-2.02.836-1.087.972-2.223.973-2.234l.066-.639.618-.184c2.323-.695 3.782-2.247 4.338-4.614.277-1.183.26-2.298.209-2.963l-4.353-.908-2.919-4.766 2.865-4.812 4.283-1.175c.183-1.982-.323-3.555-1.51-4.683a5.417 5.417 0 0 0-2.157-1.248l-.518-.123-.167-.5c-.924-2.69-2.496-4.419-4.672-5.139-1.587-.526-2.93-.304-2.944-.302l-.438.08-.345-.28c-2.367-1.91-4.78-2.474-7.169-1.678-1.772.59-2.9 1.747-2.911 1.758l-.382.403-.542-.126c-1.955-.453-3.764.197-5.378 1.932a11.302 11.302 0 0 0-1.932 2.909l-.174.411-.428.134c-3.74 1.167-4.347 6.48-4.353 6.534l-.027.254-.15.207c-4.567 6.306.278 10.637.486 10.818l.369.321-.04.487c-.209 2.425.472 4.439 2.022 5.987 1.143 1.14 2.358 1.599 2.37 1.603l.499.18.115.515c.447 1.998 1.83 3.362 4.113 4.054 1.802.547 3.463.457 3.48.455l.363-.021zM22.466 45c-1.599 0-3.454-.478-5.42-1.917-.676.001-2.178-.057-3.787-.545-2.775-.842-4.602-2.563-5.312-4.993a9.7 9.7 0 0 1-2.59-1.841c-1.298-1.297-2.774-3.555-2.609-7.047a10.232 10.232 0 0 1-2.167-3.42c-.804-2.13-1.167-5.484 1.598-9.428.08-.53.318-1.796.903-3.173.97-2.283 2.465-3.86 4.344-4.587a13.451 13.451 0 0 1 2.108-3.068c1.953-2.102 4.266-2.994 6.72-2.602A9.998 9.998 0 0 1 19.552.495c2.04-.68 5.177-.907 8.678 1.755a8.937 8.937 0 0 1 3.443.424c1.838.608 4.288 2.125 5.725 5.884.577.214 1.54.66 2.439 1.489 1.269 1.171 2.661 3.345 2.084 7.047l-.095.614-4.756 1.305-1.876 3.151 1.88 3.07 4.848 1.01.118.635c.015.083.37 2.057-.14 4.304-.656 2.885-2.42 4.915-5.119 5.9a7.108 7.108 0 0 1-1.24 2.57c-1.004 1.305-2.93 2.798-6.48 2.798-.127 0-.256-.002-.386-.006a10.31 10.31 0 0 1-3.235 2 8.418 8.418 0 0 1-2.975.555z"/>
        <path fill="#878787" d="M14.187 7.753c.175.32.056.72-.266.894a.665.665 0 0 1-.9-.265.657.657 0 0 1 .267-.894.665.665 0 0 1 .9.265"/>
        <path fill="#A0A0A0" d="M15.185 7.13c.175.32.056.72-.266.894a.665.665 0 0 1-.899-.265.657.657 0 0 1 .266-.894.665.665 0 0 1 .9.265"/>
        <path fill="#423D3D" d="M15.093 8.341c.175.32.055.72-.266.895a.665.665 0 0 1-.9-.265.657.657 0 0 1 .267-.894.665.665 0 0 1 .899.264"/>
        <path fill="#878787" d="M14.613 17.13a.666.666 0 0 1-.938.023.657.657 0 0 1-.022-.932.666.666 0 0 1 .937-.023.657.657 0 0 1 .023.933"/>
        <path fill="#A0A0A0" d="M15.516 17.884a.666.666 0 0 1-.937.022.657.657 0 0 1-.023-.932.666.666 0 0 1 .938-.022.657.657 0 0 1 .022.932"/>
        <path fill="#423D3D" d="M14.328 18.168a.666.666 0 0 1-.938.023.657.657 0 0 1-.023-.932.666.666 0 0 1 .938-.023.657.657 0 0 1 .023.932"/>
        <path fill="#878787" d="M24.175 23.047a.657.657 0 0 1-.14-.922.666.666 0 0 1 .928-.14.657.657 0 0 1 .14.922.666.666 0 0 1-.928.14"/>
        <path fill="#A0A0A0" d="M23.537 24.032a.657.657 0 0 1-.14-.922.666.666 0 0 1 .927-.14.657.657 0 0 1 .14.923.666.666 0 0 1-.927.14"/>
        <path fill="#423D3D" d="M23.104 22.896a.657.657 0 0 1-.14-.922.666.666 0 0 1 .927-.14.657.657 0 0 1 .14.922.666.666 0 0 1-.927.14"/>
        <path fill="#878787" d="M23.353 12.855c0 .365-.297.66-.663.66a.661.661 0 0 1-.663-.66c0-.364.297-.659.663-.659.366 0 .663.295.663.66"/>
        <path fill="#A0A0A0" d="M24.53 12.781c0 .364-.297.66-.663.66a.661.661 0 0 1-.663-.66c0-.364.297-.66.663-.66.366 0 .663.296.663.66"/>
        <path fill="#423D3D" d="M23.867 13.802c0 .364-.297.66-.663.66a.661.661 0 0 1-.663-.66c0-.364.296-.66.663-.66.366 0 .663.296.663.66"/>
        <path fill="#878787" d="M23.942 5.244c0 .364-.297.66-.664.66a.661.661 0 0 1-.663-.66c0-.364.297-.66.663-.66.367 0 .664.296.664.66"/>
        <path fill="#A0A0A0" d="M25.118 5.17c0 .364-.297.659-.663.659a.661.661 0 0 1-.663-.66c0-.364.297-.659.663-.659.366 0 .663.295.663.66"/>
        <path fill="#423D3D" d="M24.455 6.19c0 .365-.297.66-.663.66a.661.661 0 0 1-.663-.66c0-.363.297-.659.663-.659.366 0 .663.296.663.66"/>
        <path fill="#878787" d="M32.03 8.906c0 .364-.297.659-.663.659a.661.661 0 0 1-.663-.66c0-.364.297-.659.663-.659.366 0 .663.295.663.66"/>
        <path fill="#A0A0A0" d="M33.207 8.831c0 .364-.297.66-.663.66a.661.661 0 0 1-.663-.66c0-.364.296-.659.663-.659.366 0 .663.295.663.66"/>
        <path fill="#423D3D" d="M32.544 9.852c0 .364-.297.66-.663.66a.661.661 0 0 1-.664-.66c0-.364.297-.659.664-.659.366 0 .663.295.663.66"/>
        <path fill="#878787" d="M37.973 13.447a.657.657 0 0 1 .02.932.666.666 0 0 1-.937.02.657.657 0 0 1-.02-.931.666.666 0 0 1 .937-.021"/>
        <path fill="#A0A0A0" d="M38.732 12.55a.657.657 0 0 1 .02.932.666.666 0 0 1-.937.021.657.657 0 0 1-.02-.932.666.666 0 0 1 .937-.02"/>
        <path fill="#423D3D" d="M39.016 13.733a.657.657 0 0 1 .02.932.666.666 0 0 1-.937.02.657.657 0 0 1-.02-.932.666.666 0 0 1 .937-.02"/>
        <path fill="#878787" d="M31.729 18.407a.657.657 0 0 1-.077.93.666.666 0 0 1-.935-.076.657.657 0 0 1 .077-.93.666.666 0 0 1 .935.076"/>
        <path fill="#A0A0A0" d="M32.577 17.594a.657.657 0 0 1-.076.929.666.666 0 0 1-.935-.076.657.657 0 0 1 .077-.93.666.666 0 0 1 .934.077"/>
        <path fill="#423D3D" d="M32.736 18.799a.657.657 0 0 1-.076.93.666.666 0 0 1-.935-.077.657.657 0 0 1 .077-.93.666.666 0 0 1 .934.077"/>
        <path fill="#878787" d="M31.292 27.042c0 .364-.297.66-.663.66a.661.661 0 0 1-.663-.66c0-.364.297-.66.663-.66.366 0 .663.296.663.66"/>
        <path fill="#A0A0A0" d="M32.469 26.968c0 .364-.297.659-.663.659a.661.661 0 0 1-.663-.66c0-.363.297-.659.663-.659.366 0 .663.296.663.66"/>
        <path fill="#423D3D" d="M31.806 27.989c0 .364-.297.66-.663.66a.661.661 0 0 1-.664-.66c0-.364.297-.66.664-.66.366 0 .663.296.663.66"/>
        <path fill="#878787" d="M41.209 21.917c0 .364-.297.659-.663.659a.661.661 0 0 1-.663-.66c0-.364.297-.659.663-.659.366 0 .663.295.663.66"/>
        <path fill="#A0A0A0" d="M42.386 21.842c0 .364-.297.66-.664.66a.661.661 0 0 1-.663-.66c0-.364.297-.659.663-.659.367 0 .664.295.664.66"/>
        <path fill="#423D3D" d="M41.722 22.863c0 .365-.297.66-.663.66a.661.661 0 0 1-.663-.66c0-.364.297-.659.663-.659.366 0 .663.295.663.66"/>
        <path fill="#878787" d="M50.174 9.416c0 .364-.297.66-.663.66a.661.661 0 0 1-.664-.66c0-.364.297-.66.664-.66.366 0 .663.296.663.66"/>
        <path fill="#A0A0A0" d="M51.35 9.342c0 .364-.297.66-.663.66a.661.661 0 0 1-.663-.66c0-.364.297-.66.663-.66.366 0 .663.296.663.66"/>
        <path fill="#423D3D" d="M50.687 10.363c0 .364-.297.66-.663.66a.661.661 0 0 1-.663-.66c0-.364.297-.66.663-.66.366 0 .663.296.663.66"/>
        <path fill="#878787" d="M53.377 7.076c0 .365-.297.66-.663.66a.661.661 0 0 1-.663-.66c0-.364.297-.659.663-.659.366 0 .663.295.663.66"/>
        <path fill="#A0A0A0" d="M54.554 7.002c0 .364-.297.66-.663.66a.661.661 0 0 1-.663-.66c0-.364.297-.66.663-.66.366 0 .663.296.663.66"/>
        <path fill="#423D3D" d="M53.89 8.023c0 .364-.296.66-.662.66a.661.661 0 0 1-.663-.66c0-.364.296-.66.663-.66.366 0 .663.296.663.66"/>
        <path fill="#878787" d="M58.607 10.075c0 .365-.297.66-.663.66a.661.661 0 0 1-.663-.66c0-.364.297-.659.663-.659.366 0 .663.295.663.66"/>
        <g transform="translate(58.428 9.298)">
            <mask id="b" fill="#fff">
                <use xlink:href="#a"/>
            </mask>
            <path fill="#A0A0A0" d="M1.356.704c0 .364-.297.659-.663.659A.661.661 0 0 1 .03.703C.03.34.327.045.693.045c.366 0 .663.295.663.66" mask="url(#b)"/>
        </g>
        <path fill="#423D3D" d="M59.12 11.022c0 .364-.296.66-.663.66a.661.661 0 0 1-.663-.66c0-.364.297-.66.663-.66.367 0 .663.296.663.66"/>
        <path fill="#878787" d="M38.388 31.302c0 .364-.297.66-.664.66a.661.661 0 0 1-.663-.66c0-.364.297-.66.663-.66.367 0 .664.296.664.66"/>
        <path fill="#A0A0A0" d="M39.564 31.227c0 .365-.297.66-.663.66a.661.661 0 0 1-.663-.66c0-.364.297-.659.663-.659.366 0 .663.295.663.66"/>
        <path fill="#423D3D" d="M38.901 32.249c0 .364-.297.659-.663.659a.661.661 0 0 1-.663-.66c0-.364.297-.659.663-.659.366 0 .663.295.663.66"/>
        <path fill="#878787" d="M32.539 36.762c.26.257.26.675.002.933a.666.666 0 0 1-.937.002.657.657 0 0 1-.003-.932.666.666 0 0 1 .938-.003"/>
        <path fill="#A0A0A0" d="M33.315 35.88c.26.257.261.675.003.933a.666.666 0 0 1-.938.002.657.657 0 0 1-.002-.932.666.666 0 0 1 .937-.002"/>
        <path fill="#423D3D" d="M33.576 37.068c.26.257.26.674.003.932a.666.666 0 0 1-.938.003.657.657 0 0 1-.003-.932.666.666 0 0 1 .938-.003"/>
        <path fill="#878787" d="M23.942 39.742c0 .364-.297.66-.664.66a.661.661 0 0 1-.663-.66c0-.364.297-.66.663-.66.367 0 .664.296.664.66"/>
        <path fill="#A0A0A0" d="M25.118 39.668c0 .364-.297.659-.663.659a.661.661 0 0 1-.663-.66c0-.364.297-.659.663-.659.366 0 .663.295.663.66"/>
        <path fill="#423D3D" d="M24.455 40.689c0 .364-.297.659-.663.659a.661.661 0 0 1-.663-.66c0-.364.297-.659.663-.659.366 0 .663.295.663.66"/>
        <path fill="#878787" d="M23.428 31.525c0 .364-.297.66-.663.66a.661.661 0 0 1-.663-.66c0-.364.297-.66.663-.66.366 0 .663.296.663.66"/>
        <path fill="#A0A0A0" d="M24.605 31.45c0 .365-.297.66-.663.66a.661.661 0 0 1-.664-.66c0-.364.297-.659.664-.659.366 0 .663.295.663.66"/>
        <path fill="#423D3D" d="M23.942 32.472c0 .364-.297.659-.664.659a.661.661 0 0 1-.663-.66c0-.363.297-.659.663-.659.367 0 .664.296.664.66"/>
        <path fill="#878787" d="M15.765 34.223c.31.195.401.603.205.91a.665.665 0 0 1-.915.203.657.657 0 0 1-.205-.91.665.665 0 0 1 .915-.203"/>
        <path fill="#A0A0A0" d="M16.333 33.195c.31.196.4.603.204.91a.665.665 0 0 1-.915.204.657.657 0 0 1-.204-.91.665.665 0 0 1 .915-.204"/>
        <path fill="#423D3D" d="M16.845 34.3c.309.195.4.602.204.91a.665.665 0 0 1-.915.203.657.657 0 0 1-.205-.91.665.665 0 0 1 .916-.204"/>
        <path fill="#878787" d="M14.92 27.265c0 .364-.298.66-.664.66a.661.661 0 0 1-.663-.66c0-.364.297-.659.663-.659.366 0 .663.295.663.66"/>
        <path fill="#A0A0A0" d="M16.096 27.19c0 .365-.297.66-.663.66a.661.661 0 0 1-.664-.66c0-.363.297-.658.664-.658.366 0 .663.295.663.659"/>
        <path fill="#423D3D" d="M15.433 28.212c0 .364-.297.66-.664.66a.661.661 0 0 1-.663-.66c0-.364.297-.66.663-.66.367 0 .664.296.664.66"/>
        <path fill="#878787" d="M8.54 31.153c0 .364-.297.66-.664.66a.661.661 0 0 1-.663-.66c0-.364.297-.66.663-.66.367 0 .663.296.663.66"/>
        <path fill="#A0A0A0" d="M9.716 31.079c0 .364-.297.659-.663.659a.661.661 0 0 1-.663-.66c0-.364.297-.659.663-.659.366 0 .663.295.663.66"/>
        <path fill="#423D3D" d="M9.053 32.1c0 .364-.297.66-.663.66a.661.661 0 0 1-.663-.66c0-.364.297-.66.663-.66.366 0 .663.296.663.66"/>
        <path fill="#878787" d="M5.766 23.136a.66.66 0 0 1 .62.7.662.662 0 0 1-.705.616.66.66 0 0 1-.619-.7.662.662 0 0 1 .704-.616"/>
        <path fill="#A0A0A0" d="M5.766 21.964a.66.66 0 0 1 .62.7.662.662 0 0 1-.704.616.66.66 0 0 1-.62-.7.662.662 0 0 1 .704-.616"/>
        <path fill="#423D3D" d="M6.75 22.687a.66.66 0 0 1 .619.7.662.662 0 0 1-.705.616.66.66 0 0 1-.619-.7.662.662 0 0 1 .704-.616"/>
        <path fill="#878787" d="M8.154 13.529a.665.665 0 0 1-.887-.303.658.658 0 0 1 .304-.882.665.665 0 0 1 .887.303.658.658 0 0 1-.304.882"/>
        <path fill="#A0A0A0" d="M8.738 14.547a.665.665 0 0 1-.887-.303.658.658 0 0 1 .304-.882.665.665 0 0 1 .887.303.658.658 0 0 1-.304.882"/>
        <path fill="#423D3D" d="M7.524 14.403a.665.665 0 0 1-.887-.302.658.658 0 0 1 .304-.882.665.665 0 0 1 .887.302.658.658 0 0 1-.304.882M43.3 22.425l-.025-.595c.02 0 2.11-.11 4.439-1.48a11.69 11.69 0 0 0 3.506-3.184c1.208-1.644 2.079-3.674 2.588-6.035l.585.125c-.528 2.45-1.437 4.563-2.702 6.278a12.276 12.276 0 0 1-3.7 3.344c-2.454 1.434-4.6 1.543-4.69 1.547"/>
        <path fill="#423D3D" d="M54.883 13.035l-.894-1.5-1.386 1.01-.353-.48 1.918-1.398 1.23 2.064z"/>
    </g>
</svg>
