<svg xmlns="http://www.w3.org/2000/svg" xmlns:xlink="http://www.w3.org/1999/xlink" width="35" height="33" viewBox="0 0 35 33">
    <defs>
        <path id="a" d="M0 8.94V.01h23.96v8.93H0z"/>
        <path id="c" d="M.974 3H.026V.023h.948V3z"/>
        <path id="e" d="M0 28.987V.009h34.932v28.978z"/>
        <path id="g" d="M.005 4h1.97V.061H.004V4z"/>
    </defs>
    <g fill="none" fill-rule="evenodd">
        <path fill="#423D3D" d="M24.495 29.02a.665.665 0 0 0-.808.485l-.667 2.666a.666.666 0 1 0 1.293.324l.667-2.666a.667.667 0 0 0-.485-.808"/>
        <g transform="translate(0 9)">
            <mask id="b" fill="#fff">
                <use xlink:href="#a"/>
            </mask>
            <path fill="#423D3D" d="M17.114 8.94a.545.545 0 0 0 .218-.046l6.275-2.71a.605.605 0 0 0 .309-.777.564.564 0 0 0-.746-.323L17.114 7.7 1.141.802V.605A.584.584 0 0 0 .57.009.584.584 0 0 0 0 .605V1.2c0 .241.14.458.353.55l16.543 7.144c.07.03.144.046.218.046" mask="url(#b)"/>
        </g>
        <path fill="#423D3D" d="M24.938 23.826a.6.6 0 0 0-.795-.263c-1.128.544-3.011 1.176-5.674 1.262v-5.193a.587.587 0 0 0-.594-.58.587.587 0 0 0-.594.58v5.188c-7.372-.23-9.751-4.584-10.093-5.309V15.58A.587.587 0 0 0 6.594 15a.587.587 0 0 0-.594.579v4.053c0 .073.014.146.042.215.104.25 2.63 6.153 11.833 6.153 3.216 0 5.47-.76 6.794-1.399a.571.571 0 0 0 .269-.775"/>
        <g transform="translate(26 30)">
            <mask id="d" fill="#fff">
                <use xlink:href="#c"/>
            </mask>
            <path fill="#423D3D" d="M.5.023C.238.023.026.29.026.62v1.786C.026 2.733.238 3 .5 3s.474-.267.474-.595V.619C.974.29.762.023.5.023" mask="url(#d)"/>
        </g>
        <g>
            <mask id="f" fill="#fff">
                <use xlink:href="#e"/>
            </mask>
            <path fill="#423D3D" d="M26.199 27.827a.581.581 0 0 1-.582-.58.581.581 0 0 1 1.164 0c0 .32-.26.58-.582.58M17.466 8.123c-.711 0-1.164-.343-1.164-.58 0-.236.453-.58 1.164-.58.71 0 1.164.344 1.164.58 0 .237-.453.58-1.164.58m16.884.58a.58.58 0 0 0-.583.579v.191l-6.986 2.863v-1.048l7.791-3.21a.579.579 0 0 0 0-1.07L17.689.053a.586.586 0 0 0-.444 0L.36 7.008a.58.58 0 0 0 0 1.07l16.884 6.955a.58.58 0 0 0 .444 0l6.105-2.514a.578.578 0 0 0 .316-.757.583.583 0 0 0-.76-.314l-5.883 2.423L2.105 7.543l15.36-6.327 15.362 6.327-6.684 2.754-6.402-2.38a1.38 1.38 0 0 0 .054-.374c0-.975-1.023-1.738-2.33-1.738-1.305 0-2.328.763-2.328 1.738s1.023 1.739 2.329 1.739c.583 0 1.103-.158 1.507-.413l6.644 2.47v14.276a1.737 1.737 0 0 0-1.165 1.633c0 .958.784 1.739 1.747 1.739.963 0 1.746-.78 1.746-1.74 0-.754-.488-1.39-1.164-1.631v-3.29c1.671-1.256 2.27-2.928 2.297-3.002a.582.582 0 0 0 .032-.19v-4.056a.58.58 0 0 0-.582-.58.58.58 0 0 0-.583.58v3.95c-.1.245-.45 1.002-1.164 1.75v-7.189l7.79-3.192a.58.58 0 0 0 .36-.536v-.579a.58.58 0 0 0-.581-.58" mask="url(#f)"/>
        </g>
        <g transform="translate(27 29)">
            <mask id="h" fill="#fff">
                <use xlink:href="#g"/>
            </mask>
            <path fill="#423D3D" d="M1.298.558a.656.656 0 0 0-1.273.32L.68 3.502a.657.657 0 0 0 1.274-.319L1.298.558z" mask="url(#h)"/>
        </g>
    </g>
</svg>
