<svg xmlns="http://www.w3.org/2000/svg" xmlns:xlink="http://www.w3.org/1999/xlink" width="119" height="119" viewBox="0 0 119 119">
    <defs>
        <path id="a" d="M0 .657V119h118.179V.657z"/>
    </defs>
    <g fill="none" fill-rule="evenodd">
        <path fill="#FFF" d="M55.942 69.523zm1.972-48.053c-15.228 0-13.182 16-13.073 18.334-2.61 2.22-.997 8.526 1.611 8.526.97 5.931 5.42 10.342 5.42 10.342s-.034 4.17-1.548 4.412c-13.956 0-23.094 21.002-23.094 29.825h24.165l4.547-23.386h-.116l-2.228-5.576 7.519-.279-2.507 5.855h-.015l5.531 23.386h24.472c0-8.823-10.499-29.825-23.093-29.825-1.514-.242-1.55-4.412-1.55-4.412s4.45-4.41 5.42-10.342c2.609 0 4.22-6.307 1.611-8.526.11-2.335 2.022-18.334-13.072-18.334zm-6.131 43.017c.017.056.036.11.058.164l2.097 5.253-4.104 21.108h-20.58c.218-1.724.703-3.748 1.417-5.883a43.895 43.895 0 0 1 4.472-9.424c2.54-4.006 7.888-10.725 15.18-10.725.1 0 .2-.008.298-.023a2.744 2.744 0 0 0 1.162-.47zm11.148-1.36c.47.927 1.186 1.656 2.276 1.83.098.015.198.023.298.023 2.527 0 5.142 1.02 7.772 3.03 2.398 1.834 4.79 4.505 6.918 7.724a46.548 46.548 0 0 1 4.789 9.448c.787 2.14 1.324 4.144 1.568 5.83H65.623l-5.036-21.296 2.27-5.3c.176-.414.198-.87.074-1.289zm-5.017-39.76c3.58 0 6.33 1.003 8.178 2.981 3.634 3.891 3.182 10.634 3.034 12.85-.014.211-.025.385-.031.517a1.902 1.902 0 0 0 .666 1.536c.542.46.782 1.611.597 2.86-.207 1.38-.797 2.183-1.039 2.323a1.897 1.897 0 0 0-1.813 1.59c-.853 5.223-4.844 9.264-4.883 9.301-.363.36-.566.851-.56 1.363.007.95.11 2.602.66 3.977l-.045-.07a1.894 1.894 0 0 0-1.561-.824l-.071.002-7.518.278a1.98 1.98 0 0 0-.217.021c.37-1.233.448-2.568.455-3.384a1.9 1.9 0 0 0-.561-1.363c-.04-.04-4.024-4.038-4.884-9.302a1.895 1.895 0 0 0-1.812-1.589c-.242-.14-.833-.942-1.039-2.322-.185-1.25.054-2.4.597-2.86.448-.382.694-.949.666-1.536a24.985 24.985 0 0 0-.036-.572c-.155-2.206-.628-8.92 2.965-12.78 1.851-1.989 4.628-2.998 8.252-2.998z"/>
        <g transform="translate(.08 -.657)">
            <mask id="b" fill="#fff">
                <use xlink:href="#a"/>
            </mask>
            <path fill="#FFF" d="M59.09 3.396c-31.075 0-56.354 25.315-56.354 56.433 0 31.116 25.28 56.431 56.353 56.431 31.074 0 56.355-25.315 56.355-56.43 0-31.119-25.28-56.434-56.355-56.434m0 115.604c-15.783 0-30.622-6.155-41.783-17.332C6.146 90.493 0 75.633 0 59.83c0-15.806 6.147-30.665 17.307-41.84C28.466 6.811 43.306.656 59.09.656c15.784 0 30.623 6.155 41.783 17.331 11.16 11.176 17.307 26.035 17.307 41.841 0 15.804-6.146 30.664-17.307 41.84C89.712 112.844 74.873 119 59.09 119" mask="url(#b)"/>
        </g>
        <path fill="#FFF" d="M83.489 73.098l-1.643-1.747.002-.002-5.78-5.787 2.143-2.26 5.273 5.4 9.508-9.343 2.117 2.102-11.62 11.637zm2.1-23.471c-8.066 0-14.604 6.548-14.604 14.625s6.538 14.625 14.605 14.625c8.064 0 14.603-6.548 14.603-14.625S93.654 49.627 85.59 49.627z"/>
    </g>
</svg>
