<svg xmlns="http://www.w3.org/2000/svg" xmlns:xlink="http://www.w3.org/1999/xlink" width="120" height="29" viewBox="0 0 120 29">
    <defs>
        <path id="a" d="M0 28.188h119.816V.155H0z"/>
    </defs>
    <g fill="none" fill-rule="evenodd">
        <path fill="#423D3D" d="M0 0v13.691h14.497v-3.293H3.999V8.202h9.717V5.367H3.999V3.17h10.279V0z"/>
        <g>
            <path fill="#423D3D" d="M40.235 7.093h6.108c.92 0 1.289-.65 1.289-1.487V5.08c0-.93-.43-1.487-1.596-1.487h-5.77l-.03 3.5zM36.307.155h10.711c3.744 0 4.634 2.044 4.634 4.739v1.177c0 2.075-.829 4.43-3.621 4.43h-7.796v3.469h-3.928V.155zM57.882 8.58h5.003l-2.517-5.204-2.486 5.204zm-.06-8.425h5.063l7.028 13.877h-4.358l-1.228-2.478H56.41l-1.135 2.447h-4.39L57.822.155zM75.468 6.97h6.506c1.074 0 1.443-.465 1.443-1.456v-.465c0-1.239-.552-1.456-1.81-1.456h-6.139V6.97zM71.54.155h11.847c3.038 0 3.837 1.642 3.837 4.12v.867c0 1.859-.4 2.943-2.21 3.407v.031c1.166.217 2.148.775 2.148 3.067V14h-3.928v-1.673c0-1.455-.4-1.92-1.596-1.92h-6.169V14H71.54V.155zM89.893.155h14.025v3.221H93.821v2.23h9.545v2.881H93.82v2.23h10.312v3.346h-14.24zM106.496.155h3.929V10.47h8.838v3.562h-12.767zM116.962 2.013h.337c.276 0 .338-.186.338-.31 0-.309-.215-.309-.307-.309h-.337v.62h-.031zm-.4-.96h.737c.246 0 .768 0 .768.589 0 .402-.246.495-.4.526.308.031.308.217.369.496.03.186.061.465.122.589h-.46c0-.093-.092-.651-.092-.682-.03-.124-.061-.186-.215-.186h-.368v.868h-.43v-2.2h-.03zm-.89 1.084c0 .899.737 1.642 1.627 1.642s1.627-.743 1.627-1.642c0-.898-.737-1.641-1.627-1.641s-1.626.712-1.626 1.641zm3.56 0A1.934 1.934 0 0 1 117.3 4.09a1.954 1.954 0 0 1-1.933-1.952 1.934 1.934 0 1 1 3.867 0zM34.404 14.032l-6.23-6.908L34.005.217h-5.094l-3.96 4.832-3.99-4.832h-5.094l5.862 6.907-6.292 6.939h5.279l4.235-5.05 4.328 4.988zM.583 26.732c-.123-.465-.215-.96-.307-1.425a12.295 12.295 0 0 1-.184-1.487 26.454 26.454 0 0 1-.061-1.61c0-.992.092-2.014.245-3.036a16.1 16.1 0 0 1 .706-2.85h.4c-.277.96-.492 1.92-.615 2.881-.123.96-.184 1.951-.184 3.005 0 1.084.061 2.075.184 3.035s.338 1.92.614 2.912H.982c-.153-.465-.276-.96-.399-1.425M4.02 21.404a2.864 2.864 0 0 0-.184-.774 2.362 2.362 0 0 0-.307-.558c-.122-.124-.276-.217-.43-.217-.184 0-.306.062-.429.217s-.215.34-.307.558a5.29 5.29 0 0 0-.153.805c-.031.31-.062.589-.062.898 0 .31.03.62.062.93.03.31.092.557.184.805a2.4 2.4 0 0 0 .307.558.551.551 0 0 0 .46.217c.184 0 .307-.062.43-.217.122-.155.215-.341.276-.558.061-.248.123-.496.153-.805.031-.31.062-.62.062-.93 0-.34 0-.65-.062-.929zm-1.81-4.832v3.407c.092-.371.215-.62.399-.805.184-.155.368-.248.583-.248a.77.77 0 0 1 .614.279c.184.186.337.434.43.743.122.31.214.682.276 1.115.061.403.091.868.091 1.332 0 .465-.03.899-.091 1.332a5.064 5.064 0 0 1-.277 1.085c-.122.31-.276.557-.43.743-.184.186-.367.279-.613.279-.061 0-.153-.031-.246-.062-.092-.031-.184-.093-.276-.155a.844.844 0 0 1-.245-.31c-.093-.124-.154-.31-.215-.495v.867h-.522v-9.076l.522-.031zM7.304 25.648v-1.053c-.092.402-.245.712-.399.898a.753.753 0 0 1-.583.279.77.77 0 0 1-.521-.186 1.545 1.545 0 0 1-.338-.496 2.634 2.634 0 0 1-.184-.743 8.912 8.912 0 0 1-.062-.96V19.05h.522v4.46c0 .403.062.744.154.96.122.249.276.373.46.373a.643.643 0 0 0 .399-.155c.123-.093.215-.248.276-.434.061-.186.123-.403.184-.65.03-.248.062-.527.062-.837V19.05h.522v6.567h-.492v.03zM10.895 21.404a2.864 2.864 0 0 0-.184-.774 2.384 2.384 0 0 0-.307-.558c-.123-.124-.276-.217-.43-.217-.184 0-.306.062-.43.217-.122.155-.214.34-.306.558a5.366 5.366 0 0 0-.154.805c-.03.31-.061.589-.061.898 0 .31.03.62.061.93.031.31.092.557.185.805.092.217.184.403.306.558a.55.55 0 0 0 .46.217c.185 0 .308-.062.43-.217a1.58 1.58 0 0 0 .277-.558c.061-.248.122-.496.153-.805.03-.31.062-.62.062-.93-.031-.34-.031-.65-.062-.929zm-1.841-2.323v.898c.092-.371.215-.62.399-.805.184-.155.368-.248.583-.248a.77.77 0 0 1 .614.279c.184.186.337.434.43.743.122.31.214.682.275 1.115.062.403.093.868.093 1.332 0 .465-.031.899-.093 1.332a5.065 5.065 0 0 1-.276 1.085c-.122.31-.276.557-.43.743-.184.186-.368.279-.613.279-.062 0-.154-.031-.246-.062s-.184-.093-.276-.155a.847.847 0 0 1-.245-.31c-.093-.124-.154-.31-.215-.495v3.376h-.491v-9.076l.49-.031z"/>
            <mask id="b" fill="#fff">
                <use xlink:href="#a"/>
            </mask>
            <path fill="#423D3D" d="M12.092 25.648h.522V19.08h-.522v6.567zm0-7.775h.522v-1.332h-.522v1.332zM14.24 25.648l-1.135-6.567h.552l.86 5.483.828-5.483h.522l-1.135 6.567zM18.046 22.457a1.085 1.085 0 0 1-.338.124c-.122.031-.214.062-.337.093a.637.637 0 0 0-.307.186 1.068 1.068 0 0 0-.215.372c-.061.155-.092.372-.092.65 0 .186.03.341.061.465s.092.217.123.31c.062.062.123.124.184.155a.565.565 0 0 0 .215.062.73.73 0 0 0 .43-.155c.123-.093.215-.217.307-.372.061-.155.122-.31.153-.496.03-.186.061-.34.061-.496v-1.114a.412.412 0 0 1-.245.216m.706 3.346c-.123 0-.246-.093-.307-.248-.092-.155-.123-.403-.123-.774-.153.371-.307.62-.49.774a.97.97 0 0 1-.615.248.843.843 0 0 1-.399-.093.8.8 0 0 1-.337-.31 2.357 2.357 0 0 1-.215-.557 3.487 3.487 0 0 1-.092-.837c0-.371.03-.681.092-.929.061-.248.123-.434.245-.589.093-.154.215-.247.338-.34.123-.062.246-.155.399-.186.153-.062.276-.093.399-.124s.246-.062.338-.124c.092-.062.184-.124.214-.248.062-.093.092-.248.092-.464 0-.248-.03-.434-.06-.558-.032-.155-.093-.248-.154-.341a.953.953 0 0 0-.215-.155c-.092-.03-.154-.03-.245-.03-.216 0-.4.092-.522.247-.154.186-.215.496-.246.991h-.522c0-.402.062-.743.123-1.022a1.97 1.97 0 0 1 .276-.681c.123-.186.246-.31.4-.372.153-.062.306-.124.49-.124.154 0 .277.031.43.062a.716.716 0 0 1 .368.248c.123.124.215.31.277.558.06.247.092.557.092.929v3.376c0 .248 0 .434.03.558 0 .124.062.186.154.186.03 0 .092-.031.153-.062v.836a.506.506 0 0 1-.368.155M21.422 20.227c-.123-.217-.307-.34-.522-.34a.55.55 0 0 0-.46.216c-.123.155-.215.341-.307.558a5.863 5.863 0 0 0-.154.836c-.03.31-.06.62-.06.96 0 .31.03.589.06.899.031.278.093.557.154.774.061.217.153.403.276.527.123.124.246.217.4.217.245 0 .46-.155.582-.434.154-.279.215-.682.246-1.177h.522c-.062.805-.185 1.456-.43 1.89-.215.433-.553.65-.92.65-.246 0-.43-.093-.615-.248-.184-.155-.337-.403-.46-.681a4.768 4.768 0 0 1-.276-1.054 9.162 9.162 0 0 1-.092-1.363c0-.495.03-.96.092-1.393.061-.434.153-.806.276-1.116.123-.31.276-.557.46-.743a.88.88 0 0 1 .645-.279c.184 0 .337.031.49.124.154.093.277.217.4.403.123.186.215.433.276.712.062.279.123.62.154 1.022h-.522c0-.433-.092-.743-.215-.96M24.43 22.457a1.082 1.082 0 0 1-.338.124c-.123.031-.215.062-.337.093a.634.634 0 0 0-.307.186 1.069 1.069 0 0 0-.215.372c-.062.155-.092.372-.092.65 0 .186.03.341.06.465.032.124.093.217.124.31.061.062.123.124.184.155a.565.565 0 0 0 .215.062.73.73 0 0 0 .43-.155c.122-.093.214-.217.307-.372.06-.155.122-.31.153-.496.03-.186.061-.34.061-.496v-1.114c-.061.124-.123.185-.245.216m.706 3.346c-.123 0-.246-.093-.307-.248-.093-.155-.123-.403-.123-.774-.154.371-.307.62-.491.774a.971.971 0 0 1-.614.248.844.844 0 0 1-.4-.093.8.8 0 0 1-.337-.31 2.357 2.357 0 0 1-.215-.557 3.487 3.487 0 0 1-.092-.837c0-.371.031-.681.092-.929.062-.248.124-.434.246-.589.092-.154.215-.247.338-.34.122-.062.245-.155.399-.186.153-.062.276-.093.399-.124s.245-.062.337-.124c.093-.062.184-.124.215-.248.061-.093.092-.248.092-.464 0-.248-.03-.434-.061-.558a.883.883 0 0 0-.153-.341.953.953 0 0 0-.216-.155c-.091-.03-.153-.03-.245-.03a.654.654 0 0 0-.522.247c-.153.186-.215.496-.245.991h-.522c0-.402.062-.743.123-1.022a1.97 1.97 0 0 1 .276-.681c.123-.186.245-.31.399-.372.153-.062.307-.124.491-.124.154 0 .276.031.43.062a.716.716 0 0 1 .368.248c.123.124.215.31.276.558.062.247.092.557.092.929v3.376c0 .248 0 .434.03.558 0 .124.062.186.154.186a.51.51 0 0 0 .154-.062v.836a.505.505 0 0 1-.368.155M25.995 25.648h.522V19.08h-.522v6.567zm0-7.775h.522v-1.332h-.522v1.332zM27.775 19.081v1.053c.215-.805.552-1.208 1.013-1.208.215 0 .368.062.521.186.123.124.246.279.338.496.092.216.154.464.184.743.03.279.062.62.062.96v4.337h-.522v-4.46c0-.403-.062-.744-.154-.96-.122-.249-.276-.373-.46-.373a.643.643 0 0 0-.399.155c-.123.093-.215.248-.276.434a8.992 8.992 0 0 0-.184.65c-.031.248-.062.527-.062.837v3.717h-.521V19.08h.46zM32.685 21.002a1.655 1.655 0 0 0-.184-.589c-.092-.155-.184-.31-.276-.403a.49.49 0 0 0-.338-.155c-.122 0-.245.062-.368.155a1.501 1.501 0 0 0-.276.403 6.82 6.82 0 0 0-.184.589c-.03.216-.062.464-.092.712h1.78c0-.248-.03-.496-.062-.712m.123 4.212c-.245.372-.522.558-.86.558a.985.985 0 0 1-.644-.248c-.184-.155-.337-.403-.46-.712a5.065 5.065 0 0 1-.276-1.085 9.96 9.96 0 0 1-.092-1.393c0-.496.03-.96.092-1.363a5.02 5.02 0 0 1 .307-1.085c.122-.31.276-.557.46-.712.184-.155.368-.248.583-.248.276 0 .491.124.675.372.184.248.338.557.43.93.123.37.184.774.215 1.207.03.434.061.868.061 1.27h-2.302c0 .279 0 .558.062.837.03.247.092.495.184.681.092.186.184.372.307.465a.603.603 0 0 0 .43.186.569.569 0 0 0 .521-.31c.123-.217.215-.527.276-.96h.492c-.093.681-.246 1.239-.46 1.61M35.478 25.648H36v-9.076h-.522zM36.798 25.648h.522V19.08h-.522v6.567zm.03-7.775h.522v-1.332h-.521v1.332zM40.45 21.404a2.864 2.864 0 0 0-.184-.774 2.373 2.373 0 0 0-.307-.558c-.123-.124-.276-.217-.43-.217-.184 0-.307.062-.429.217-.123.155-.215.34-.307.558a5.29 5.29 0 0 0-.153.805c-.031.31-.062.589-.062.898 0 .31.03.62.062.93.03.31.091.557.183.805.093.217.185.403.307.558a.551.551 0 0 0 .46.217c.185 0 .308-.062.43-.217.123-.155.215-.341.277-.558.061-.248.122-.496.153-.805.031-.31.061-.62.061-.93 0-.34 0-.65-.06-.929zm-1.81-2.323v.898c.091-.371.214-.62.398-.805.184-.155.369-.248.583-.248a.77.77 0 0 1 .614.279c.184.186.338.434.43.743.123.31.215.682.276 1.115.061.403.092.868.092 1.332 0 .465-.03.899-.092 1.332a5.064 5.064 0 0 1-.276 1.085c-.123.31-.276.557-.43.743-.184.186-.368.279-.614.279-.06 0-.153-.031-.245-.062s-.184-.093-.276-.155a.845.845 0 0 1-.246-.31c-.092-.124-.153-.31-.214-.495v3.376h-.522v-9.076l.522-.031zM42.107 23.418c.062.31.123.557.215.774.092.217.184.372.307.465a.484.484 0 0 0 .368.155c.123 0 .246-.062.369-.155.123-.124.215-.279.307-.465.091-.217.153-.465.215-.774.06-.31.06-.65.06-1.053 0-.403-.03-.744-.06-1.054a3.965 3.965 0 0 0-.215-.774 1.51 1.51 0 0 0-.307-.495.483.483 0 0 0-.369-.155c-.122 0-.245.061-.368.155a1.51 1.51 0 0 0-.307.495 3.923 3.923 0 0 0-.215.774c-.06.31-.06.65-.06 1.054-.032.402 0 .743.06 1.053M41.586 21c.061-.433.153-.774.276-1.084.123-.31.276-.557.46-.743a.88.88 0 0 1 .645-.279c.245 0 .46.093.644.279.184.186.338.434.46.743.123.31.216.682.277 1.084.061.434.092.868.092 1.364 0 .495-.03.929-.092 1.362a5.046 5.046 0 0 1-.277 1.085c-.122.31-.276.557-.46.712-.184.186-.399.248-.644.248a.986.986 0 0 1-.645-.248 2.033 2.033 0 0 1-.46-.712 5.065 5.065 0 0 1-.276-1.085 9.204 9.204 0 0 1-.092-1.362c0-.496.03-.93.092-1.364M45.453 24.192c.06.155.122.31.184.403a.95.95 0 0 0 .276.217.55.55 0 0 0 .307.061c.092 0 .153 0 .246-.03a.547.547 0 0 0 .245-.155.9.9 0 0 0 .184-.31c.061-.124.061-.31.061-.496 0-.278-.061-.495-.153-.65-.092-.155-.215-.248-.368-.341-.154-.093-.307-.155-.491-.248-.185-.062-.338-.186-.491-.31-.154-.123-.276-.31-.368-.557-.093-.248-.154-.558-.154-.991 0-.341.03-.62.092-.868.062-.247.154-.433.276-.588.123-.155.246-.248.368-.34a.94.94 0 0 1 .4-.094c.184 0 .337.031.49.093.154.062.277.186.4.34.122.156.215.373.276.651.061.28.092.589.122.992h-.521c0-.217-.031-.403-.092-.527-.03-.155-.093-.248-.154-.34a.577.577 0 0 0-.215-.187c-.092-.03-.153-.062-.245-.062-.062 0-.154 0-.215.032a.487.487 0 0 0-.215.123.671.671 0 0 0-.153.248 1.38 1.38 0 0 0-.061.403c0 .186.03.34.091.465.062.123.154.216.246.31.092.092.215.154.307.216l.368.186c.123.062.246.124.369.217a1.1 1.1 0 0 1 .307.34c.091.155.183.31.214.527.061.217.092.465.092.774 0 .403-.03.744-.123.992a3.167 3.167 0 0 1-.307.65 1.1 1.1 0 0 1-.429.34 1.222 1.222 0 0 1-.46.094.895.895 0 0 1-.492-.124c-.153-.062-.307-.217-.399-.372a1.973 1.973 0 0 1-.276-.681 4.668 4.668 0 0 1-.122-1.023h.521c0 .248.03.434.062.62M48.491 23.418c.061.31.123.557.215.774.092.217.184.372.307.465a.484.484 0 0 0 .368.155c.123 0 .246-.062.368-.155.123-.124.215-.279.307-.465.092-.217.154-.465.215-.774.061-.31.061-.65.061-1.053 0-.403-.03-.744-.06-1.054a3.944 3.944 0 0 0-.216-.774 1.51 1.51 0 0 0-.307-.495.483.483 0 0 0-.368-.155c-.123 0-.245.061-.368.155a1.51 1.51 0 0 0-.307.495 3.944 3.944 0 0 0-.215.774c-.061.31-.061.65-.061 1.054 0 .402.03.743.061 1.053M47.969 21c.062-.433.154-.774.277-1.084.122-.31.276-.557.46-.743a.88.88 0 0 1 .644-.279.88.88 0 0 1 .645.279c.184.186.337.434.46.743.123.31.215.682.276 1.084.062.434.093.868.093 1.364 0 .495-.031.929-.093 1.362a5.065 5.065 0 0 1-.276 1.085c-.123.31-.276.557-.46.712-.184.186-.4.248-.645.248a.986.986 0 0 1-.644-.248 2.033 2.033 0 0 1-.46-.712 5.065 5.065 0 0 1-.277-1.085 9.204 9.204 0 0 1-.092-1.362c0-.496.03-.93.092-1.364M51.959 19.081v.96c.246-.743.552-1.115.982-1.115.184 0 .368.093.522.248.153.155.276.465.337.868a2.35 2.35 0 0 1 .4-.837c.184-.186.368-.279.552-.279.154 0 .307.031.43.093a.67.67 0 0 1 .306.34c.093.156.154.342.215.59.062.247.062.526.062.867v4.832h-.522v-4.306c0-.216 0-.402-.03-.588-.031-.186-.031-.341-.093-.465-.03-.124-.092-.247-.184-.31-.092-.062-.184-.124-.307-.124-.245 0-.46.155-.583.465-.153.31-.215.712-.215 1.208v4.09h-.46V21.31c0-.217 0-.402-.03-.588a6.155 6.155 0 0 0-.093-.465c-.03-.124-.092-.248-.184-.31a.39.39 0 0 0-.276-.124.437.437 0 0 0-.369.186 1.647 1.647 0 0 0-.245.465c-.062.186-.123.372-.154.557-.03.186-.03.341-.03.465v4.089h-.522v-6.567h.491v.062zM58.619 21.002a1.655 1.655 0 0 0-.184-.589c-.092-.155-.184-.31-.276-.403a.49.49 0 0 0-.338-.155c-.123 0-.246.062-.368.155a1.501 1.501 0 0 0-.277.403 6.82 6.82 0 0 0-.184.589c-.03.216-.061.464-.092.712h1.78c0-.248-.03-.496-.061-.712m.123 4.212c-.246.372-.522.558-.86.558a.985.985 0 0 1-.644-.248c-.184-.155-.338-.403-.46-.712a5.065 5.065 0 0 1-.277-1.085 9.96 9.96 0 0 1-.092-1.393c0-.496.03-.96.092-1.363a5.02 5.02 0 0 1 .307-1.085c.123-.31.276-.557.46-.712.185-.155.369-.248.584-.248.276 0 .49.124.675.372.184.248.337.557.43.93.122.37.184.774.214 1.207.031.434.062.868.062 1.27H56.93c0 .279 0 .558.061.837.031.247.092.495.184.681.093.186.185.372.307.465a.603.603 0 0 0 .43.186.569.569 0 0 0 .522-.31c.123-.217.215-.527.276-.96h.491c-.092.681-.215 1.239-.46 1.61M61.442 25.648h.522V19.08h-.522v6.567zm0-7.775h.522v-1.332h-.522v1.332zM63.223 19.081v1.053c.214-.805.552-1.208 1.012-1.208.215 0 .369.062.522.186.123.124.246.279.338.496.092.216.153.464.184.743.03.279.061.62.061.96v4.337h-.522v-4.46c0-.403-.061-.744-.153-.96-.123-.249-.276-.373-.46-.373a.643.643 0 0 0-.4.155c-.122.093-.214.248-.276.434a8.992 8.992 0 0 0-.184.65c-.03.248-.061.527-.061.837v3.717h-.522V19.08h.46zM66.077 17.873h.521v-1.332h-.521v1.332zm.307 9.881c-.123.279-.307.403-.553.403a.574.574 0 0 1-.245-.062v-.93c.03 0 .03 0 .061.032h.123c.123 0 .184-.062.215-.186.03-.124.061-.372.061-.713v-7.217h.522v7.403c.03.589-.03.991-.184 1.27zM69.422 21.002a1.655 1.655 0 0 0-.184-.589c-.092-.155-.184-.31-.276-.403a.49.49 0 0 0-.338-.155c-.123 0-.245.062-.368.155a1.494 1.494 0 0 0-.276.403 6.714 6.714 0 0 0-.185.589c-.03.216-.06.464-.092.712h1.78c.031-.248 0-.496-.06-.712m.122 4.212c-.246.372-.522.558-.86.558a.985.985 0 0 1-.644-.248c-.184-.155-.338-.403-.46-.712a5.065 5.065 0 0 1-.277-1.085 9.913 9.913 0 0 1-.092-1.393c0-.496.03-.96.092-1.363a5.02 5.02 0 0 1 .307-1.085c.123-.31.277-.557.46-.712.185-.155.369-.248.584-.248.276 0 .49.124.675.372.184.248.338.557.43.93.122.37.184.774.214 1.207.03.434.062.868.062 1.27h-2.302c0 .279 0 .558.061.837.031.247.093.495.185.681.092.186.183.372.307.465a.603.603 0 0 0 .43.186.568.568 0 0 0 .52-.31c.124-.217.216-.527.277-.96h.49c-.06.681-.214 1.239-.46 1.61M72.43 20.227c-.123-.217-.307-.34-.522-.34a.55.55 0 0 0-.46.216c-.123.155-.215.341-.307.558a5.82 5.82 0 0 0-.154.836c-.03.31-.061.62-.061.96 0 .31.03.589.061.899.03.278.092.557.154.774.061.217.153.403.276.527.123.124.245.217.399.217.245 0 .46-.155.583-.434.153-.279.215-.682.246-1.177h.521c-.061.805-.184 1.456-.43 1.89-.214.433-.552.65-.92.65-.246 0-.43-.093-.614-.248s-.338-.403-.46-.681a4.767 4.767 0 0 1-.277-1.054 9.205 9.205 0 0 1-.092-1.363c0-.495.031-.96.092-1.393.062-.434.154-.806.277-1.116.122-.31.276-.557.46-.743a.88.88 0 0 1 .645-.279c.184 0 .337.031.49.124.154.093.277.217.4.403.122.186.214.433.276.712.061.279.123.62.153 1.022h-.521c0-.433-.093-.743-.215-.96M75.1 19.081v.96h-.614v4.399c0 .062.03.124.061.186.031.03.061.062.123.093.062 0 .123.03.184.03h.246v.96h-.4c-.122 0-.245-.03-.337-.061-.092-.03-.184-.093-.215-.217-.03-.124-.092-.248-.122-.433-.031-.186-.031-.434-.031-.744v-4.182h-.522v-.96h.522V17.13h.522v1.982h.583v-.031zM77.31 22.457a1.087 1.087 0 0 1-.338.124c-.123.031-.215.062-.338.093a.634.634 0 0 0-.307.186 1.073 1.073 0 0 0-.214.372c-.062.155-.092.372-.092.65 0 .186.03.341.061.465.03.124.092.217.122.31.062.062.123.124.185.155a.564.564 0 0 0 .214.062.73.73 0 0 0 .43-.155c.123-.093.215-.217.307-.372.062-.155.123-.31.154-.496.03-.186.061-.34.061-.496v-1.114a.413.413 0 0 1-.245.216m.705 3.346c-.123 0-.245-.093-.306-.248-.093-.155-.124-.403-.124-.774-.153.371-.306.62-.49.774a.97.97 0 0 1-.614.248.842.842 0 0 1-.399-.093.798.798 0 0 1-.338-.31 2.357 2.357 0 0 1-.215-.557 3.503 3.503 0 0 1-.092-.837c0-.371.031-.681.092-.929.062-.248.123-.434.246-.589.092-.154.215-.247.338-.34.122-.062.245-.155.398-.186.154-.062.277-.093.4-.124.122-.031.245-.062.337-.124.092-.062.184-.124.215-.248.061-.093.092-.248.092-.464 0-.248-.03-.434-.061-.558-.031-.155-.092-.248-.154-.341a.953.953 0 0 0-.215-.155c-.092-.03-.153-.03-.245-.03a.654.654 0 0 0-.522.247c-.154.186-.215.496-.245.991h-.522c0-.402.061-.743.123-1.022.061-.278.153-.496.276-.681.123-.186.245-.31.399-.372.153-.062.307-.124.49-.124.154 0 .277.031.4.062a.715.715 0 0 1 .368.248c.123.124.215.31.276.558.061.247.092.557.092.929v3.376c0 .248 0 .434.03.558 0 .124.063.186.154.186.031 0 .092-.031.154-.062v.836c-.062.093-.184.155-.338.155M81.207 21.404a2.864 2.864 0 0 0-.184-.774 2.362 2.362 0 0 0-.307-.558c-.123-.124-.276-.217-.43-.217-.184 0-.307.062-.429.217-.123.155-.215.34-.307.558a5.29 5.29 0 0 0-.153.805c-.031.31-.062.589-.062.898 0 .31.03.62.062.93.03.31.091.557.183.805a2.4 2.4 0 0 0 .307.558.551.551 0 0 0 .46.217c.185 0 .308-.062.43-.217.123-.155.216-.341.277-.558.061-.248.122-.496.153-.805.031-.31.061-.62.061-.93 0-.34-.03-.65-.061-.929zm-1.81-4.832v3.407c.091-.371.214-.62.398-.805.184-.155.369-.248.584-.248a.77.77 0 0 1 .614.279c.183.186.337.434.429.743.123.31.215.682.276 1.115.062.403.092.868.092 1.332 0 .465-.03.899-.092 1.332a5.064 5.064 0 0 1-.276 1.085c-.123.31-.276.557-.43.743-.184.186-.368.279-.613.279-.062 0-.154-.031-.246-.062s-.184-.093-.276-.155a.844.844 0 0 1-.246-.31c-.092-.124-.153-.31-.214-.495v.867h-.522v-9.076l.522-.031zM82.404 25.648h.522v-9.076h-.522zM85.78 21.002a1.655 1.655 0 0 0-.184-.589c-.092-.155-.184-.31-.276-.403a.49.49 0 0 0-.338-.155c-.123 0-.245.062-.368.155a1.501 1.501 0 0 0-.276.403c-.062.155-.123.372-.185.589-.03.216-.06.464-.092.712h1.78c0-.248-.03-.496-.06-.712m.122 4.212c-.246.372-.522.558-.86.558a.985.985 0 0 1-.644-.248c-.184-.155-.338-.403-.46-.712a5.065 5.065 0 0 1-.277-1.085 9.96 9.96 0 0 1-.092-1.393c0-.496.031-.96.092-1.363a5.02 5.02 0 0 1 .307-1.085c.123-.31.277-.557.46-.712.185-.155.369-.248.584-.248.276 0 .49.124.675.372.184.248.338.557.43.93.122.37.184.774.214 1.207.031.434.062.868.062 1.27h-2.302c0 .279 0 .558.061.837.031.247.093.495.185.681.092.186.184.372.307.465a.603.603 0 0 0 .43.186.569.569 0 0 0 .52-.31c.124-.217.216-.527.277-.96h.491c-.092.681-.245 1.239-.46 1.61M88.972 24.192c.061.155.122.31.184.403a.948.948 0 0 0 .276.217.893.893 0 0 0 .307.061c.092 0 .154 0 .246-.03a.547.547 0 0 0 .245-.155.894.894 0 0 0 .184-.31c.062-.124.062-.31.062-.496 0-.278-.062-.495-.154-.65-.092-.155-.215-.248-.368-.341-.154-.093-.307-.155-.491-.248-.184-.062-.338-.186-.491-.31-.153-.123-.276-.31-.368-.557-.092-.248-.154-.558-.154-.991 0-.341.03-.62.092-.868.062-.247.154-.433.277-.588.122-.155.245-.248.368-.34a.94.94 0 0 1 .399-.094c.184 0 .337.031.49.093.154.062.277.186.4.34.123.156.215.373.276.651.061.28.122.589.122.992h-.521c0-.217-.03-.403-.092-.527-.03-.155-.092-.248-.154-.34a.577.577 0 0 0-.215-.187c-.092-.03-.153-.062-.245-.062-.062 0-.154 0-.215.032a.487.487 0 0 0-.214.123.671.671 0 0 0-.154.248 1.38 1.38 0 0 0-.061.403c0 .186.03.34.091.465.062.123.154.216.246.31.092.092.215.154.307.216l.368.186c.123.062.246.124.369.217a1.1 1.1 0 0 1 .307.34c.091.155.183.31.214.527.062.217.093.465.093.774 0 .403-.031.744-.124.992a3.167 3.167 0 0 1-.306.65 1.1 1.1 0 0 1-.43.34 1.222 1.222 0 0 1-.46.094.895.895 0 0 1-.491-.124c-.154-.062-.307-.217-.4-.372a1.973 1.973 0 0 1-.276-.681 4.668 4.668 0 0 1-.122-1.023h.522c-.031.248 0 .434.061.62M93.637 25.648v-1.053c-.092.402-.246.712-.4.898a.753.753 0 0 1-.582.279c-.215 0-.368-.062-.491-.186a1.549 1.549 0 0 1-.338-.496 2.645 2.645 0 0 1-.184-.743 8.916 8.916 0 0 1-.061-.96V19.05h.521v4.46c0 .403.062.744.154.96.122.249.276.373.46.373a.645.645 0 0 0 .4-.155c.122-.093.214-.248.275-.434a8.98 8.98 0 0 0 .185-.65 6.72 6.72 0 0 0 .06-.837V19.05h.522v6.567h-.521v.03zM95.264 24.192c.06.155.122.31.184.403a.948.948 0 0 0 .276.217.549.549 0 0 0 .307.061c.092 0 .153 0 .245-.03a.547.547 0 0 0 .246-.155.894.894 0 0 0 .184-.31c.061-.124.061-.31.061-.496 0-.278-.061-.495-.153-.65-.092-.155-.215-.248-.369-.341-.153-.093-.307-.155-.49-.248-.185-.062-.338-.186-.491-.31-.154-.123-.277-.31-.369-.557-.092-.248-.153-.558-.153-.991 0-.341.03-.62.092-.868.061-.247.153-.433.276-.588.123-.155.246-.248.368-.34a.94.94 0 0 1 .4-.094c.184 0 .337.031.49.093.154.062.277.186.4.34.122.156.214.373.276.651.061.28.122.589.122.992h-.522c0-.217-.03-.403-.092-.527-.03-.155-.092-.248-.153-.34a.577.577 0 0 0-.215-.187c-.092-.03-.153-.062-.246-.062-.06 0-.153 0-.214.032a.487.487 0 0 0-.215.123.671.671 0 0 0-.153.248 1.38 1.38 0 0 0-.062.403c0 .186.03.34.092.465.062.123.153.216.246.31.092.092.214.154.306.216l.369.186c.123.062.245.124.368.217a1.1 1.1 0 0 1 .307.34c.092.155.184.31.215.527.061.217.092.465.092.774 0 .403-.03.744-.123.992a3.167 3.167 0 0 1-.307.65 1.1 1.1 0 0 1-.43.34 1.222 1.222 0 0 1-.46.094.895.895 0 0 1-.49-.124c-.154-.062-.308-.217-.4-.372a1.973 1.973 0 0 1-.276-.681 4.668 4.668 0 0 1-.123-1.023h.522c-.03.248 0 .434.062.62M100.205 21.404a2.864 2.864 0 0 0-.185-.774 2.384 2.384 0 0 0-.306-.558c-.123-.124-.277-.217-.43-.217-.184 0-.307.062-.43.217s-.215.34-.307.558a5.366 5.366 0 0 0-.153.805c-.03.31-.062.589-.062.898 0 .31.031.62.062.93.03.31.092.557.184.805.092.217.184.403.307.558a.55.55 0 0 0 .46.217c.184 0 .307-.062.43-.217a1.58 1.58 0 0 0 .276-.558c.062-.248.123-.496.154-.805.03-.31.061-.62.061-.93-.03-.34-.03-.65-.061-.929zm-1.842-2.323v.898c.092-.371.215-.62.4-.805.183-.155.367-.248.582-.248a.77.77 0 0 1 .614.279c.184.186.338.434.43.743.123.31.215.682.276 1.115.061.403.092.868.092 1.332 0 .465-.03.899-.092 1.332a5.065 5.065 0 0 1-.276 1.085c-.123.31-.276.557-.43.743-.184.186-.368.279-.614.279-.061 0-.153-.031-.245-.062s-.184-.093-.276-.155a.847.847 0 0 1-.246-.31c-.092-.124-.153-.31-.215-.495v3.376h-.49v-9.076l.49-.031zM103.427 21.002a1.655 1.655 0 0 0-.184-.589c-.092-.155-.184-.31-.276-.403a.49.49 0 0 0-.338-.155c-.123 0-.245.062-.368.155a1.501 1.501 0 0 0-.276.403 6.82 6.82 0 0 0-.184.589c-.031.216-.062.464-.093.712h1.78c.031-.248 0-.496-.06-.712m.122 4.212c-.246.372-.522.558-.86.558a.985.985 0 0 1-.644-.248c-.184-.155-.338-.403-.46-.712a5.065 5.065 0 0 1-.277-1.085 9.96 9.96 0 0 1-.092-1.393c0-.496.031-.96.092-1.363a5.02 5.02 0 0 1 .307-1.085c.123-.31.277-.557.46-.712.185-.155.369-.248.584-.248.276 0 .49.124.675.372.184.248.338.557.43.93.122.37.184.774.215 1.207.03.434.06.868.06 1.27h-2.3c0 .279 0 .558.06.837.031.247.093.495.185.681.092.186.184.372.307.465a.603.603 0 0 0 .43.186.569.569 0 0 0 .521-.31c.123-.217.215-.527.276-.96h.491c-.061.681-.215 1.239-.46 1.61M105.054 19.081v1.053c.214-.805.552-1.208 1.012-1.208.215 0 .369.062.522.186.123.124.246.279.338.496.092.216.154.464.184.743.03.279.061.62.061.96v4.337h-.521v-4.46c0-.403-.062-.744-.154-.96-.123-.249-.276-.373-.46-.373a.643.643 0 0 0-.4.155c-.122.093-.214.248-.275.434a9.152 9.152 0 0 0-.185.65c-.03.248-.061.527-.061.837v3.717h-.522V19.08h.46zM108.276 24.192c.062.155.123.31.185.403a.95.95 0 0 0 .276.217.895.895 0 0 0 .306.061c.092 0 .154 0 .246-.03a.548.548 0 0 0 .246-.155.904.904 0 0 0 .184-.31c.061-.124.061-.31.061-.496 0-.278-.061-.495-.153-.65-.092-.155-.215-.248-.369-.341-.153-.093-.307-.155-.49-.248-.185-.062-.338-.186-.492-.31-.153-.123-.276-.31-.368-.557-.092-.248-.154-.558-.154-.991 0-.341.031-.62.093-.868.06-.247.153-.433.276-.588.122-.155.245-.248.368-.34a.94.94 0 0 1 .399-.094c.184 0 .338.031.491.093.154.062.276.186.399.34.123.156.215.373.276.651.062.28.093.589.123.992h-.522c0-.217-.03-.403-.092-.527-.03-.155-.092-.248-.153-.34a.577.577 0 0 0-.215-.187c-.092-.03-.154-.062-.246-.062-.061 0-.153 0-.214.032a.49.49 0 0 0-.215.123.675.675 0 0 0-.154.248 1.39 1.39 0 0 0-.061.403c0 .186.03.34.092.465.061.123.153.216.245.31.093.092.215.154.307.216l.369.186c.122.062.245.124.368.217s.215.186.307.34c.092.155.184.31.215.527.061.217.092.465.092.774 0 .403-.031.744-.123.992a3.183 3.183 0 0 1-.307.65c-.123.155-.276.28-.43.34a1.222 1.222 0 0 1-.46.094.894.894 0 0 1-.491-.124c-.153-.062-.307-.217-.399-.372a1.973 1.973 0 0 1-.276-.681 4.65 4.65 0 0 1-.123-1.023h.522c0 .248.03.434.061.62M110.885 25.648h.522V19.08h-.522v6.567zm.03-7.775h.522v-1.332h-.521v1.332zM112.634 23.418c.062.31.123.557.215.774.092.217.184.372.307.465a.484.484 0 0 0 .368.155c.123 0 .246-.062.369-.155.122-.124.214-.279.306-.465.093-.217.154-.465.215-.774.062-.31.062-.65.062-1.053 0-.403-.031-.744-.062-1.054a3.944 3.944 0 0 0-.215-.774 1.51 1.51 0 0 0-.306-.495.483.483 0 0 0-.369-.155c-.122 0-.245.061-.368.155a1.51 1.51 0 0 0-.307.495 3.944 3.944 0 0 0-.215.774c-.061.31-.061.65-.061 1.054 0 .402.03.743.061 1.053M112.113 21c.06-.433.153-.774.276-1.084.123-.31.276-.557.46-.743a.88.88 0 0 1 .645-.279.88.88 0 0 1 .644.279c.184.186.338.434.46.743.123.31.215.682.277 1.084.061.434.092.868.092 1.364 0 .495-.03.929-.092 1.362a5.065 5.065 0 0 1-.277 1.085c-.122.31-.276.557-.46.712-.184.186-.399.248-.644.248a.986.986 0 0 1-.645-.248 2.033 2.033 0 0 1-.46-.712 5.065 5.065 0 0 1-.276-1.085 9.204 9.204 0 0 1-.093-1.362c0-.496.031-.93.093-1.364M116.102 19.081v1.053c.215-.805.553-1.208 1.013-1.208.215 0 .368.062.522.186.123.124.245.279.338.496.091.216.153.464.184.743.03.279.06.62.06.96v4.337h-.52v-4.46c0-.403-.062-.744-.154-.96-.123-.249-.277-.373-.46-.373a.643.643 0 0 0-.4.155c-.122.093-.214.248-.276.434a9.152 9.152 0 0 0-.184.65c-.03.248-.061.527-.061.837v3.717h-.522V19.08h.46zM119.11 25.276c.123-.96.184-1.951.184-2.974 0-1.084-.061-2.075-.184-3.035a16.98 16.98 0 0 0-.614-2.912h.368c.154.465.277.96.4 1.425.122.465.214.96.306 1.425.093.496.154.991.185 1.487.03.495.061 1.053.061 1.61 0 .992-.092 2.014-.246 3.036a15.116 15.116 0 0 1-.706 2.819h-.368c.276-.96.491-1.92.614-2.88" mask="url(#b)"/>
        </g>
    </g>
</svg>
