<svg xmlns="http://www.w3.org/2000/svg" xmlns:xlink="http://www.w3.org/1999/xlink" width="119" height="119" viewBox="0 0 119 119">
    <defs>
        <path id="a" d="M0 59.829V119h117.688V.657H0z"/>
    </defs>
    <g fill="none" fill-rule="evenodd">
        <path fill="#FFF" d="M30.362 88.943h59.155c-.337-4.513-2.956-11.213-6.6-16.749-6.402-9.728-12.407-11.18-15.416-11.18-.05 0-.1-.004-.148-.01-2.13-.342-2.328-4.174-2.337-5.34a.953.953 0 0 1 .279-.683c.04-.04 4.228-4.279 5.13-9.822a.945.945 0 0 1 .93-.795c.547 0 1.184-.735 1.584-1.83.61-1.67.61-3.998-.59-5.024a.948.948 0 0 1-.331-.767c.006-.128.017-.296.03-.499.154-2.318.624-9.369-3.273-13.56-2.026-2.179-4.999-3.283-8.833-3.283-3.882 0-6.879 1.11-8.908 3.3-3.857 4.161-3.366 11.184-3.205 13.492.017.226.03.411.037.55a.958.958 0 0 1-.332.767c-1.2 1.026-1.2 3.353-.59 5.023.4 1.096 1.036 1.831 1.584 1.831.462 0 .856.337.93.795.902 5.543 5.088 9.781 5.13 9.823.18.18.282.426.28.681-.01 1.167-.207 5-2.338 5.34a1.041 1.041 0 0 1-.147.011c-12.787 0-21.415 19.092-22.02 27.93m60.135 1.895H29.386a.946.946 0 0 1-.944-.948c0-9.107 9.236-30.644 23.81-30.772.319-.23.657-1.679.72-3.094-.997-1.08-4.22-4.886-5.252-9.896-1.063-.353-1.982-1.398-2.546-2.942-1.072-2.932-.386-5.456.782-6.77a3.033 3.033 0 0 0-.007-.09c-.176-2.512-.711-10.155 3.705-14.92 2.4-2.59 5.862-3.902 10.288-3.902 4.377 0 7.813 1.306 10.21 3.883 4.456 4.792 3.946 12.462 3.778 14.983l-.003.045c1.168 1.313 1.854 3.84.783 6.771-.565 1.544-1.483 2.59-2.547 2.942-1.032 5.01-4.255 8.815-5.25 9.896.062 1.403.396 2.84.731 3.094 7.823.091 13.907 7.563 16.845 12.028 4.094 6.22 6.952 13.927 6.952 18.744a.945.945 0 0 1-.943.948"/>
        <g transform="translate(.533 -.657)">
            <mask id="b" fill="#fff">
                <use xlink:href="#a"/>
            </mask>
            <path fill="#FFF" d="M58.845 3.396C27.9 3.396 2.724 28.711 2.724 59.83c0 31.116 25.176 56.431 56.12 56.431 30.945 0 56.12-25.315 56.12-56.43 0-31.119-25.175-56.434-56.12-56.434m0 115.604c-15.718 0-30.495-6.155-41.609-17.332C6.121 90.493 0 75.633 0 59.83c0-15.806 6.121-30.665 17.235-41.84C28.35 6.811 43.126.656 58.845.656c15.717 0 30.494 6.155 41.608 17.331 11.116 11.176 17.235 26.035 17.235 41.841 0 15.804-6.12 30.664-17.235 41.84C89.34 112.844 74.563 119 58.845 119" mask="url(#b)"/>
        </g>
        <path fill="#FFF" d="M59.942 83.065c2.795-1.232 8.154-5.863 8.154-10.165 0-3.633-4.077-5.68-8.154-2.519-4.078-3.162-8.155-1.114-8.155 2.52 0 4.301 5.358 8.932 8.155 10.164"/>
    </g>
</svg>
