<svg xmlns="http://www.w3.org/2000/svg" xmlns:xlink="http://www.w3.org/1999/xlink" width="30" height="39" viewBox="0 0 30 39">
    <defs>
        <path id="a" d="M0 .018V38.71h29.953V.018H0z"/>
    </defs>
    <g fill="none" fill-rule="evenodd">
        <g>
            <mask id="b" fill="#fff">
                <use xlink:href="#a"/>
            </mask>
            <path fill="#423D3D" d="M25.199 28.631l-.92-.921 3.368-3.374.92.921-3.368 3.374zm-10.447 5.863v-4.61a.56.56 0 0 0 0-.116v-1.445c0-1.035.841-1.878 1.875-1.878s1.875.843 1.875 1.878v6.17h-3.75zm7.424 2.414v.652H11.079v-.652c0-.697.566-1.264 1.262-1.264h8.572c.696 0 1.263.567 1.263 1.264zM8.492 25.1a11.593 11.593 0 0 1-2.311-6.976c0-.766.077-1.53.227-2.283a3.613 3.613 0 0 0 2.419.789c-.08.49-.12.99-.12 1.494 0 1.978.621 3.862 1.797 5.45A9.126 9.126 0 0 0 14.2 26.52a3.015 3.015 0 0 0-.596 1.802v.688a11.824 11.824 0 0 1-5.112-3.91zM5.463 8.744c0-.174.068-.338.191-.46L8.252 5.68a.646.646 0 0 1 .92 0l8.577 8.559-3.523 3.529-2.633-2.617a3.642 3.642 0 0 0-2.925-5.8c-.807 0-1.553.265-2.156.712l-.858-.86a.648.648 0 0 1-.19-.46zm-4.13-4.829a.628.628 0 0 1 0-.894l1.665-1.668a.626.626 0 0 1 .893 0 .633.633 0 0 1 0 .894L2.225 3.915a.631.631 0 0 1-.892 0zm4.295 2.767l-2.27-2.275 1.024-1.026 2.272 2.275-1.026 1.026zm14.717 12.09c0 .016-.008.024-.011.027l-1.583 1.586a.038.038 0 0 1-.055 0l-.892-.895 1.637-1.64.893.895c.003.002.01.01.01.027zm-2.047-3.456l.491 1.561-1.953 1.957-1.543-.508 3.005-3.01zm-9.63.168a2.492 2.492 0 0 1 0-4.983 2.492 2.492 0 0 1 0 4.983zm17.755 2.72l.92.92-7.955 7.968a3.041 3.041 0 0 0-.784-1.057l7.819-7.831zm3.362 6.647l-1.732-1.735a.573.573 0 0 0-.811 0l-4.18 4.187a.576.576 0 0 0 0 .813l.639.64-1.073 1.075c-.238.239-.555.37-.893.37H19.65v-1.745l8.91-8.925a.576.576 0 0 0 0-.813l-1.731-1.734a.573.573 0 0 0-.812 0l-8.449 8.462a3.007 3.007 0 0 0-2.397.225 8.097 8.097 0 0 1-3.745-2.783 7.945 7.945 0 0 1-1.572-4.764c0-.599.065-1.19.192-1.763.26-.107.503-.243.728-.403l3.05 3.03.01.01a.542.542 0 0 0 .146.1l.021.01a.64.64 0 0 0 .034.013l.013.005 2.635.868 1.202 1.203a1.182 1.182 0 0 0 1.678 0l1.582-1.585a1.19 1.19 0 0 0 0-1.68l-1.199-1.202-.837-2.664-.008-.022-.01-.03-.015-.029-.01-.02c-.006-.012-.013-.022-.02-.033l-.01-.016-.023-.032-.01-.013a.534.534 0 0 0-.027-.03l-.01-.01-.004-.004-.002-.002-8.977-8.957a1.786 1.786 0 0 0-1.271-.527c-.469 0-.91.178-1.246.502L5.094 2.468A1.787 1.787 0 0 0 4.703.54 1.767 1.767 0 0 0 3.445.018c-.476 0-.922.186-1.258.522L.52 2.21A1.77 1.77 0 0 0 0 3.469c0 .475.185.923.521 1.26a1.772 1.772 0 0 0 1.924.391l2.372 2.376a1.79 1.79 0 0 0-.502 1.248c0 .48.188.933.527 1.274l.865.866a3.623 3.623 0 0 0-.674 2.109c0 .637.164 1.236.453 1.757a12.845 12.845 0 0 0-.453 3.374c0 2.784.878 5.434 2.54 7.664a12.968 12.968 0 0 0 6.031 4.45v4.256h-1.263a2.415 2.415 0 0 0-2.41 2.414v1.227c0 .317.257.575.574.575H22.75a.574.574 0 0 0 .574-.575v-1.227a2.415 2.415 0 0 0-2.411-2.414H19.65V31.35h2.085c.644 0 1.25-.251 1.705-.707l1.072-1.074.28.28a.572.572 0 0 0 .812 0l4.18-4.186a.576.576 0 0 0 0-.813z" mask="url(#b)"/>
        </g>
        <path fill="#423D3D" d="M8.738 12.67a.06.06 0 1 1 0-.12.06.06 0 0 1 0 .12m-.028-1.057a.969.969 0 0 0 0 1.935.969.969 0 0 0 0-1.935M16.935 28.065a.486.486 0 0 0-.483.483.486.486 0 0 0 .483.484.486.486 0 0 0 .484-.484.486.486 0 0 0-.484-.483"/>
    </g>
</svg>
