<svg xmlns="http://www.w3.org/2000/svg" width="16" height="13" viewBox="0 0 16 13">
    <path fill="#6E318D" fill-rule="nonzero" d="M12.04 7.854v2.708c0 .672-.234 1.246-.703 1.723A2.29 2.29 0 0 1 9.643 13H2.717a2.29 2.29 0 0 1-1.694-.715 2.368 2.368 0 0 1-.703-1.723V3.521c0-.672.234-1.246.703-1.722a2.29 2.29 0 0 1 1.694-.716h5.86a.257.257 0 0 1 .267.271v.542a.257.257 0 0 1-.266.27h-5.86c-.367 0-.68.133-.942.398-.26.266-.39.584-.39.957v7.042c0 .372.13.69.39.956.261.265.575.398.941.398h6.926c.366 0 .68-.133.94-.398.261-.265.392-.584.392-.957V7.854a.257.257 0 0 1 .266-.27h.533a.257.257 0 0 1 .266.27zM15.237.542v4.333a.525.525 0 0 1-.158.38.508.508 0 0 1-.375.162.508.508 0 0 1-.375-.161l-1.465-1.49-5.427 5.519a.261.261 0 0 1-.191.084.261.261 0 0 1-.192-.084l-.949-.965a.27.27 0 0 1 0-.39l5.427-5.518-1.465-1.49a.525.525 0 0 1-.158-.38c0-.147.053-.274.158-.381A.508.508 0 0 1 10.442 0h4.262c.144 0 .27.054.375.16a.525.525 0 0 1 .158.382z"/>
</svg>
