<svg xmlns="http://www.w3.org/2000/svg" xmlns:xlink="http://www.w3.org/1999/xlink" width="87" height="79" viewBox="0 0 87 79">
    <defs>
        <path id="a" d="M0 .159v17.174h19.46V.16z"/>
    </defs>
    <g fill="none" fill-rule="evenodd">
        <path fill="#333" d="M59.463 14.4L22.4 46.661a4.538 4.538 0 0 0-.452 6.376l6.018 6.968a4.732 4.732 0 0 0 6.686.478l36.885-32.106m-1.47-1.702L33.181 58.782a2.495 2.495 0 0 1-3.52-.251l-6.02-6.969a2.28 2.28 0 0 1 .228-3.198L60.933 16.1"/>
        <path fill="#333" d="M27.131 57.534l-9.196 8.006a1.43 1.43 0 0 1-2.016-.145l-.837-.969a1.443 1.443 0 0 1 .143-2.024l9.197-8.005"/>
        <g transform="translate(1 60.316)">
            <mask id="b" fill="#fff">
                <use xlink:href="#a"/>
            </mask>
            <path fill="#333" d="M19.157 1.712l-17.7 15.406a.882.882 0 0 1-1.243-.089.89.89 0 0 1 .09-1.248L18.002.374a.881.881 0 0 1 1.243.09.89.89 0 0 1-.089 1.248" mask="url(#b)"/>
        </g>
        <path fill="#333" d="M39.752 54.974l-5.604-6.49a.925.925 0 0 1 .092-1.297.916.916 0 0 1 1.292.093l5.605 6.489M50.495 45.623l-5.605-6.49a.925.925 0 0 1 .092-1.297.916.916 0 0 1 1.294.092l5.604 6.489M61.304 36.214l-5.604-6.49a.925.925 0 0 1 .092-1.297.916.916 0 0 1 1.293.092l5.604 6.49M72.254 30.191l-15.002-17.37a1.155 1.155 0 0 1 .115-1.62 1.145 1.145 0 0 1 1.614.115l15.002 17.37c.412.477.36 1.207-.115 1.62a1.145 1.145 0 0 1-1.614-.115M83.616 16.894L72.393 3.9a1.156 1.156 0 0 1 .115-1.62 1.146 1.146 0 0 1 1.615.115l11.222 12.994c.412.477.36 1.207-.115 1.62v.001a1.145 1.145 0 0 1-1.614-.116"/>
        <path fill="#333" d="M81.882 13.134L68.46 24.817l-5.92-6.857L75.96 6.277z"/>
    </g>
</svg>
