<svg xmlns="http://www.w3.org/2000/svg" xmlns:xlink="http://www.w3.org/1999/xlink" width="119" height="119" viewBox="0 0 119 119">
    <defs>
        <path id="a" d="M118.343.657V119H0V.657h118.343z"/>
    </defs>
    <g fill="none" fill-rule="evenodd">
        <g transform="translate(0 -.657)">
            <mask id="b" fill="#fff">
                <use xlink:href="#a"/>
            </mask>
            <path fill="#FFF" d="M59.171 3.396C28.055 3.396 2.74 28.711 2.74 59.828s25.316 56.432 56.432 56.432c31.117 0 56.433-25.315 56.433-56.432S90.288 3.396 59.171 3.396m0 115.604c-15.805 0-30.664-6.155-41.84-17.332C6.154 90.493.001 75.633.001 59.828c0-15.805 6.153-30.664 17.33-41.84C28.507 6.811 43.366.658 59.171.658c15.806 0 30.665 6.153 41.841 17.33 11.176 11.176 17.331 26.035 17.331 41.84 0 15.805-6.155 30.665-17.33 41.84C89.835 112.845 74.976 119 59.17 119" mask="url(#b)"/>
        </g>
        <path fill="#FFF" d="M28.551 73.825a.897.897 0 0 1 .911-.752l-.279-.23-4.463 5.628c-.488.615-1.303.874-1.977.63-.266-.095-.86-.327-.795-1.535-.576.683-1.086 1.286-1.486 1.758.416.865 1.145 1.277 1.672 1.467.48.175.984.232 1.478.185a3.664 3.664 0 0 0 2.515-1.389l2.695-3.397c-.35-.822-.369-1.75-.271-2.365M30.315 73.776a.917.917 0 0 1 .012.328 2.547 2.547 0 0 0-.023.218l.265-.335-.254-.21zM34.584 68.924a.897.897 0 1 0-1.407-1.116L30.3 71.436l1.386 1.143 2.9-3.655z"/>
        <path fill="#FFF" d="M20.179 77.108a.898.898 0 0 1 1.783.212c-.011.092-.009.165-.013.247 1.045-1.238 2.294-2.721 3.432-4.077.784-.935 1.391-1.66 1.871-2.24l-1.386-1.145a1192.435 1192.435 0 0 1-6.843 8.14 1.43 1.43 0 0 1-1.029.504 1.19 1.19 0 0 1-.903-.343 2.121 2.121 0 0 1-.129-.142c-.626-.765-.561-1.942.152-2.736l.207-.23a.927.927 0 0 0 .117-.11l6.199-6.922-1.389-1.147-5.917 6.591c-.512-.006-.905-.156-1.193-.453-.51-.52-.491-1.438.041-2.044l5.058-5.754-1.387-1.145-3.025 3.443c-1.209.145-1.398-.367-1.491-.645-.211-.636-.038-1.387.452-1.957l2.107-2.456-1.386-1.143-2.084 2.428c-.897 1.047-1.202 2.461-.793 3.693.231.695.715 1.44 1.729 1.748l-.53.603c-1.156 1.316-1.146 3.285.023 4.484.284.291.697.603 1.273.799-.629 1.337-.489 2.944.449 4.093.078.094.159.184.245.27a2.96 2.96 0 0 0 2.423.857 3.236 3.236 0 0 0 2.153-1.127c.02-.025.047-.054.067-.08-.26-.54-.397-1.26-.283-2.216M23.502 54.995c1.81-2.19 4.324-2.459 5.436-2.46l-1.875-1.6c-1.523.306-3.42 1.07-4.935 2.904l-5.45 6.352 1.385 1.145 5.44-6.34zM31.242 76.12c-.943-.198-.973-1.308-.938-1.799l-1.483 1.87c.33.775.951 1.456 2.056 1.686 1.131.236 2.321-.182 3.122-1.06l-1.395-1.15c-.373.368-.88.552-1.362.452M41.881 66.293c.138-.496.296-1.353.235-2.517l-2.089-1.782c.494 1.925.291 3.218.123 3.82a.725.725 0 0 1-.138.27c-.805.983-4.172 5.39-6.294 8.173l1.387 1.144c2.112-2.77 5.504-7.21 6.298-8.182.223-.274.384-.585.478-.926M22.208 63.215a.9.9 0 0 0-1.35-1.186l-.822.935 1.387 1.145.785-.894zM30.863 51.566l-.122.145 9.962 8.498.017-.023zM28.845 68.61a.903.903 0 0 0-.649-.594.901.901 0 0 0-.997.45c-.039.053-.109.143-.195.25l1.374 1.134c.607-.806.566-.94.467-1.24M25.318 66.389a.9.9 0 0 0-1.337-1.2l-.531.593 1.387 1.144.48-.537z"/>
        <path fill="#FFF" d="M30.326 74.104a.873.873 0 0 0-.012-.327l-.852-.703a.896.896 0 0 0-.91.752c-.099.614-.08 1.543.27 2.365l1.482-1.87a2.29 2.29 0 0 1 .022-.217M21.962 77.32a.898.898 0 1 0-1.783-.213c-.114.957.023 1.676.283 2.217.4-.472.91-1.075 1.486-1.758.005-.082.003-.155.014-.246M64.178 11.203a.898.898 0 1 0-1.386-1.143l-3.054 3.701 1.364 1.17 3.076-3.728zM29.725 50.776a.886.886 0 0 1 .48.215l.658.575L45.84 33.419a3.456 3.456 0 0 1-1.154-1.424L29.375 50.547l.259.22.09.01"/>
        <path fill="#FFF" d="M30.205 50.991a.9.9 0 0 0-.48-.215l-.09-.01 1.106.946.121-.147-.657-.574zM76.035 21.559a.897.897 0 1 0-1.367-1.166l-3.698 4.336c.294.767.457 1.499.54 2.134l4.525-5.304zM41.19 60.596c.062.055.119.115.174.178l.705.6 17.209-20.172a9.13 9.13 0 0 1-2.362 0L40.72 60.188l.469.409z"/>
        <path fill="#FFF" d="M41.19 60.596l-.47-.41-.017.023.66.565a1.95 1.95 0 0 0-.173-.178M85.21 47.69a.898.898 0 0 0 1.407 1.117l2.74-3.455-1.385-1.142-2.762 3.48zM91.243 42.79a.898.898 0 1 1-1.775-.278c.004-.034.015-.113.023-.219l-.403.508 1.385 1.143 4.601-5.8c.49-.617 1.303-.875 1.977-.63.267.094.86.325.795 1.534l1.486-1.759c-.415-.865-1.145-1.276-1.672-1.467a3.372 3.372 0 0 0-1.478-.184 3.666 3.666 0 0 0-2.515 1.39l-2.694 3.396c.35.821.368 1.75.27 2.365"/>
        <path fill="#FFF" d="M96.292 61.618c-2 2.424-4.873 2.496-5.744 2.455l-10.775-9.427c-.502-1.94-.296-3.24-.128-3.845a.734.734 0 0 1 .137-.27c.788-.965 4.032-5.208 6.16-7.998l-1.386-1.144c-2.119 2.78-5.387 7.053-6.165 8.006a2.536 2.536 0 0 0-.478.925c-.149.537-.318 1.502-.21 2.817l1.314 1.122a.88.88 0 0 1 .546.211.875.875 0 0 1 .28.493l10.86 9.263c.015.012.034.015.05.028.017.014.024.035.041.052l1.668 1.422c1.562-.268 3.6-1.007 5.204-2.953l5.307-6.184-1.386-1.144-5.295 6.171zM99.617 39.506a.899.899 0 0 1-1.785-.212c.012-.092.01-.165.014-.246-1.046 1.238-2.294 2.72-3.433 4.077a494.019 494.019 0 0 0-2.013 2.41l1.387 1.145c1.372-1.657 3.816-4.566 6.984-8.311.258-.303.63-.485 1.03-.503.349-.014.67.108.903.342.046.046.09.094.129.142.627.766.56 1.943-.153 2.736l-.206.231a.863.863 0 0 0-.117.109l-6.347 7.088 1.387 1.146 6.066-6.757c.513.008.906.158 1.194.453.51.522.49 1.439-.041 2.045l-5.204 5.921 1.386 1.144 3.172-3.608c1.21-.147 1.398.366 1.49.645.212.636.039 1.386-.451 1.956l-2.252 2.624 1.385 1.144 2.23-2.597c.897-1.047 1.201-2.462.793-3.693-.23-.696-.716-1.439-1.729-1.748l.53-.603c1.156-1.315 1.146-3.285-.023-4.485a3.203 3.203 0 0 0-1.272-.797c.627-1.338.488-2.945-.45-4.094a3.9 3.9 0 0 0-.246-.27 2.96 2.96 0 0 0-2.421-.857 3.239 3.239 0 0 0-2.222 1.206c.26.542.399 1.261.285 2.217"/>
        <path fill="#FFF" d="M97.587 53.4a.899.899 0 1 0 1.35 1.186l.674-.77-1.385-1.145-.639.729zM94.477 50.225a.9.9 0 0 0 .069 1.269.9.9 0 0 0 1.268-.07l.383-.426-1.387-1.145-.333.372zM88.552 40.495c.943.196.974 1.307.939 1.798l1.483-1.869c-.329-.777-.952-1.457-2.057-1.688-1.2-.25-2.471.234-3.267 1.227l1.383 1.141c.374-.483.969-.723 1.519-.609M90.95 48.004a.9.9 0 0 0 1.646.144c.013-.019.038-.05.057-.076l-1.368-1.129c-.467.648-.426.786-.335 1.061M97.832 39.294a.898.898 0 0 0 1.784.212c.114-.956-.024-1.675-.284-2.217-.398.472-.909 1.075-1.486 1.76-.004.08-.003.153-.014.245"/>
        <path fill="#FFF" d="M89.468 42.51a.9.9 0 0 0 1.775.279c.098-.615.079-1.544-.269-2.365l-1.483 1.869a2.547 2.547 0 0 1-.023.218M55.617 105.41a.898.898 0 1 0 1.385 1.144l2.92-3.539-1.364-1.168-2.94 3.563zM73.8 83.383c.191.147.375.286.54.412a3.5 3.5 0 0 1 .768.823l15.176-18.386-1.367-1.166L73.8 83.383zM90.752 64.254c-.015-.013-.034-.016-.05-.027l.092.079c-.017-.017-.024-.037-.042-.052M77.588 55.4L59.942 76.085c1-.2 1.847-.241 2.538-.206l16.474-19.313-1.366-1.166zM48.504 89.493l-4.744 5.562a.899.899 0 0 0 1.366 1.167l3.778-4.43a9.76 9.76 0 0 1-.4-2.299M79.564 54.47a.889.889 0 0 0-.547-.211l.826.704a.886.886 0 0 0-.28-.493M48.258 27.67l.158-.192-4.549-3.609c-.616-.488-.875-1.303-.63-1.976.094-.268.326-.86 1.534-.795l-1.758-1.487c-.865.415-1.277 1.145-1.467 1.672a3.376 3.376 0 0 0-.185 1.478 3.674 3.674 0 0 0 1.39 2.515l3.396 2.694c.715-.303 1.511-.358 2.111-.3M53.413 33.733a.899.899 0 0 0 1.117-1.406l-4.707-3.733-1.143 1.386 4.733 3.753z"/>
        <path fill="#FFF" d="M49.824 28.594l-1.407-1.116-.159.19c.088.01.174.02.253.032.49.08.822.539.747 1.029a.9.9 0 0 1-1.025.747 2.547 2.547 0 0 0-.217-.023l.663.527 1.145-1.386zM67.342 22.651c1.361 1.125 1.98 2.523 2.255 3.688l1.373-1.61a8.223 8.223 0 0 0-2.472-3.451l-7.396-6.347-1.145 1.386 7.385 6.334zM45.23 19.327a.897.897 0 1 1-.213 1.784c-.091-.01-.164-.01-.246-.013 1.238 1.045 2.72 2.294 4.077 3.432l1.183.991 1.144-1.386c-1.71-1.428-4.134-3.469-7.082-5.963a1.434 1.434 0 0 1-.504-1.029c-.013-.349.108-.67.342-.903.046-.046.095-.09.143-.129.765-.626 1.942-.56 2.736.152l.23.207a.848.848 0 0 0 .109.116l5.897 5.282 1.148-1.39-5.567-4.998c.007-.512.157-.905.453-1.193.522-.51 1.439-.49 2.045.041l4.72 4.148 1.145-1.385-2.408-2.117c-.147-1.21.365-1.398.644-1.49.637-.212 1.387-.039 1.957.451l1.41 1.211 1.145-1.385-1.385-1.189c-1.046-.898-2.461-1.202-3.692-.794-.696.231-1.44.716-1.75 1.73l-.601-.53c-1.315-1.156-3.286-1.146-4.485.023a3.2 3.2 0 0 0-.797 1.273c-1.338-.629-2.946-.49-4.094.45a3.923 3.923 0 0 0-.27.244 2.964 2.964 0 0 0-.857 2.422 3.23 3.23 0 0 0 1.126 2.154l.08.067c.542-.26 1.26-.397 2.217-.284M71.242 28.07l.353.292a9.73 9.73 0 0 0-.085-1.5l-.864 1.013a.885.885 0 0 1 .596.195M60.293 40.647a.88.88 0 0 1-.24-.354l-.776.91c.423-.052.881-.136 1.37-.254l-.354-.302zM62.15 39.87l8.622-9.858-.674-.556a.891.891 0 0 1-.311-.572L61.073 39.1a.893.893 0 0 1 .387.181l.69.59zM55.949 24.467a.898.898 0 0 0 1.199-1.337l-1.617-1.451-1.145 1.389 1.563 1.399zM59.122 21.358a.9.9 0 0 0 1.186-1.35l-1.969-1.73-1.145 1.386 1.928 1.694zM56.044 41.03c.22.061.517.124.871.173l1.473-1.726c-.869.038-1.497-.076-1.864-.178a.717.717 0 0 1-.269-.138c-1.129-.922-6.747-5.208-9.27-7.129l-1.144 1.387c2.488 1.894 8.162 6.222 9.278 7.133.273.222.584.383.925.478M46.147 27.97c-.775.329-1.457.952-1.687 2.057a3.238 3.238 0 0 0 .227 1.968l2.586-3.132-1.126-.893zM53.727 27.993a.9.9 0 0 0 .145-1.646c-.166-.12-.62-.489-1.316-1.064l-1.143 1.386c1.81 1.487 1.916 1.456 2.314 1.324"/>
        <path fill="#FFF" d="M55.532 21.679l-1.338-1.201-1.148 1.39 1.34 1.2zM51.412 26.67l1.144-1.387c-.386-.318-.85-.705-1.38-1.148l-1.146 1.387c.545.455 1.004.837 1.382 1.147M58.34 18.277l-1.35-1.187-1.145 1.387 1.35 1.186zM59.957 16.317l1.145-1.386-1.365-1.17-1.143 1.386zM45.841 33.42l1.145-1.388-.148-.11c-.49-.376-.734-.976-.619-1.53.196-.944 1.307-.974 1.797-.939l-.743-.59-2.586 3.132c.23.521.588.993 1.062 1.355.03.021.063.048.092.07M69.797 28.397L60.37 39.17a9.4 9.4 0 0 1-1.982.308l-1.473 1.726a9.177 9.177 0 0 0 2.362-.001l.776-.91c-.03-.08-.064-.16-.07-.244a.887.887 0 0 1 1.09-.95l8.713-10.215c-.002-.011-.01-.022-.01-.035a.884.884 0 0 1 .871-.973l.863-1.013a9.379 9.379 0 0 0-.54-2.134l-1.373 1.609c.214.91.218 1.676.2 2.059M48.258 27.67c-.6-.058-1.396-.003-2.11.3l1.125.892.985-1.193zM45.017 21.111a.898.898 0 1 0 .213-1.784c-.957-.113-1.675.024-2.217.284.472.4 1.075.91 1.758 1.486.082.004.155.003.246.014"/>
        <path fill="#FFF" d="M49.258 28.729a.902.902 0 0 0-.746-1.028 4.184 4.184 0 0 0-.254-.032l-.985 1.194.743.59c.106.007.185.018.218.023a.899.899 0 0 0 1.024-.747M112.278 61.941l-8.135-6.715-1.17 1.364 8.16 6.736a.898.898 0 1 0 1.144-1.385M71.346 29.355l-.574.657 13.784 11.377 1.038-1.362c.018-.023.038-.041.056-.064l-14.055-11.6a5.787 5.787 0 0 1-.034.512.9.9 0 0 1-.215.48M89.358 45.353l1.116-1.408-1.386-1.144-1.116 1.408z"/>
        <path fill="#FFF" d="M102.757 54.083l-1.17 1.364 1.386 1.144 1.17-1.364zM96.197 50.998l1.2-1.338-1.388-1.146-1.2 1.338zM84.556 41.389l1.387 1.145 1.08-1.418c.004-.004.008-.007.01-.011l-1.383-1.142c-.018.023-.038.04-.056.064l-1.038 1.362M91.285 46.944l1.368 1.128c.168-.219.552-.69 1.134-1.393L92.4 45.535c-.53.645-.886 1.09-1.115 1.409M99.612 53.816l1.187-1.35-1.387-1.144-1.186 1.35zM70.647 27.875l-.86 1.01a.889.889 0 0 0 .31.571l.675.556.574-.658a.886.886 0 0 0 .215-.48 5.75 5.75 0 0 0 .034-.512l-.353-.292a.89.89 0 0 0-.595-.195M69.977 28.192a.898.898 0 0 0-.201.657c0 .012.009.023.01.035l.86-1.009a.884.884 0 0 0-.67.317M78.954 56.566l9.963 8.5.015-.019-9.859-8.62zM61.742 40.339a1.847 1.847 0 0 1-.92.569c-.06.017-.116.026-.177.04l16.943 14.453.408-.478a11.512 11.512 0 0 1-.293-1.786L62.15 39.87l-.408.469zM90.582 65.871l-.298.36 10.494 8.953a.9.9 0 0 0 1.166-1.367l-9.482-8.089a9.723 9.723 0 0 1-1.88.143"/>
        <path fill="#FFF" d="M90.873 65.518l-.29.354a9.804 9.804 0 0 0 1.88-.143l-1.669-1.423a.89.89 0 0 1 .08 1.212M79.663 55.736l-.59.69 9.86 8.623.554-.674a.895.895 0 0 1 .608-.323.893.893 0 0 1 .607.174l-10.859-9.262a.887.887 0 0 1-.18.772M77.995 54.923l.302-.354a.892.892 0 0 1 .597-.31c.041-.004.081-.002.122 0l-1.314-1.122c.044.538.134 1.132.293 1.786"/>
        <path fill="#FFF" d="M90.07 65.838a.893.893 0 0 1-.48-.215l-.658-.575-.014.018 1.367 1.166.298-.361a6.403 6.403 0 0 1-.512-.033"/>
        <path fill="#FFF" d="M89.487 64.375l-.555.673.657.575a.9.9 0 0 0 .481.215c.035.004.219.024.513.033l.29-.353a.89.89 0 0 0-.079-1.212l-.091-.079a.89.89 0 0 0-.609-.174.894.894 0 0 0-.606.322M79.073 56.427l-.467-.41a1.856 1.856 0 0 1-.57-.918c-.017-.061-.026-.116-.04-.176l-.407.478 1.365 1.166.12-.14z"/>
        <path fill="#FFF" d="M78.297 54.57l-.302.353c.015.06.025.115.04.175.091.352.294.678.571.92l.467.408.59-.69a.881.881 0 0 0 .18-.772l-.826-.706c-.04 0-.08-.003-.122 0a.893.893 0 0 0-.598.311M60.646 40.948c.06-.015.115-.023.177-.04.35-.09.677-.293.919-.569l.409-.469-.692-.59a.892.892 0 0 0-.386-.182l-1.02 1.195a.87.87 0 0 0 .24.353l.353.302zM60.193 39.381a.893.893 0 0 0-.211.668c.008.085.04.165.07.244l1.02-1.194a.886.886 0 0 0-.88.282M66.676 83.411a.9.9 0 0 0-1.117 1.407l4.263 3.382 1.144-1.386-4.29-3.403zM71.577 89.445a.899.899 0 0 1-.344-.133l-.004.005 4.993 3.959c.616.489.875 1.303.631 1.977-.095.266-.327.86-1.535.794l1.758 1.487c.865-.416 1.277-1.146 1.467-1.672.175-.48.232-.984.185-1.478a3.674 3.674 0 0 0-1.389-2.516l-3.397-2.694c-.822.35-1.75.368-2.365.27"/>
        <path fill="#FFF" d="M70.831 88.416a.9.9 0 0 1 1.024-.747c.033.005.112.016.218.023l-1.107-.878-1.144 1.386 1.407 1.116.004-.004a.905.905 0 0 1-.402-.896M48.848 89.074l-.353-.29a9.86 9.86 0 0 0 .009.71l.354-.415-.01-.005M66.362 89.151a.9.9 0 0 0-.144 1.646c.127.092.43.336.879.705l1.143-1.383c-1.393-1.123-1.514-1.088-1.877-.968M60.967 95.788a.899.899 0 1 0-1.186 1.35l1.544 1.356 1.145-1.386-1.503-1.32zM64.14 92.678a.898.898 0 0 0-1.198 1.337l1.195 1.073 1.146-1.388-1.142-1.022zM59.677 76.396l.265-.311c-.162.034-.328.07-.498.112l.233.199zM49.318 87.133l.674.556c.01.009.014.022.025.032l8.494-9.958-.572-.488-8.621 9.858zM73.87 86.753c-.144.688-.774.89-1.296.935l-.2.243 1.568 1.244c.776-.329 1.456-.952 1.687-2.057.18-.865-.025-1.764-.522-2.5l-1.262 1.531a1.4 1.4 0 0 1 .025.604M74.86 97.817a.899.899 0 0 1 .213-1.783c.09.01.164.01.246.012a1953.453 1953.453 0 0 0-4.077-3.431c-.628-.526-1.156-.97-1.616-1.353l-1.145 1.385c1.72 1.434 4.31 3.612 7.516 6.325.304.259.485.63.504 1.03.013.349-.108.67-.342.903-.046.046-.095.09-.143.129-.765.626-1.942.56-2.736-.153l-.231-.206a.856.856 0 0 0-.108-.117L66.62 94.9l-1.146 1.39 5.988 5.376c-.007.511-.157.904-.453 1.192-.522.51-1.44.492-2.045-.04l-5.145-4.521-1.145 1.384 2.833 2.491c.147 1.21-.365 1.397-.644 1.49-.637.212-1.387.038-1.957-.451l-1.84-1.58-1.145 1.386 1.815 1.556c1.046.898 2.46 1.203 3.692.794.696-.23 1.44-.716 1.749-1.728l.602.528c1.315 1.157 3.286 1.147 4.485-.022.29-.284.603-.698.797-1.273 1.338.629 2.946.49 4.094-.45.094-.077.184-.159.27-.245a2.964 2.964 0 0 0 .857-2.422 3.23 3.23 0 0 0-1.126-2.154l-.08-.066c-.542.26-1.26.397-2.217.283M52.747 94.493c-1.656-1.367-2.214-3.142-2.388-4.406l-1.455 1.705c.405 1.34 1.184 2.836 2.687 4.075l6.968 5.98 1.143-1.386-6.955-5.968zM64.045 76.114a7.374 7.374 0 0 0-1.565-.235l-1.592 1.865c1.3-.18 2.204-.03 2.678.101.1.03.19.074.268.138 1.065.87 6.133 4.738 8.82 6.786l1.145-1.386c-2.666-2.03-7.776-5.93-8.829-6.79a2.536 2.536 0 0 0-.925-.479"/>
        <path fill="#FFF" d="M73.8 83.383l-1.147 1.387.598.455c.314.238.511.57.594.924l1.263-1.531a3.5 3.5 0 0 0-.768-.823c-.165-.126-.349-.265-.54-.412M59.702 100.461l-1.144 1.386 1.364 1.17 1.144-1.387zM64.137 95.088l1.338 1.201 1.146-1.389-1.338-1.2zM68.24 90.118l-1.143 1.384c.365.3.829.682 1.384 1.145l1.145-1.385c-.568-.473-1.023-.85-1.386-1.144M61.325 98.494l1.35 1.187 1.144-1.386-1.349-1.187zM72.374 87.93l.2-.242a3.406 3.406 0 0 1-.5.005l.3.238zM50.292 88.75l9.427-10.775c.423-.11.808-.18 1.17-.23l1.591-1.866c-.69-.035-1.54.007-2.539.206l-.264.31.12.103c.183.157.29.373.31.598a.898.898 0 0 1-1.477.768l-.119-.1-8.494 9.957a.89.89 0 0 1 .296.575.897.897 0 0 1-1.456.783l-.353.414a9.76 9.76 0 0 0 .4 2.3l1.455-1.706a7.415 7.415 0 0 1-.067-1.338M71.234 89.312a.915.915 0 0 0 .344.133c.614.097 1.543.079 2.365-.27l-1.568-1.244-1.141 1.38zM75.073 96.033a.898.898 0 1 0-.213 1.784c.957.114 1.674-.024 2.216-.284l-1.757-1.486c-.082-.004-.156-.003-.246-.014"/>
        <path fill="#FFF" d="M71.856 87.67a.9.9 0 0 0-1.024.746.905.905 0 0 0 .402.896l1.14-1.38-.3-.24a2.547 2.547 0 0 1-.218-.023M8.955 53.819a.897.897 0 1 0-1.144 1.384l7.696 6.352 1.17-1.364-7.722-6.373zM48.743 87.79l.574-.657-14.213-11.732-.904 1.187c-.062.082-.133.154-.2.23l14.495 11.965c.008-.294.028-.477.033-.512a.9.9 0 0 1 .215-.48M31.685 72.58l-1.386-1.145-1.116 1.408.279.23c.039.001.078 0 .119.006.375.06.658.347.734.697l.254.21 1.116-1.407zM20.036 62.964l-1.187 1.351 1.387 1.143 1.187-1.349zM23.45 65.781l-1.201 1.338 1.388 1.146 1.2-1.339z"/>
        <path fill="#FFF" d="M35.105 75.401l-1.387-1.144c-.355.465-.68.891-.946 1.242-.05.065-.111.113-.167.169L34 76.818c.068-.075.138-.147.2-.23l.905-1.186M18.063 61.336l-1.386-1.145-1.17 1.365 1.386 1.143zM28.378 69.85l-1.374-1.134c-.225.282-.609.752-1.138 1.389l1.386 1.144c.511-.616.876-1.068 1.126-1.4M29.58 73.08c-.04-.007-.079-.006-.118-.007l.852.703a.897.897 0 0 0-.734-.697M48.858 89.08l1.159-1.359c-.011-.01-.014-.023-.025-.033l-.674-.555-.574.657a.892.892 0 0 0-.215.481 5.507 5.507 0 0 0-.033.512l.352.291.01.005"/>
        <path fill="#FFF" d="M50.112 88.953a.887.887 0 0 0-.096-1.232l-1.159 1.358a.897.897 0 0 0 1.255-.126M29.213 50.743l.162-.197-10.064-8.585a.9.9 0 0 0-1.166 1.366l8.918 7.607a9.714 9.714 0 0 1 2.15-.19M40.02 61.967L29.249 52.54a5.738 5.738 0 0 0-.31-.005l11.09 9.459-.007-.027M58.348 76.807c.242-.276.568-.48.919-.57.06-.016.116-.025.177-.04L42.069 61.375l-.27.317c.189.775.285 1.474.318 2.085l15.822 13.498.409-.468z"/>
        <path fill="#FFF" d="M29.247 52.54l10.773 9.427.007.027 2.09 1.782a11.442 11.442 0 0 0-.318-2.085l-.302.354a.896.896 0 0 1-1.266.1.897.897 0 0 1-.1-1.267l.571-.669-9.96-8.497-.435.527a.89.89 0 0 1-.608.322.897.897 0 0 1-.778-1.465l.292-.353a9.678 9.678 0 0 0-2.15.192l1.874 1.6c.12 0 .226.001.31.005"/>
        <path fill="#FFF" d="M29.634 50.767l-.259-.221-.162.198c.191.004.334.015.421.023"/>
        <path fill="#FFF" d="M29.213 50.743l-.292.353a.898.898 0 1 0 1.386 1.143l.434-.527-1.107-.946a7.522 7.522 0 0 0-.42-.023M41.364 60.774c.187.214.325.47.396.74.016.063.025.117.04.178l.269-.316-.706-.602z"/>
        <path fill="#FFF" d="M41.364 60.774l-.661-.564-.572.668a.897.897 0 1 0 1.367 1.167l.302-.353c-.015-.061-.024-.115-.04-.177a1.846 1.846 0 0 0-.396-.741M59.267 76.236a1.856 1.856 0 0 0-.92.57l-.408.468.572.488 1.166-1.367-.233-.199c-.061.016-.115.024-.177.04M58.63 77.864a.9.9 0 0 0 1.478-.769.895.895 0 0 0-.312-.597l-.119-.103-1.166 1.367.12.102z"/>
    </g>
</svg>
