<svg xmlns="http://www.w3.org/2000/svg" xmlns:xlink="http://www.w3.org/1999/xlink" width="119" height="119" viewBox="0 0 119 119">
    <defs>
        <path id="a" d="M0 .657V119h118.343V.657H0z"/>
    </defs>
    <g fill="none" fill-rule="evenodd">
        <path fill="#FFF" d="M53.712 59.047c-.498.154-1.495.247-2.018.243-.585-.005-1.833-.376-2.366-.619-2.705-1.233-5.007-4.309-5.053-8.105-.035-2.869 1.57-5.366 3.913-6.783 3.292-2.21 10.872-6.12 10.872-6.12s-2.309-2.837-7.367-2.837c-5.057 0-15.623 6.712-15.623 6.712s-2.998 1.862-7.27.185l-8.235-2.78V66.7s2.351.66 4.464 1.497a9.096 9.096 0 0 1 2.316-3.545c3.506-3.237 9.316-3.271 12.505-.086a7.577 7.577 0 0 1 1.972 3.399 8.032 8.032 0 0 1 3.386 2.001 7.587 7.587 0 0 1 1.977 3.393 8.05 8.05 0 0 1 3.383 2.003 7.762 7.762 0 0 1 2.09 3.717 8.152 8.152 0 0 1 3.532 2.053c1.916 1.909 2.596 4.499 2.184 6.997 0 0 .01 0 .012.006.031.04 1.188 1.29 1.91 1.995 1.412 1.371 3.72 1.371 5.137 0a3.46 3.46 0 0 0 0-4.982c-.052-.049-5.099-5.168-4.693-5.565.404-.394 6.833 6.094 6.953 6.212 1.413 1.369 3.718 1.369 5.135 0a3.454 3.454 0 0 0 0-4.978c-.07-.065-.359-.333-.466-.44 0 0-6.375-5.508-5.89-5.978.492-.473 8.41 6.693 8.424 6.693 1.421 1.243 3.615 1.233 4.984-.095 1.333-1.292 1.362-3.336.18-4.713-.026-.073-6.035-6.164-5.567-6.622.478-.464 6.424 5.474 6.437 5.487 1.407 1.368 3.716 1.368 5.133 0a3.466 3.466 0 0 0 0-4.986c-.019-.012-.044-.023-.063-.036-14.82-14.371-7.85-7.608-15.825-15.358 0 0-2.126-2.584-6.533.041a431.575 431.575 0 0 0-7.105 3.153c-.078.035-1.61.697-1.694.708l-1.132.376z"/>
        <path fill="#FFF" d="M33.758 64.404c-1.812 0-3.553.728-4.899 2.05-1.263 1.247-2.223 2.926-2.639 4.61-.525 2.12-.15 4.07 1.053 5.488 1.03 1.212 2.297 1.825 3.77 1.825.066 0 .131 0 .196-.004-.098 1.06.116 2.296 1.131 3.618.95 1.237 2.247 1.892 3.756 1.892.1 0 .2-.002.297-.008-.112 1.094.088 2.354 1.117 3.647.957 1.195 2.305 1.824 3.9 1.824.103 0 .207-.002.31-.006-.187 1.25.01 2.683 1.257 4.134.994 1.166 2.524 1.811 4.306 1.811 2.217 0 4.661-.993 6.226-2.53 2.698-2.658 2.911-6.92.478-9.505a5.984 5.984 0 0 0-3.752-1.838c-.055-1.526-.625-2.965-1.667-4.069-.936-.986-2.172-1.603-3.546-1.787-.112-1.412-.663-2.718-1.609-3.723a5.946 5.946 0 0 0-3.55-1.79c-.114-1.412-.666-2.717-1.614-3.72-1.17-1.237-2.777-1.919-4.52-1.919m39.156-31.407c-1.526 0-2.848.6-3.83 1.122-3.969 2.108-13.92 7.685-18.72 10.594-2.573 1.45-3.878 3.42-3.878 5.86 0 1.481.674 3.025 1.85 4.234 1.273 1.307 2.94 2.027 4.696 2.027 1.118 0 2.232-.289 3.313-.859 2.076-1.009 6.843-3.492 10.308-5.319.701-.369 1.37-.557 1.986-.557 1.031 0 1.651.527 1.656.533.122.12 13.091 13.016 16.733 16.506 1.712 1.647 3.824 2.518 6.104 2.518.55 0 1.004-.048 1.376-.095 1.126-.14 5.832-1.58 7.247-2.017l1.341-.414V39.568l-2.318.52c-.075.016-7.573 1.694-12.307 2.695a2.526 2.526 0 0 1-.526.057c-.579 0-.96-.22-1.06-.285l.04.037-.026-.023-.016-.015-.007-.004c-.456-.393-4.024-3.46-7.949-6.76-2.29-1.932-4.146-2.793-6.013-2.793M33.758 66.305c1.17.001 2.302.44 3.14 1.325 1.107 1.171 1.343 2.838.918 4.401.4-.095.804-.145 1.205-.144 1.132 0 2.22.394 3.037 1.25 1.107 1.175 1.344 2.841.915 4.407.4-.094.806-.143 1.207-.143 1.132 0 2.222.391 3.035 1.248 1.226 1.297 1.44 3.19.8 4.88a5.098 5.098 0 0 1 1.562-.252c1.138 0 2.235.41 3.055 1.275 1.73 1.838 1.541 4.91-.426 6.846-1.195 1.175-3.15 1.985-4.893 1.985-1.132 0-2.176-.34-2.864-1.149-1.75-2.034-.387-3.85.248-5.535-.925.297-2.12.746-3.258.746-.888 0-1.744-.273-2.41-1.107-1.51-1.898-.292-3.498.135-5.055-.878.203-1.97.698-3.038.698-.796 0-1.578-.274-2.248-1.148-1.57-2.046-.295-3.5.131-5.064-.879.206-1.914.706-2.967.706-.782 0-1.574-.275-2.318-1.15-1.75-2.067-.494-5.577 1.467-7.515 1.02-1 2.314-1.505 3.567-1.505M72.915 34.9c1.351 0 2.794.664 4.79 2.345 4.222 3.552 7.98 6.79 7.98 6.79s.85.708 2.261.708c.285 0 .592-.029.92-.099 4.8-1.014 12.33-2.7 12.33-2.7v23.784s-5.875 1.816-6.924 1.948c-.284.035-.674.08-1.139.08-1.253 0-3.053-.32-4.788-1.99-3.672-3.518-16.717-16.49-16.717-16.49s-1.097-1.077-2.988-1.077c-.818 0-1.782.2-2.872.776-3.316 1.747-8.23 4.308-10.282 5.305-.86.457-1.686.653-2.453.653-2.695 0-4.644-2.417-4.644-4.36 0-1.937 1.208-3.25 2.935-4.217 4.68-2.837 14.545-8.375 18.655-10.557 1.044-.556 1.966-.899 2.936-.899"/>
        <g transform="translate(0 -.657)">
            <mask id="b" fill="#fff">
                <use xlink:href="#a"/>
            </mask>
            <path fill="#FFF" d="M59.171 3.396C28.054 3.396 2.74 28.711 2.74 59.828s25.315 56.432 56.432 56.432 56.433-25.315 56.433-56.432S90.288 3.396 59.171 3.396m0 115.604c-15.805 0-30.665-6.155-41.84-17.332C6.153 90.493-.002 75.633-.002 59.828c0-15.805 6.155-30.664 17.331-41.84C28.506 6.811 43.366.658 59.171.658c15.806 0 30.665 6.153 41.841 17.33 11.176 11.176 17.331 26.035 17.331 41.84 0 15.805-6.155 30.665-17.33 41.84C89.835 112.845 74.976 119 59.17 119" mask="url(#b)"/>
        </g>
    </g>
</svg>
