<svg xmlns="http://www.w3.org/2000/svg" width="60" height="49" viewBox="0 0 60 49">
    <g fill="#423D3D" fill-rule="evenodd">
        <path d="M25.836 36.287h8.65V12.768h-8.65v23.52zm26.152 5.369c0 2.741-2.245 4.972-5.004 4.972-2.76 0-5.004-2.23-5.004-4.972 0-2.742 2.245-4.973 5.004-4.973 2.76 0 5.004 2.23 5.004 4.973zm-38.651 4.972c-2.76 0-5.004-2.23-5.004-4.972 0-2.742 2.245-4.973 5.004-4.973 2.76 0 5.004 2.23 5.004 4.973 0 2.741-2.245 4.972-5.004 4.972zM7.009 29.5c-2.759 0-5.004-2.23-5.004-4.972 0-2.742 2.245-4.973 5.004-4.973 2.76 0 5.004 2.231 5.004 4.973 0 2.741-2.244 4.972-5.004 4.972zM8.333 6.965c0-2.742 2.245-4.972 5.004-4.972 2.76 0 5.004 2.23 5.004 4.972 0 2.742-2.245 4.972-5.004 4.972-2.76 0-5.004-2.23-5.004-4.972zm38.65-4.972c2.76 0 5.005 2.23 5.005 4.972 0 2.742-2.245 4.972-5.004 4.972-2.76 0-5.004-2.23-5.004-4.972 0-2.742 2.245-4.972 5.004-4.972zm6.008 17.562c2.759 0 5.004 2.231 5.004 4.973 0 2.741-2.245 4.972-5.004 4.972-2.76 0-5.004-2.23-5.004-4.972 0-2.742 2.244-4.973 5.004-4.973zm-16.5 5.954h9.56c.481 3.377 3.41 5.984 6.94 5.984 3.865 0 7.009-3.125 7.009-6.965s-3.144-6.965-7.01-6.965c-3.519 0-6.44 2.59-6.935 5.953h-9.564v-2.637l7.093-7.825a7.001 7.001 0 0 0 3.4.876c3.865 0 7.01-3.124 7.01-6.965 0-3.84-3.145-6.965-7.01-6.965-3.865 0-7.01 3.125-7.01 6.965a6.92 6.92 0 0 0 2.01 4.877l-5.493 6.06v-7.127H23.83v7.127l-5.495-6.06a6.92 6.92 0 0 0 2.01-4.877c0-3.84-3.144-6.965-7.009-6.965s-7.01 3.125-7.01 6.965 3.145 6.965 7.01 6.965a7 7 0 0 0 3.4-.876l7.093 7.825v2.637h-9.885c-.495-3.363-3.416-5.953-6.936-5.953C3.144 17.563 0 20.687 0 24.528c0 3.84 3.144 6.965 7.01 6.965 3.53 0 6.458-2.607 6.939-5.984h9.881v2.637l-6.853 7.56a7 7 0 0 0-3.64-1.015c-3.865 0-7.01 3.124-7.01 6.965 0 3.84 3.145 6.965 7.01 6.965 3.865 0 7.01-3.125 7.01-6.965 0-1.8-.691-3.443-1.823-4.68l5.306-5.853v7.157h12.66v-7.157l5.307 5.853a6.914 6.914 0 0 0-1.823 4.68c0 3.84 3.145 6.965 7.01 6.965 3.865 0 7.01-3.125 7.01-6.965 0-3.841-3.145-6.965-7.01-6.965a7 7 0 0 0-3.64 1.014l-6.853-7.56V25.51z"/>
        <path d="M30.517 30.688a.864.864 0 1 1 0 1.728.864.864 0 0 1 0-1.728m0 2.415c.856 0 1.552-.696 1.552-1.551 0-.856-.696-1.552-1.552-1.552-.855 0-1.551.696-1.551 1.552 0 .855.696 1.551 1.551 1.551M30.517 23.447a.864.864 0 1 1 0 1.727.864.864 0 0 1 0-1.727m0 2.415c.856 0 1.552-.696 1.552-1.552 0-.855-.696-1.551-1.552-1.551-.855 0-1.551.696-1.551 1.551 0 .856.696 1.552 1.551 1.552M30.517 17.24a.864.864 0 1 1 0 1.727.864.864 0 0 1 0-1.727m0 2.415c.856 0 1.552-.696 1.552-1.552 0-.855-.696-1.551-1.552-1.551-.855 0-1.551.696-1.551 1.551 0 .856.696 1.552 1.551 1.552"/>
    </g>
</svg>
