<svg xmlns="http://www.w3.org/2000/svg" width="126" height="79" viewBox="0 0 126 79">
    <path fill="#424853" fill-rule="evenodd" d="M115.806 19.33c-.006.302-.012.587-.026.792a4.15 4.15 0 0 0-.005.481c-1.546.632-3.438 1.624-4.582 3.72l-.108.166a4.104 4.104 0 0 0-.286.516 4.079 4.079 0 0 0-.867 2.213 4.111 4.111 0 0 0-1.607 1.272c-1.177.683-2.032 1.88-2.36 3.388a7.073 7.073 0 0 0 .244 3.894c-.01.9.278 1.78.814 2.498.029.569.178 1.167.489 1.773a4.085 4.085 0 0 0 .965 1.99 4.126 4.126 0 0 0-.404.96c-.232.389-.397.812-.49 1.25-.143.121-.285.25-.424.39-.42.42-.77.885-1.046 1.386-.558.3-1.058.674-1.498 1.119a6.245 6.245 0 0 0-1.63 2.955c-.203.234-.376.453-.525.643l-.16.203a4.1 4.1 0 0 0-2.2 2.55c-.367.448-.894 1.14-1.229 2.109-.473 1.37-.65 2.75-.593 4.1a6.3 6.3 0 0 0-2.74-.6c-.255 0-.518.015-.782.042a4.09 4.09 0 0 0-1.704.575c-.959-.442-2.157-.735-3.648-.735-.528 0-1.079.037-1.653.113a4.098 4.098 0 0 0-2.32-.688 4.403 4.403 0 0 0-2.89 1.099c-.588.058-1.199.166-1.818.379-1.328.457-2.392 1.287-3.134 2.433a5.025 5.025 0 0 0-2.373-.605c-.738 0-1.465.173-2.132.5a17.5 17.5 0 0 0-2.011-.128c-2.276 0-4.171.62-5.633 1.842-.138.116-.269.24-.39.373-.826.899-2.197 1.668-3.648 2.483-.953.534-1.939 1.088-2.913 1.75a4.1 4.1 0 0 0-.984.94l-.012-.008-.128-.186a10.401 10.401 0 0 0-.878-1.152c-.47-1.606-1.213-2.968-2.22-4.064-1.515-1.647-3.528-2.628-5.984-2.917a4.105 4.105 0 0 0-.822-.014 5.63 5.63 0 0 0-2.18.631 6.27 6.27 0 0 0-1.475-2.628 4.098 4.098 0 0 0-1.308-.937c-.184-.083-.703-.805-.982-1.194a26.98 26.98 0 0 0-.773-1.04 4.099 4.099 0 0 0-2.96-1.545c-1.084-.067-2.129-.24-3.235-.421l-.648-.106a4.101 4.101 0 0 0-3.424 1.029c-2.148-.312-3.92-.712-5.279-1.513a70.66 70.66 0 0 1-2.12-1.32c-.814-.52-1.645-1.05-2.51-1.559a4.097 4.097 0 0 0-2.775-2.03c-.966-.195-1.923-.298-2.848-.397l-.415-.045a7.379 7.379 0 0 0-.425-1.04 6.54 6.54 0 0 0-1.851-2.261 4.1 4.1 0 0 0-1.964-1.728 13.18 13.18 0 0 1-.291-.303c-.372-.394-.922-.978-1.698-1.505-.238-1.453-.92-2.608-1.434-3.478l-.056-.095a4.68 4.68 0 0 0 .233-.892 4.098 4.098 0 0 0-.864-3.232 4.104 4.104 0 0 0-.701-3.08c-.141-1.05-.558-1.896-.939-2.527.173-.674.365-1.543.3-2.546a5.874 5.874 0 0 0-.139-.957c.77-1.352 1.65-3.324 1.222-5.688.035-.188.07-.39.099-.607 1.617-2.425 2.689-5.177 3.516-7.73.37-.39.669-.858.867-1.39.215-.575.292-1.17.247-1.746l.011-.039a4.097 4.097 0 0 0 4.017-2.02c13.547 3.315 29.58 6.357 48.115 6.357.687 0 1.381-.004 2.074-.012a4.098 4.098 0 0 0 2.15.826c.197.093.46.215.778.333.334.122.677.2 1.022.232a4.099 4.099 0 0 0 1.946 4.627 5.19 5.19 0 0 0 3.01.652c.302.108.618.183.944.222a4.098 4.098 0 0 0 3.374-.313 10.91 10.91 0 0 0-.194.514 4.098 4.098 0 0 0 .588 3.804c-.048.454-.082.913-.096 1.375-.11 3.52.92 6.283 3.064 8.209a4.098 4.098 0 0 0 3.866.892c1.69-.483 3.085-1.673 3.953-3.312.52.891 1.32 1.588 2.325 2.01.498.21.958.314 1.32.38a4.11 4.11 0 0 0 3.744.11c2.59-1.238 6.337-3.291 8.951-6.829a4.09 4.09 0 0 0 .327-.52c1.59-.262 3.57-.908 5.024-3.004a4.1 4.1 0 0 0 .722-2.605v-.049a8.132 8.132 0 0 0-.035-.691l.09-.162c.192-.027.4-.063.617-.113.855-.194 1.658-.44 2.435-.68a48.74 48.74 0 0 1 1.134-.338c-.093.837-.108 1.587-.12 2.223m9.77-9.625a.704.704 0 0 0-.111-.01c-.242 0-.372.134-.515.134-.07 0-.141-.032-.23-.124.114-.495-.213-.549-.143-1h-.015c-.13 0-.266.007-.396.007-.245 0-.47-.022-.588-.149-.237-1.522-.842-2.678-1.141-4.138-.565-.007-.828-.314-1.285-.428-.351.314-.625.706-1.141.856-.372-.024-.209-.583-.604-.583a.567.567 0 0 0-.11.012c-.562 1.377-1.561 3.555-.856 5.28-.367.585-.749 1.154-.714 2.14a.777.777 0 0 0-.176-.02c-.26 0-.423.14-.585.14-.076 0-.152-.03-.237-.12-.142.43-.106 1.037-.571 1.142-1.48.262-3.133.926-4.71 1.285-.755.171-1.541.046-2.14.428-.692.441-.932 1.458-1.427 2.14-.344.473-1.053.546-.856 1.285.659.228.535.992.57 1.426-1.346 1.94-3.85.996-5.993 1.998.04.674.47.957.714 1.427-1.84 2.49-4.491 4.167-7.42 5.566-.453-.594-1.887-.207-2.141-1 .726-.694.605-2.57 1.642-2.57.023 0 .046 0 .07.002-.138-1.86-.382-3.613-1.57-4.424-.934.112-.807 1.286-1.57 1.57a.665.665 0 0 1-.104.01c-.444 0-.305-.583-.324-1.009 1.635-.422.539-2.945.857-3.71a.54.54 0 0 1-.062.004c-.314 0-.31-.318-.366-.575-1.054-.004-2.003-.807-2.772-.807-.353 0-.668.17-.939.664-.125.459.471.196.429.571a.975.975 0 0 0-.217-.027c-.317 0-.428.207-.64.313-.107.868.39 1.455-.428 1.57-.218-.686.606-1.224 0-1.428-1.31 1.435-1.38 2.96-1.57 5.423 1.591 1.538 1.118 5.389-.998 5.993-2.99-2.686-1.314-8.213-.571-11.273-.58.706-1.177 2.15-1.855 2.283.48-1.375 1.35-2.36 1.712-3.853.172.044.333.063.488.063.946 0 1.642-.727 2.937-1.062.376.062.739.087 1.087.087.826 0 1.567-.137 2.195-.23-.646-.114-.821-.7-.713-1.57-.6.018-1.082.378-1.585.378a.962.962 0 0 1-.413-.092v-.856c-1.879.21-2.94 1.325-4.485 1.325-.164 0-.333-.013-.51-.04-.16-.768-.933-1.13-1.555-1.13-.315 0-.59.093-.728.273.22-.922.965-1.318 1.427-1.998-1.41.018-1.907.948-2.569 1.713-.975.546-2.11.934-2.996 1.57-.057-.2-.187-.251-.337-.251-.158 0-.337.057-.473.057-.085 0-.153-.022-.19-.092.128-.301.435-.421.429-.856a.57.57 0 0 0-.198-.035c-.567 0-1.242.749-1.982.749-.174 0-.351-.041-.531-.143 1.04-.578 1.465-1.874 2.425-2.569.807-.583 1.98-.47 2.57-1.427-.841-.166-2.181-.059-2.712-.57-.33.339-.81.51-1.258.51-.555 0-1.06-.262-1.168-.796a1.23 1.23 0 0 1-.364.054c-.782 0-1.495-.7-2.23-.7-.273 0-.548.096-.831.36-.579-.212-1.012-.57-1.803-.57h-.052c-.612-.417-.058-2-1.086-2l-.056.002c-.327.148.068 1.019-.285 1.141-1.053.02-2.097.03-3.134.03-19.773 0-36.645-3.5-51.949-7.45.664 1.045.063 2.308.286 3.14-.68-.54-.342-.99-.286-1.427a.614.614 0 0 0-.103-.01c-.435 0-.288.581-.722.581H9.99C8.521 2.037 7.714 1.133 6.564.57c-.103 1.33-.224 3.555.428 4.566a1.567 1.567 0 0 0-.072-.001c-.214 0-.384.044-.499.144-.152.533.355.407.286.856-.59.374-.802 1.11-.143 1.427a.502.502 0 0 0-.131-.02c-.296 0-.195.397-.44.448-.99 3.243-2.148 6.32-3.995 8.705.038.847-.156 1.462-.286 2.14C2.567 21.05.673 22.787 0 24.403c1.61 1.023.113 2.903.285 4.281.075.596 1.095 1.498 1.142 2.426.046.907.133 1.188.713 1.712-.755 1.223-.018 2.809.857 3.282-.08.492-.656.486-.714 1 .058 1.874 1.877 3.362 1.998 4.994.056.753-.684 1.297-.143 1.998l.12-.002c2.387 0 2.677 2.096 4.447 2.713.084.455-.268.441 0 .714 1.662.383 2.253 1.837 2.14 3.995 1.75.629 4.157.6 6.136 1-.001.283-.389.18-.285.57 2.244 1.107 4.356 2.636 6.421 3.853 2.663 1.568 5.807 1.95 9.847 2.426.073-.498.064-1.078.285-1.427 1.394.224 2.758.476 4.281.57.988 1.248 1.742 2.73 3.282 3.425.807.862.551 1.799.857 2.997.404 1.585 2.412 1.956 3.71 2.854 1.02-.645.89-2.44 2.426-2.568 3.022.355 4.499 2.255 4.994 5.137 1.029.541 1.292 1.847 2.283 2.426-.63 3.59 3.417 4.466 5.851 4.994-.45-1.9-.35-3.778-.142-5.85 2.408-1.635 5.342-2.744 7.277-4.852.818-.683 1.885-.888 3.005-.888 1.665 0 3.447.452 4.701.46-.032-.324-.194-.39-.388-.39-.135 0-.285.031-.418.031-.15 0-.276-.04-.335-.212.202-.188.396-.262.583-.262.64 0 1.21.859 1.843.975.032.27-.161.315-.143.571.497.217.885.542 1.57.57.353-.264.536-.7 1.141-.713.471.285-.353.61 0 .714 1.132-.351.254-1.088 1.142-1.427.146.46 1.075 1.024 1.705 1.024.3 0 .53-.127.578-.453-.4-.551-1.583-.32-1.855-1 .447-.375 1.011-.501.713-1.569a.64.64 0 0 0-.064-.003c-.485 0-.361.61-.847.61a.87.87 0 0 1-.23-.036c.636-1.699 2.123-1.484 4.138-1.57.282-.242.054-.993.571-.999.3.236.69 1.045.143 1.284 1.134-.37 2.519-.709 3.783-.709 1.363 0 2.587.394 3.209 1.566 1.265-.106 2.416-.628 2.569-1.427.125-.013.244-.02.357-.02 2.075 0 2.031 2.12 3.924 2.303 1.195.974-.167 3.632.999 4.566.35-.398-.11-.96 0-.998.04.004.082.005.126.005h.122c.154 0 .294.012.322.137.06.678-.538.698-.57 1.284.742.828 1.342 1.797 1.855 2.854a.578.578 0 0 0 .162.027c.216 0 .255-.176.471-.176.024 0 .05.002.08.007.292.47.444 1.078.714 1.57.114-.027.223-.04.326-.04 1.023 0 1.493 1.22 1.814 2.18.482-.156 1.274-.592 1.71-.592.054 0 .103.006.145.021-.19.859-1.618 1.233-1.57 1.855.995-.718 1.908-1.517 2.141-2.996a.422.422 0 0 0-.16-.044c-.235 0 .004.475-.232.475a.215.215 0 0 1-.036-.003c1.078-3.74-.983-6.303-2.283-8.562.002-.284.39-.182.285-.571-2.159-1.935-4.438-5.807-3.14-9.561.303-.873 1.268-1.363 1.285-2.283 1.36-.45 1.713-1.903 2.854-2.569-.081-1.889.946-2.67 2.569-2.854-.127-2.826 3.483-2.287 3.567-4.138-.062.14-.444.257-.8.257-.28 0-.543-.071-.627-.257a.428.428 0 0 0 .266.107c.432 0 .64-.91.162-1.106.183.052.369.078.549.078.73 0 1.38-.424 1.45-1.22a.229.229 0 0 0-.215-.12c-.19 0-.438.146-.645.146a.302.302 0 0 1-.282-.168c.05.003.098.004.145.004.429 0 .724-.134.854-.433l-.072-.214.214.072c-.606-.916-1.09-1.954-1.57-2.997h-.016c-.127 0-.26-.006-.387-.006-.193 0-.372.013-.5.08.568-.472-.655-1.026-.38-1.358.143 0 .17.115.285.142-.083-1.059-.4-1.883-1.142-2.283.042.01.078.016.11.016.253 0 .182-.325.318-.444-.991-.635-1.145-3.282-.143-3.425-.647.597.413 1.31-.285 1.998.64.008.235.203.285.999.76.05.603 1.014 1.142 1.284.209-.508-.459-.855-.143-.999 1.498.527-.274 2.614.856 3.425.284-1.84 1.606-3.569.857-5.565-.934-.265-1.121-1.278-1.605-1.993.38.486.909.823 1.747.851.059.344-.26.31-.142.714 1.072-1.013 1.918-2.88 1.427-4.995-.04-.082-.09-.11-.146-.11-.12 0-.264.125-.389.125-.069 0-.131-.039-.179-.158.291-.042.28-.386.571-.428l-.071-.385.214-.328c1.008-2.037 3.948-2.14 5.708-3.425.178-.428-.068-.714.57-.856.082.462-.043.718-.285.856.648-.351.96-1.038 1.855-1.142-.02-.729-.216-1.284-.966-1.284h-.033c.068.456.732.315.714.856-.23.204-.427.286-.6.286-.693 0-1.01-1.315-1.652-1.316a.523.523 0 0 0-.174.031c.088-1.259-.074-2.981.57-4.851.058.01.114.014.168.014.705 0 1.21-.776 1.83-1.156.105-.495-.155-1.354 0-1.427.168.213.594.168.571.57-.338.216-.527.217-.285.714.718-.171.386-1.15.856-1.57-.033.314-.044.605.235.605.054 0 .117-.01.193-.034.27-.84-.172-.399-.285-.856a.83.83 0 0 0 .372.083c1.111 0 2.664-1.84 1.483-2.794"/>
</svg>
