<?xml version="1.0" encoding="UTF-8"?>
<svg width="140px" height="53px" viewBox="0 0 140 53" version="1.1" xmlns="http://www.w3.org/2000/svg" xmlns:xlink="http://www.w3.org/1999/xlink">
    <!-- Generator: Sketch 47.1 (45422) - http://www.bohemiancoding.com/sketch -->
    <title>pacira_white_logo</title>
    <desc>Created with Sketch.</desc>
    <defs>
        <linearGradient x1="10.3534473%" y1="49.9443419%" x2="89.3440456%" y2="49.9443419%" id="linearGradient-1">
            <stop stop-color="#929497" offset="0%"></stop>
            <stop stop-color="#FFFFFF" offset="50.76%"></stop>
            <stop stop-color="#808080" offset="100%"></stop>
        </linearGradient>
    </defs>
    <g id="Desktop-Big-1440" stroke="none" stroke-width="1" fill="none" fill-rule="evenodd">
        <g id="3.1_DepoFoam" transform="translate(-100.000000, -25.000000)" fill-rule="nonzero">
            <g id="Nav">
                <g id="pacira_white_logo" transform="translate(100.000000, 25.000000)">
                    <path d="M0.276363636,16.7342657 C0.207272727,14.9160839 0.138181818,13.027972 0.0690909091,11.0699301 C0.76,11.1398601 1.45090909,11.2097902 2.14181818,11.2097902 C2.83272727,11.2797203 3.52363636,11.2797203 4.21454545,11.2797203 C4.56,11.2797203 4.97454545,11.2797203 5.45818182,11.2097902 C5.94181818,11.2097902 6.42545455,11.1398601 6.97818182,11.1398601 C7.46181818,11.1398601 7.94545455,11.0699301 8.42909091,11.0699301 C8.91272727,11.0699301 9.25818182,11 9.60363636,11 C10.0181818,11 10.5709091,11 11.1927273,11.0699301 C11.8145455,11.0699301 12.5054545,11.2097902 13.1963636,11.3496503 C13.8872727,11.4895105 14.5781818,11.6993007 15.2690909,11.979021 C15.96,12.2587413 16.5818182,12.6783217 17.1345455,13.2377622 C17.6872727,13.7972028 18.1709091,14.4965035 18.5163636,15.3356643 C18.8618182,16.1748252 19,17.1538462 19,18.4125874 C19,20.3006993 18.5854545,21.9090909 17.7563636,23.0979021 C16.9272727,24.2867133 15.96,25.1958042 14.7163636,25.8951049 C13.5418182,26.5944056 12.2290909,27.013986 10.9163636,27.2237762 C9.60363636,27.4335664 8.42909091,27.5734266 7.39272727,27.5734266 C6.70181818,27.5734266 6.14909091,27.5734266 5.59636364,27.5734266 C5.04363636,27.5734266 4.49090909,27.5034965 3.93818182,27.4335664 L3.93818182,29.8111888 C3.93818182,31.6993007 4.00727273,33.5874126 4.07636364,35.4755245 C4.14545455,37.3636364 4.21454545,39.1818182 4.28363636,41 C3.59272727,40.9300699 2.90181818,40.9300699 2.14181818,40.9300699 C1.38181818,40.9300699 0.690909091,40.9300699 0,41 C0.0690909091,39.1818182 0.138181818,37.3636364 0.207272727,35.4755245 C0.276363636,33.5874126 0.345454545,31.6993007 0.345454545,29.8111888 L0.345454545,22.3986014 C0.345454545,20.4405594 0.345454545,18.5524476 0.276363636,16.7342657 Z M6.90909091,25.965035 C7.80727273,25.965035 8.70545455,25.8951049 9.67272727,25.6853147 C10.64,25.4755245 11.4690909,25.1258741 12.2981818,24.5664336 C13.0581818,24.006993 13.7490909,23.3076923 14.2327273,22.3286713 C14.7163636,21.3496503 14.9927273,20.1608392 14.9927273,18.6923077 C14.9927273,17.4335664 14.8545455,16.4545455 14.5090909,15.6153846 C14.1636364,14.8461538 13.68,14.2167832 13.0581818,13.7972028 C12.4363636,13.3776224 11.6763636,13.0979021 10.7781818,12.8881119 C9.88,12.7482517 8.91272727,12.6783217 7.73818182,12.6783217 L3.86909091,12.6783217 L3.86909091,25.6153846 C4.83636364,25.8951049 5.87272727,25.965035 6.90909091,25.965035 Z" id="Shape" fill="#FFFFFF"></path>
                    <path d="M70.8157182,40.3941441 C70.2520325,40.6734234 69.5474255,40.8828829 68.7723577,41.1621622 C67.99729,41.3716216 67.0813008,41.5810811 66.0948509,41.7207207 C65.1084011,41.8603604 64.0514905,42 62.9945799,42 C60.6693767,42 58.5555556,41.6509009 56.5826558,41.0225225 C54.6097561,40.3941441 52.9186992,39.3468468 51.5094851,38.0202703 C50.100271,36.6936937 48.9728997,35.0878378 48.197832,33.1328829 C47.4227642,31.1779279 47,29.0135135 47,26.5698198 C47,24.1261261 47.4227642,21.8918919 48.197832,20.0067568 C48.9728997,18.0518018 50.100271,16.4459459 51.5799458,15.1193694 C53.0596206,13.7927928 54.7506775,12.7454955 56.7940379,12.0472973 C58.8373984,11.3490991 61.0216802,11 63.4878049,11 C65.3902439,11 67.1517615,11.2094595 68.7723577,11.5585586 C70.3929539,11.9774775 71.802168,12.3963964 73,12.954955 C72.7886179,13.3738739 72.5772358,13.9324324 72.4363144,14.6306306 C72.295393,15.3288288 72.1544715,15.8873874 72.0840108,16.3761261 L71.802168,16.4459459 C71.5203252,16.0968468 71.097561,15.6779279 70.604336,15.259009 C70.1111111,14.8400901 69.4769648,14.4211712 68.7723577,14.0022523 C68.0677507,13.5833333 67.2926829,13.2342342 66.3766938,12.954955 C65.5311653,12.6756757 64.5447154,12.536036 63.4878049,12.536036 C61.7262873,12.536036 60.1761518,12.8153153 58.696477,13.3738739 C57.2168022,13.9324324 55.9485095,14.7702703 54.8211382,15.8873874 C53.6937669,17.0045045 52.8482385,18.4707207 52.2845528,20.2162162 C51.6504065,21.9617117 51.3685637,24.0563063 51.3685637,26.4301802 C51.3685637,28.8040541 51.6504065,30.8986486 52.2845528,32.6441441 C52.9186992,34.3896396 53.7642276,35.8558559 54.8211382,36.972973 C55.9485095,38.0900901 57.2168022,38.9977477 58.696477,39.4864865 C60.1761518,40.045045 61.796748,40.3243243 63.4878049,40.3243243 C64.5447154,40.3243243 65.5311653,40.1846847 66.3766938,39.9054054 C67.2926829,39.6261261 68.0677507,39.3468468 68.8428184,38.9977477 C69.6178862,38.6486486 70.2520325,38.2297297 70.8861789,37.8108108 C71.5203252,37.3918919 72.0135501,37.0427928 72.4363144,36.6936937 L72.5772358,36.8333333 L72.1544715,39.4166667 C71.802168,39.8355856 71.3794038,40.1148649 70.8157182,40.3941441 Z" id="Shape" fill="#FFFFFF"></path>
                    <path d="M78.1935484,16.6643357 C78.1290323,14.8461538 78.0645161,12.958042 78,11 C78.3225806,11.0699301 78.7096774,11.1398601 79.0322581,11.1398601 C79.3548387,11.2097902 79.6774194,11.2097902 80,11.2097902 C80.3225806,11.2097902 80.6451613,11.2097902 80.9677419,11.1398601 C81.2903226,11.0699301 81.6129032,11.0699301 82,11 C81.9354839,12.8881119 81.8709677,14.7762238 81.8064516,16.6643357 C81.7419355,18.4825175 81.6774194,20.3706294 81.6774194,22.3286713 L81.6774194,29.8111888 C81.6774194,31.6993007 81.7419355,33.5874126 81.8064516,35.4755245 C81.8709677,37.3636364 81.9354839,39.1818182 82,41 C81.3548387,40.9300699 80.7096774,40.9300699 80,40.9300699 C79.2903226,40.9300699 78.6451613,40.9300699 78,41 C78.0645161,39.1818182 78.1290323,37.3636364 78.1935484,35.4755245 C78.2580645,33.5874126 78.3225806,31.6993007 78.3225806,29.8111888 L78.3225806,22.3286713 C78.2580645,20.3706294 78.2580645,18.4825175 78.1935484,16.6643357 Z" id="Shape" fill="#FFFFFF"></path>
                    <path d="M89.2075472,16.7342657 C89.1383648,14.9160839 89.0691824,13.027972 89,11.0699301 C89.8301887,11.1398601 90.6603774,11.2097902 91.490566,11.2097902 C92.3207547,11.2797203 93.081761,11.2797203 93.9811321,11.2797203 C94.8113208,11.2797203 95.6415094,11.2097902 96.4716981,11.1398601 C97.3018868,11.0699301 98.0628931,11 98.9622642,11 C100.138365,11 101.314465,11.1398601 102.421384,11.3496503 C103.528302,11.5594406 104.496855,11.979021 105.257862,12.5384615 C106.08805,13.0979021 106.710692,13.7972028 107.194969,14.6363636 C107.679245,15.4755245 107.886792,16.5944056 107.886792,17.9230769 C107.886792,19.3216783 107.610063,20.5104895 106.987421,21.4895105 C106.36478,22.4685315 105.603774,23.3076923 104.704403,24.006993 C103.805031,24.6363636 102.836478,25.1958042 101.867925,25.5454545 C100.830189,25.8951049 99.9308176,26.1748252 99.1006289,26.2447552 C99.4465409,26.6643357 99.9308176,27.2937063 100.553459,28.0629371 C101.176101,28.8321678 101.798742,29.7412587 102.559748,30.6503497 C103.320755,31.6293706 104.081761,32.6083916 104.91195,33.5874126 C105.742138,34.6363636 106.503145,35.6153846 107.264151,36.5244755 C108.025157,37.5034965 108.716981,38.3426573 109.408805,39.1118881 C110.100629,39.8811189 110.584906,40.5104895 111,40.9300699 C110.584906,40.8601399 110.169811,40.8601399 109.685535,40.8601399 C109.27044,40.8601399 108.855346,40.8601399 108.371069,40.8601399 C107.955975,40.8601399 107.540881,40.8601399 107.125786,40.8601399 C106.710692,40.8601399 106.295597,40.8601399 105.880503,40.9300699 C105.465409,40.3006993 104.773585,39.3916084 103.943396,38.2027972 C103.044025,37.013986 102.075472,35.6853147 101.037736,34.2867133 C100,32.8881119 98.8930818,31.4895105 97.7861635,30.0909091 C96.6792453,28.6923077 95.6415094,27.5734266 94.7421384,26.5944056 L93.081761,26.5944056 L93.081761,29.8111888 C93.081761,31.6993007 93.1509434,33.5874126 93.2201258,35.4755245 C93.2893082,37.3636364 93.3584906,39.1818182 93.427673,41 C92.7358491,40.9300699 92.0440252,40.9300699 91.2830189,40.9300699 C90.5220126,40.9300699 89.8301887,40.9300699 89.1383648,41 C89.2075472,39.1818182 89.2767296,37.3636364 89.3459119,35.4755245 C89.4150943,33.5874126 89.4842767,31.6993007 89.4842767,29.8111888 L89.4842767,22.3986014 C89.3459119,20.4405594 89.2767296,18.5524476 89.2075472,16.7342657 Z M94.1886792,25.0559441 C94.672956,25.0559441 95.1572327,25.1258741 95.7798742,25.1258741 C96.6792453,25.1258741 97.5786164,25.0559441 98.5471698,24.8461538 C99.5157233,24.6363636 100.415094,24.2867133 101.176101,23.7972028 C102.006289,23.3076923 102.628931,22.6083916 103.18239,21.7692308 C103.735849,20.9300699 104.012579,19.8111888 104.012579,18.5524476 C104.012579,17.4335664 103.805031,16.4545455 103.389937,15.7552448 C102.974843,14.986014 102.421384,14.4265734 101.798742,14.006993 C101.106918,13.5874126 100.415094,13.3076923 99.6540881,13.0979021 C98.8930818,12.958042 98.1320755,12.8881119 97.3710692,12.8881119 C96.3333333,12.8881119 95.5031447,12.8881119 94.8805031,12.958042 C94.1886792,13.027972 93.6352201,13.027972 93.2201258,13.0979021 C93.1509434,14.7062937 93.081761,16.2447552 93.081761,17.8531469 C93.0125786,19.3916084 93.0125786,21 93.0125786,22.5384615 L93.0125786,25.0559441 C93.2893082,24.9160839 93.7044025,24.986014 94.1886792,25.0559441 Z" id="Shape" fill="#FFFFFF"></path>
                    <path d="M139,40.5893944 C72.1965812,-50.9756507 19,41 19,41 C19,41 73.017094,-41.5317223 139,40.5893944 L139,40.5893944 Z" id="Shape" fill="url(#linearGradient-1)"></path>
                    <path d="M44.5,37.9724771 C43.8863636,36.6651376 43.2727273,35.1513761 42.5227273,33.5 C41.7727273,31.8486239 41.0227273,29.9908257 40.2045455,28.0642202 C39.3863636,26.1376147 38.5681818,24.1422018 37.75,22.2155963 C36.9318182,20.2201835 36.1136364,18.293578 35.2954545,16.3669725 C34.4772727,14.440367 33.7954545,12.6513761 33.1136364,11 L32.2954545,11 C30.1136364,16.0917431 27.8636364,21.1834862 25.6818182,26.0688073 C23.5,31.0229358 21.25,35.9770642 19,41 C19.4772727,40.9311927 20.0227273,40.9311927 20.5681818,40.9311927 C21.1136364,40.9311927 21.6590909,40.9311927 22.1363636,41 C22.4772727,39.6926606 23.0227273,38.0412844 23.7727273,35.9770642 C24.4545455,34.0504587 25.2727273,32.0550459 26.0909091,29.9220183 L26.0909091,29.9220183 L27.1818182,27.3073394 L31.6818182,16.7110092 L36.3863636,27.5825688 L37.1363636,29.9908257 L37.1363636,29.9908257 C37.4772727,30.8165138 37.8181818,31.6422018 38.1590909,32.4678899 C38.5681818,33.5 38.9772727,34.5321101 39.3863636,35.5642202 C39.7954545,36.5963303 40.2045455,37.559633 40.5454545,38.4541284 C40.8863636,39.4174312 41.1590909,40.1743119 41.3636364,40.8623853 C41.7727273,40.793578 42.1136364,40.793578 42.5227273,40.793578 C42.8636364,40.793578 43.2727273,40.793578 43.6818182,40.793578 C44.0909091,40.793578 44.4318182,40.793578 44.8409091,40.793578 C45.1818182,40.793578 45.5909091,40.793578 46,40.8623853 C45.5227273,40.2431193 45.0454545,39.2798165 44.5,37.9724771 Z" id="Shape" fill="#FFFFFF"></path>
                    <path d="M138.5,37.9724771 C137.886364,36.6651376 137.272727,35.1513761 136.522727,33.5 C135.772727,31.8486239 135.022727,29.9908257 134.204545,28.0642202 C133.386364,26.1376147 132.568182,24.1422018 131.75,22.2155963 C130.931818,20.2201835 130.113636,18.293578 129.295455,16.3669725 C128.477273,14.440367 127.795455,12.6513761 127.113636,11 L126.295455,11 C124.113636,16.0917431 121.863636,21.1834862 119.681818,26.0688073 C117.5,31.0229358 115.25,35.9770642 113,41 C113.477273,40.9311927 114.022727,40.9311927 114.568182,40.9311927 C115.113636,40.9311927 115.659091,40.9311927 116.136364,41 C116.477273,39.6926606 117.022727,38.0412844 117.772727,35.9770642 C118.454545,34.0504587 119.272727,32.0550459 120.090909,29.9220183 L120.090909,29.9220183 L121.181818,27.3073394 L125.681818,16.7110092 L130.386364,27.5825688 L131.136364,29.9908257 L131.136364,29.9908257 C131.477273,30.8165138 131.818182,31.6422018 132.159091,32.4678899 C132.568182,33.5 132.977273,34.5321101 133.386364,35.5642202 C133.795455,36.5963303 134.204545,37.559633 134.545455,38.4541284 C134.886364,39.4174312 135.159091,40.1743119 135.363636,40.8623853 C135.772727,40.793578 136.113636,40.793578 136.522727,40.793578 C136.863636,40.793578 137.272727,40.793578 137.681818,40.793578 C138.090909,40.793578 138.431818,40.793578 138.840909,40.793578 C139.181818,40.793578 139.590909,40.793578 140,40.8623853 C139.590909,40.2431193 139.113636,39.2798165 138.5,37.9724771 Z" id="Shape" fill="#FFFFFF"></path>
                    <path d="M0.0666666667,47.7878788 C0.0666666667,47.5454545 0.0666666667,47.3030303 1.18423789e-15,47 C0.0666666667,47 0.133333333,47 0.266666667,47 C0.333333333,47 0.466666667,47 0.533333333,47 C0.666666667,47 0.866666667,47 1,47 C1.13333333,47 1.33333333,47 1.46666667,47 C1.8,47 2,47 2.2,47.0606061 C2.4,47.1212121 2.53333333,47.1818182 2.6,47.2424242 C2.73333333,47.3636364 2.86666667,47.4848485 2.93333333,47.6060606 C2.93333333,47.7272727 3,47.9090909 3,48.0909091 C3,48.3333333 2.93333333,48.5151515 2.86666667,48.6363636 C2.8,48.8181818 2.66666667,48.9393939 2.53333333,49 C2.4,49.1212121 2.2,49.1818182 2,49.2424242 C1.8,49.3030303 1.6,49.3030303 1.33333333,49.3030303 L1,49.3030303 C1,49.6060606 1,49.9090909 1,50.1515152 C1,50.4545455 1,50.7575758 1.06666667,51 C1,51 0.933333333,51 0.8,51 C0.733333333,51 0.6,51 0.533333333,51 C0.4,51 0.333333333,51 0.266666667,51 C0.2,51 0.133333333,51 0,51 C0,50.7575758 0,50.5151515 0.0666666667,50.2727273 C0.0666666667,50.030303 0.0666666667,49.7272727 0.0666666667,49.4242424 L0.0666666667,48.6363636 C0.0666666667,48.3333333 0.0666666667,48.0909091 0.0666666667,47.7878788 Z M1.93333333,47.7878788 C1.86666667,47.6666667 1.86666667,47.6060606 1.8,47.5454545 C1.73333333,47.4848485 1.66666667,47.4242424 1.6,47.4242424 C1.53333333,47.4242424 1.4,47.3636364 1.33333333,47.3636364 L1.13333333,47.3636364 C1.13333333,47.3636364 1.06666667,47.3636364 1.06666667,47.3636364 C1.06666667,47.3636364 1,47.3636364 1,47.3636364 C1,47.6666667 1,47.9090909 1,48.2121212 C1,48.4545455 1,48.7575758 1,49 C1.13333333,49 1.2,49 1.33333333,49 C1.46666667,49 1.53333333,48.9393939 1.66666667,48.8787879 C1.73333333,48.8181818 1.86666667,48.7575758 1.86666667,48.6363636 C1.93333333,48.5151515 1.93333333,48.3939394 1.93333333,48.2121212 C2,48.030303 1.93333333,47.9090909 1.93333333,47.7878788 Z" id="Shape" fill="#FFFFFF"></path>
                    <path d="M10.440678,49.0606061 C10.3050847,49.0606061 10.1016949,49.0606061 9.96610169,49.0606061 C9.83050847,49.0606061 9.62711864,49.0606061 9.49152542,49.0606061 C9.3559322,49.0606061 9.15254237,49.0606061 9.01694915,49.0606061 L9.01694915,49.4242424 C9.01694915,49.7272727 9.01694915,50.030303 9.01694915,50.2727273 C9.01694915,50.5151515 9.01694915,50.7575758 9.08474576,51 C9.01694915,51 8.94915254,51 8.81355932,51 C8.74576271,51 8.61016949,51 8.54237288,51 C8.40677966,51 8.33898305,51 8.27118644,51 C8.20338983,51 8.13559322,51 8,51 C8,50.7575758 8,50.5151515 8.06779661,50.2727273 C8.06779661,50.030303 8.06779661,49.7272727 8.06779661,49.4242424 L8.06779661,48.6363636 C8.06779661,48.3333333 8.06779661,48.030303 8.06779661,47.7878788 C8.06779661,47.5454545 8.06779661,47.3030303 8,47 C8.06779661,47 8.13559322,47 8.27118644,47 C8.33898305,47 8.47457627,47 8.54237288,47 C8.6779661,47 8.74576271,47 8.81355932,47 C8.88135593,47 8.94915254,47 9.08474576,47 C9.08474576,47.2424242 9.01694915,47.4848485 9.01694915,47.7272727 C9.01694915,47.969697 9.01694915,48.2727273 9.01694915,48.5757576 C9.15254237,48.5757576 9.28813559,48.5757576 9.42372881,48.5757576 C9.55932203,48.5757576 9.76271186,48.5757576 10.0338983,48.5757576 C10.2372881,48.5757576 10.440678,48.5757576 10.5762712,48.5757576 C10.7118644,48.5757576 10.8474576,48.5757576 10.9830508,48.5757576 C10.9830508,48.2727273 10.9830508,47.969697 10.9830508,47.7272727 C10.9830508,47.4848485 10.9830508,47.2424242 10.9152542,47 C10.9830508,47 11.0508475,47 11.1864407,47 C11.2542373,47 11.3898305,47 11.4576271,47 C11.5932203,47 11.6610169,47 11.7288136,47 C11.7966102,47 11.8644068,47 12,47 C12,47.2424242 12,47.4848485 11.9322034,47.7878788 C11.9322034,48.030303 11.9322034,48.3333333 11.9322034,48.6363636 L11.9322034,49.4242424 C11.9322034,49.7272727 11.9322034,50.030303 11.9322034,50.2727273 C11.9322034,50.5151515 11.9322034,50.7575758 12,51 C11.9322034,51 11.8644068,51 11.7288136,51 C11.6610169,51 11.5254237,51 11.4576271,51 C11.3220339,51 11.2542373,51 11.1864407,51 C11.1186441,51 11.0508475,51 10.9152542,51 C10.9152542,50.7575758 10.9152542,50.5151515 10.9830508,50.2727273 C10.9830508,50.030303 10.9830508,49.7272727 10.9830508,49.4242424 L10.9830508,49.0606061 C10.779661,49.0606061 10.5762712,49.0606061 10.440678,49.0606061 Z" id="Shape" fill="#FFFFFF"></path>
                    <path d="M19,51 C18.8666667,51 18.8,51 18.7333333,51 C18.6666667,51 18.5333333,51 18.4666667,51 C18.4,51 18.2666667,51 18.2,51 C18.1333333,51 18,51 17.9333333,51 C17.8666667,50.8208955 17.8,50.641791 17.7333333,50.4029851 C17.6666667,50.2238806 17.6,49.9850746 17.5333333,49.8059701 C17.4,49.8059701 17.2666667,49.8059701 17.1333333,49.8059701 C17,49.8059701 16.8666667,49.8059701 16.7333333,49.8059701 C16.6,49.8059701 16.5333333,49.8059701 16.4,49.8059701 C16.2666667,49.8059701 16.2,49.8059701 16.0666667,49.8059701 C16,49.9850746 15.9333333,50.2238806 15.8,50.4029851 C15.7333333,50.5820896 15.6666667,50.761194 15.6,51 C15.5333333,51 15.4666667,51 15.4666667,51 C15.4,51 15.4,51 15.3333333,51 C15.2666667,51 15.2,51 15.2,51 C15.1333333,51 15.0666667,51 15,51 C15.0666667,50.880597 15.1333333,50.761194 15.2,50.5820896 C15.2666667,50.4029851 15.4,50.2238806 15.4666667,49.9850746 C15.6,49.7462687 15.6666667,49.5074627 15.8,49.2686567 C15.9333333,49.0298507 16.0666667,48.7313433 16.1333333,48.4925373 C16.2666667,48.2537313 16.3333333,47.9552239 16.4666667,47.7164179 C16.6,47.4776119 16.6666667,47.238806 16.8,47 C16.8666667,47 16.8666667,47 16.9333333,47 C17,47 17,47 17.0666667,47 C17.1333333,47 17.1333333,47 17.2,47 C17.2666667,47 17.2666667,47 17.3333333,47 C17.4666667,47.2985075 17.6,47.6567164 17.8,48.0746269 C17.9333333,48.4328358 18.1333333,48.7910448 18.2666667,49.1492537 C18.4,49.5074627 18.6,49.8656716 18.7333333,50.1641791 C18.7333333,50.5223881 18.8666667,50.761194 19,51 Z M16.6666667,48.1343284 C16.5333333,48.3731343 16.4666667,48.6119403 16.3333333,48.7910448 C16.2666667,49.0298507 16.1333333,49.2686567 16.0666667,49.5074627 L17.2666667,49.5074627 C17.2,49.2686567 17.0666667,49.0298507 17,48.7910448 C16.8666667,48.6119403 16.8,48.3731343 16.6666667,48.1343284 Z" id="Shape" fill="#FFFFFF"></path>
                    <path d="M24.8823529,49.1818182 L24.8823529,49.4242424 C24.8823529,49.7272727 24.8823529,50.030303 24.8823529,50.2727273 C24.8823529,50.5151515 24.8823529,50.7575758 24.9411765,51 C24.8823529,51 24.8235294,51 24.7058824,51 C24.6470588,51 24.5294118,51 24.4705882,51 C24.3529412,51 24.2941176,51 24.2352941,51 C24.1764706,51 24.1176471,51 24,51 C24,50.7575758 24,50.5151515 24.0588235,50.2727273 C24.0588235,50.030303 24.0588235,49.7272727 24.0588235,49.4242424 L24.0588235,48.6363636 C24.0588235,48.3333333 24.0588235,48.030303 24.0588235,47.7878788 C24.0588235,47.5454545 24.0588235,47.3030303 24,47 C24.0588235,47 24.1176471,47 24.2352941,47 C24.2941176,47 24.4117647,47 24.4705882,47 C24.5882353,47 24.7058824,47 24.8235294,47 C24.9411765,47 25.1176471,47 25.2941176,47 C25.4117647,47 25.5882353,47 25.6470588,47 C25.7647059,47 25.8235294,47 25.8823529,47.0606061 C25.9411765,47.0606061 26,47.1212121 26.0588235,47.1212121 C26.1176471,47.1212121 26.1764706,47.1818182 26.2352941,47.1818182 C26.3529412,47.2424242 26.4117647,47.3636364 26.5294118,47.4848485 C26.5882353,47.6060606 26.6470588,47.7878788 26.6470588,47.9090909 C26.6470588,48.2121212 26.5882353,48.4545455 26.4117647,48.5757576 C26.2352941,48.7575758 26.0588235,48.8787879 25.7647059,48.9393939 C25.9411765,49.2424242 26.1176471,49.6060606 26.3529412,49.9090909 C26.5882353,50.2121212 26.7647059,50.5757576 27,50.8787879 C26.9411765,50.8787879 26.8235294,50.8787879 26.7647059,50.8787879 C26.7058824,50.8787879 26.5882353,50.8787879 26.5294118,50.8787879 C26.4705882,50.8787879 26.3529412,50.8787879 26.2941176,50.8787879 C26.2352941,50.8787879 26.1176471,50.8787879 26.0588235,50.8787879 L24.8823529,49.1818182 L24.8823529,49.1818182 Z M25.7058824,47.6666667 C25.6470588,47.5454545 25.6470588,47.4848485 25.5294118,47.4242424 C25.4705882,47.3636364 25.3529412,47.3636364 25.2352941,47.3030303 C25.1176471,47.3030303 25,47.3030303 24.8235294,47.3030303 C24.8235294,47.8484848 24.8235294,48.3939394 24.8235294,48.8787879 C24.8235294,48.8787879 24.8823529,48.8787879 24.8823529,48.8787879 C24.8823529,48.8787879 24.9411765,48.8787879 24.9411765,48.8787879 C25.1764706,48.8787879 25.3529412,48.8181818 25.5294118,48.6969697 C25.6470588,48.5757576 25.7058824,48.3333333 25.7058824,48.0909091 C25.7647059,47.9090909 25.7647059,47.7878788 25.7058824,47.6666667 Z" id="Shape" fill="#FFFFFF"></path>
                    <path d="M31.6410256,49.6268657 C31.5769231,50.0447761 31.5769231,50.4626866 31.5128205,50.9402985 C31.4487179,50.9402985 31.3846154,50.9402985 31.3846154,50.9402985 C31.3205128,50.9402985 31.2564103,50.9402985 31.2564103,50.9402985 C31.1923077,50.9402985 31.1282051,50.9402985 31.1282051,50.9402985 C31.0641026,50.9402985 31.0641026,50.9402985 31,50.9402985 C31.1282051,50.2835821 31.2564103,49.6268657 31.3205128,48.9701493 C31.4487179,48.3134328 31.5128205,47.6567164 31.5769231,47 C31.6410256,47 31.6410256,47 31.7051282,47 C31.7692308,47 31.7692308,47 31.8333333,47 C31.8974359,47 31.8974359,47 31.9615385,47 C32.025641,47 32.025641,47 32.0897436,47 C32.2179487,47.238806 32.3461538,47.4776119 32.4102564,47.7164179 C32.5384615,47.9552239 32.6666667,48.1940299 32.7948718,48.4328358 C32.9230769,48.6716418 33.0512821,48.9104478 33.1794872,49.1492537 C33.3076923,49.3880597 33.4358974,49.5671642 33.5,49.8059701 C33.7564103,49.3880597 34.0128205,48.9104478 34.2692308,48.4328358 C34.525641,47.9552239 34.7179487,47.4776119 34.974359,47 C35.1025641,47 35.1666667,47 35.2307692,47 C35.2948718,47 35.3589744,47 35.4871795,47 C35.5512821,47.358209 35.5512821,47.6567164 35.6153846,48.0746269 C35.6794872,48.4328358 35.6794872,48.8507463 35.7435897,49.2089552 C35.8076923,49.5671642 35.8076923,49.9253731 35.8717949,50.2238806 C35.9358974,50.5223881 35.9358974,50.8208955 36,51 C35.9358974,51 35.8076923,51 35.7435897,51 C35.6794872,51 35.5512821,51 35.4871795,51 C35.4230769,51 35.2948718,51 35.2307692,51 C35.1666667,51 35.0384615,51 34.974359,51 C34.974359,50.5820896 34.9102564,50.1641791 34.8461538,49.6865672 C34.7820513,49.2089552 34.7820513,48.7910448 34.7179487,48.3134328 L34.7179487,48.3134328 C34.4615385,48.7910448 34.2692308,49.2089552 34.0128205,49.6268657 C33.7564103,50.0447761 33.5641026,50.5223881 33.3076923,50.9402985 C33.3076923,50.9402985 33.2435897,50.9402985 33.2435897,50.9402985 C33.2435897,50.9402985 33.1794872,50.9402985 33.1794872,50.9402985 C33.1794872,50.9402985 33.1153846,50.9402985 33.1153846,50.9402985 C33.1153846,50.9402985 33.0512821,50.9402985 33.0512821,50.9402985 C32.8589744,50.5223881 32.6025641,50.1044776 32.4102564,49.6268657 C32.2179487,49.2089552 31.9615385,48.7313433 31.7051282,48.3134328 L31.7051282,48.3134328 C31.7692308,48.7313433 31.7051282,49.1492537 31.6410256,49.6268657 Z" id="Shape" fill="#FFFFFF"></path>
                    <path d="M44,51 C43.8666667,51 43.8,51 43.7333333,51 C43.6666667,51 43.5333333,51 43.4666667,51 C43.4,51 43.2666667,51 43.2,51 C43.1333333,51 43,51 42.9333333,51 C42.8666667,50.8208955 42.8,50.641791 42.7333333,50.4029851 C42.6666667,50.2238806 42.6,49.9850746 42.5333333,49.8059701 C42.4,49.8059701 42.2666667,49.8059701 42.1333333,49.8059701 C42,49.8059701 41.8666667,49.8059701 41.7333333,49.8059701 C41.6,49.8059701 41.5333333,49.8059701 41.4,49.8059701 C41.2666667,49.8059701 41.2,49.8059701 41.0666667,49.8059701 C41,49.9850746 40.9333333,50.2238806 40.8,50.4029851 C40.7333333,50.5820896 40.6666667,50.761194 40.6,51 C40.5333333,51 40.4666667,51 40.4666667,51 C40.4,51 40.3333333,51 40.3333333,51 C40.3333333,51 40.2,51 40.2,51 C40.1333333,51 40.0666667,51 40,51 C40.0666667,50.880597 40.1333333,50.761194 40.2,50.5820896 C40.2666667,50.4029851 40.4,50.2238806 40.4666667,49.9850746 C40.6,49.7462687 40.6666667,49.5074627 40.8,49.2686567 C40.9333333,49.0298507 41.0666667,48.7313433 41.1333333,48.4925373 C41.2666667,48.2537313 41.4,47.9552239 41.4666667,47.7164179 C41.6,47.4776119 41.6666667,47.238806 41.8,47 C41.8666667,47 41.8666667,47 41.9333333,47 C42,47 42,47 42.0666667,47 C42.1333333,47 42.1333333,47 42.2,47 C42.2666667,47 42.2666667,47 42.3333333,47 C42.4666667,47.2985075 42.6,47.6567164 42.8,48.0746269 C42.9333333,48.4328358 43.1333333,48.7910448 43.2666667,49.1492537 C43.4,49.5074627 43.6,49.8656716 43.7333333,50.1641791 C43.7333333,50.5223881 43.8666667,50.761194 44,51 Z M41.6666667,48.1343284 C41.5333333,48.3731343 41.4666667,48.6119403 41.3333333,48.7910448 C41.2666667,49.0298507 41.1333333,49.2686567 41.0666667,49.5074627 L42.2666667,49.5074627 C42.2,49.2686567 42.0666667,49.0298507 42,48.7910448 C41.8666667,48.6119403 41.8,48.3731343 41.6666667,48.1343284 Z" id="Shape" fill="#FFFFFF"></path>
                    <path d="M51.9298246,50.5294118 C51.9298246,50.5882353 51.8596491,50.7058824 51.8596491,50.7647059 C51.5087719,50.9411765 51.0175439,51 50.4561404,51 C50.0350877,51 49.6842105,50.9411765 49.4035088,50.8823529 C49.122807,50.7647059 48.8421053,50.6470588 48.6315789,50.4705882 C48.4210526,50.2941176 48.2807018,50.1176471 48.1403509,49.8823529 C48,49.6470588 48,49.4117647 48,49.1176471 C48,48.7058824 48.0701754,48.4117647 48.2105263,48.1176471 C48.3508772,47.8235294 48.5614035,47.6470588 48.7719298,47.4705882 C49.0526316,47.2941176 49.3333333,47.1764706 49.6140351,47.1176471 C49.9649123,47.0588235 50.245614,47 50.6666667,47 C50.8070175,47 50.877193,47 51.0175439,47 C51.1578947,47 51.2982456,47.0588235 51.3684211,47.0588235 C51.5087719,47.0588235 51.5789474,47.1176471 51.7192982,47.1764706 C51.8596491,47.2352941 51.9298246,47.2352941 52,47.2941176 C51.9298246,47.4117647 51.9298246,47.4705882 51.9298246,47.5882353 C51.9298246,47.7058824 51.8596491,47.7647059 51.8596491,47.8823529 L51.7894737,47.8823529 C51.6491228,47.7058824 51.4385965,47.5882353 51.2280702,47.4705882 C51.0175439,47.4117647 50.8070175,47.3529412 50.5964912,47.3529412 C50.3859649,47.3529412 50.245614,47.4117647 50.0350877,47.4705882 C49.8245614,47.5294118 49.6842105,47.6470588 49.5438596,47.7647059 C49.4035088,47.8823529 49.2631579,48.0588235 49.1929825,48.2941176 C49.122807,48.5294118 49.0526316,48.7647059 49.0526316,49.0588235 C49.0526316,49.3529412 49.122807,49.5882353 49.1929825,49.8235294 C49.2631579,50.0588235 49.4035088,50.1764706 49.5438596,50.3529412 C49.6842105,50.4705882 49.8947368,50.5882353 50.0350877,50.6470588 C50.245614,50.7058824 50.3859649,50.7647059 50.5964912,50.7647059 C50.7368421,50.7647059 50.8070175,50.7647059 50.9473684,50.7058824 C51.0877193,50.7058824 51.1578947,50.6470588 51.2982456,50.6470588 C51.4385965,50.5882353 51.5087719,50.5882353 51.5789474,50.5294118 C51.6491228,50.4705882 51.7894737,50.4117647 51.8596491,50.3529412 L51.9298246,50.4117647 C52,50.4117647 51.9298246,50.4705882 51.9298246,50.5294118 Z" id="Shape" fill="#FFFFFF"></path>
                    <path d="M55.0789474,47.7647059 C55.0789474,47.5294118 55.0789474,47.2941176 55,47 C55.2368421,47 55.4736842,47 55.7105263,47 C55.9473684,47 56.1842105,47 56.4210526,47 C56.8157895,47 57.1315789,47 57.4473684,47 C57.7631579,47 57.9210526,47 58,47 C58,47.0588235 58,47.1176471 58,47.2352941 C58,47.2941176 58,47.3529412 58,47.3529412 C58,47.4117647 58,47.4117647 58,47.4705882 C57.8421053,47.4705882 57.6842105,47.4705882 57.5263158,47.4705882 C57.3684211,47.4705882 57.2105263,47.4705882 57.0526316,47.4705882 C56.8947368,47.4705882 56.7368421,47.4705882 56.5789474,47.4705882 C56.4210526,47.4705882 56.3421053,47.4705882 56.2631579,47.4705882 C56.2631579,47.7058824 56.2631579,47.8823529 56.2631579,48.1176471 C56.2631579,48.2941176 56.2631579,48.5294118 56.2631579,48.7647059 C56.5789474,48.7647059 56.8947368,48.7647059 57.1315789,48.7647059 C57.3684211,48.7647059 57.6842105,48.7647059 58,48.7647059 C58,48.8235294 58,48.8823529 58,48.9411765 C58,49 58,49 58,49.0588235 C58,49.1176471 58,49.1176471 58,49.1764706 C58,49.2352941 58,49.2352941 58,49.2941176 C57.4473684,49.2352941 56.8157895,49.2352941 56.2631579,49.2352941 C56.2631579,49.3529412 56.2631579,49.4705882 56.2631579,49.5882353 C56.2631579,49.7058824 56.2631579,49.8235294 56.2631579,49.9411765 C56.2631579,50.1764706 56.2631579,50.4117647 56.2631579,50.6470588 C56.5789474,50.6470588 56.8157895,50.6470588 57.1315789,50.6470588 C57.4473684,50.6470588 57.6842105,50.5882353 58,50.5882353 C58,50.6470588 58,50.6470588 58,50.7058824 C58,50.7647059 58,50.7647059 58,50.8235294 C58,50.8823529 58,50.9411765 58,50.9411765 C58,51 58,51 58,51 C57.8421053,51 57.6842105,51 57.5263158,51 C57.2894737,51 57.0526316,51 56.7368421,51 C56.4210526,51 56.1842105,51 55.9473684,51 C55.7894737,51 55.6315789,51 55.4736842,51 C55.3947368,51 55.2368421,51 55.2368421,51 C55.1578947,51 55.1578947,51 55.0789474,51 C55.0789474,50.7647059 55.0789474,50.5294118 55.1578947,50.2941176 C55.1578947,50.0588235 55.1578947,49.7647059 55.1578947,49.4705882 L55.1578947,48.7058824 C55.1578947,48.2941176 55.1578947,48.0588235 55.0789474,47.7647059 Z" id="Shape" fill="#FFFFFF"></path>
                    <path d="M63.1929825,50.9557196 C62.9122807,50.896679 62.7017544,50.8376384 62.5614035,50.7195572 C62.3508772,50.601476 62.2105263,50.4243542 62.1403509,50.2472325 C62,50.0701107 62,49.8339483 62,49.5387454 C62,49.3616236 62,49.2435424 62,49.1254613 C62,49.0073801 62,48.8892989 62,48.7712177 C62,48.6531365 62,48.5940959 62,48.4760148 C62,48.3579336 62,48.298893 62,48.1808118 C62,47.8856089 62,47.6494465 62,47.4132841 C62,47.2361624 62,47.0590406 62,47 C62.0701754,47 62.2105263,47 62.2807018,47 C62.3508772,47 62.4912281,47 62.5614035,47 C62.6315789,47 62.7719298,47 62.8421053,47 C62.9122807,47 63.0526316,47 63.122807,47 C62.9824561,47.4132841 62.9824561,47.7675277 62.9824561,48.0627306 C62.9824561,48.3579336 62.9824561,48.7121771 62.9824561,49.0073801 C62.9824561,49.3616236 62.9824561,49.6568266 63.0526316,49.8339483 C63.122807,50.0701107 63.1929825,50.1881919 63.3333333,50.3062731 C63.4736842,50.4243542 63.6140351,50.4833948 63.754386,50.5424354 C63.8947368,50.601476 64.1052632,50.601476 64.3157895,50.601476 C64.5964912,50.601476 64.8070175,50.5424354 64.9473684,50.4243542 C65.0877193,50.3062731 65.2280702,50.1291513 65.2982456,49.9520295 C65.3684211,49.7749077 65.4385965,49.5387454 65.4385965,49.302583 C65.4385965,49.0664207 65.4385965,48.8302583 65.4385965,48.5350554 C65.4385965,48.298893 65.4385965,48.00369 65.4385965,47.7675277 C65.4385965,47.5313653 65.4385965,47.2361624 65.3684211,47 C65.4385965,47 65.5087719,47 65.5789474,47 C65.6491228,47 65.7192982,47 65.7192982,47 C65.7894737,47 65.8596491,47 65.8596491,47 C65.9298246,47 66,47 66,47 C66,47.0590406 66,47.1771218 66,47.3542435 C66,47.4723247 66,47.6494465 66,47.8265683 C66,48.00369 66,48.2398524 66,48.4169742 C66,48.6531365 66,48.8892989 66,49.1254613 C66,49.7749077 65.8596491,50.2472325 65.5087719,50.5424354 C65.1578947,50.8376384 64.6666667,50.9557196 64.0350877,50.9557196 C63.6842105,51.0147601 63.4736842,51.0147601 63.1929825,50.9557196 Z" id="Shape" fill="#FFFFFF"></path>
                    <path d="M71.14,47.6153846 C71.14,47.4923077 71.14,47.4307692 71.14,47.4307692 C71.08,47.4307692 71.02,47.4307692 70.9,47.4307692 C70.84,47.4307692 70.72,47.4307692 70.6,47.4307692 C70.48,47.4307692 70.42,47.4307692 70.3,47.4307692 C70.18,47.4307692 70.12,47.4307692 70,47.4923077 C70,47.4307692 70,47.4307692 70,47.3692308 C70,47.3076923 70,47.3076923 70,47.2461538 C70,47.1846154 70,47.1846154 70,47.1230769 C70,47.0615385 70,47.0615385 70,47 C70.12,47 70.24,47 70.36,47 C70.48,47 70.6,47 70.66,47 C70.78,47 70.9,47 71.02,47 C71.14,47 71.32,47 71.5,47 C71.68,47 71.86,47 71.98,47 C72.1,47 72.22,47 72.34,47 C72.46,47 72.58,47 72.64,47 C72.76,47 72.88,47 73,47 C73,47.0615385 73,47.0615385 73,47.1230769 C73,47.1846154 73,47.1846154 73,47.2461538 C73,47.3076923 73,47.3076923 73,47.3692308 C73,47.4307692 73,47.4307692 73,47.4923077 C72.94,47.4923077 72.82,47.4923077 72.76,47.4307692 C72.64,47.4307692 72.58,47.4307692 72.46,47.4307692 C72.34,47.4307692 72.28,47.4307692 72.22,47.4307692 C72.16,47.4307692 72.04,47.4307692 71.98,47.4307692 C71.98,47.4307692 71.98,47.4923077 71.98,47.4923077 C71.98,47.5538462 71.98,47.5538462 71.98,47.6153846 L71.98,47.9230769 L71.98,49.4 C71.98,49.7076923 71.98,50.0153846 71.98,50.2615385 C71.98,50.5076923 71.98,50.7538462 72.04,51 C71.98,51 71.92,51 71.8,51 C71.74,51 71.62,51 71.56,51 C71.44,51 71.38,51 71.32,51 C71.26,51 71.2,51 71.08,51 C71.08,50.7538462 71.08,50.5076923 71.14,50.2615385 C71.14,50.0153846 71.14,49.7076923 71.14,49.4 L71.14,47.9230769 C71.14,47.8615385 71.14,47.7384615 71.14,47.6153846 Z" id="Shape" fill="#FFFFFF"></path>
                    <path d="M78.0625,47.7878788 C78.0625,47.5454545 78.0625,47.3030303 78,47 C78.0625,47 78.125,47 78.25,47 C78.3125,47 78.4375,47 78.5,47 C78.625,47 78.6875,47 78.75,47 C78.8125,47 78.875,47 79,47 C79,47.2424242 79,47.4848485 78.9375,47.7878788 C78.9375,48.030303 78.9375,48.3333333 78.9375,48.6363636 L78.9375,49.4242424 C78.9375,49.7272727 78.9375,50.030303 78.9375,50.2727273 C78.9375,50.5151515 78.9375,50.7575758 79,51 C78.9375,51 78.875,51 78.75,51 C78.6875,51 78.5625,51 78.5,51 C78.375,51 78.3125,51 78.25,51 C78.1875,51 78.125,51 78,51 C78,50.7575758 78,50.5151515 78.0625,50.2727273 C78.0625,50.030303 78.0625,49.7272727 78.0625,49.4242424 L78.0625,48.6363636 C78.0625,48.3333333 78.0625,48.0909091 78.0625,47.7878788 Z" id="Shape" fill="#FFFFFF"></path>
                    <path d="M86.9298246,50.5294118 C86.9298246,50.5882353 86.8596491,50.7058824 86.8596491,50.7647059 C86.5087719,50.9411765 86.0175439,51 85.4561404,51 C85.0350877,51 84.6842105,50.9411765 84.4035088,50.8823529 C84.122807,50.7647059 83.8421053,50.6470588 83.6315789,50.4705882 C83.4210526,50.2941176 83.2807018,50.1176471 83.1403509,49.8823529 C83,49.6470588 83,49.4117647 83,49.1176471 C83,48.7058824 83.0701754,48.4117647 83.2105263,48.1176471 C83.3508772,47.8235294 83.5614035,47.6470588 83.7719298,47.4705882 C84.0526316,47.2941176 84.3333333,47.1764706 84.6140351,47.1176471 C84.9649123,47.0588235 85.245614,47 85.6666667,47 C85.8070175,47 85.877193,47 86.0175439,47 C86.1578947,47 86.2982456,47.0588235 86.3684211,47.0588235 C86.5087719,47.0588235 86.5789474,47.1176471 86.7192982,47.1764706 C86.8596491,47.2352941 86.9298246,47.2352941 87,47.2941176 C86.9298246,47.4117647 86.9298246,47.4705882 86.8596491,47.5882353 C86.8596491,47.7058824 86.7894737,47.7647059 86.7894737,47.8823529 L86.7894737,47.8823529 C86.6491228,47.7058824 86.4385965,47.5882353 86.2280702,47.4705882 C86.0175439,47.4117647 85.8070175,47.3529412 85.5964912,47.3529412 C85.3859649,47.3529412 85.245614,47.4117647 85.0350877,47.4705882 C84.8245614,47.5294118 84.6842105,47.6470588 84.5438596,47.7647059 C84.4035088,47.8823529 84.2631579,48.0588235 84.1929825,48.2941176 C84.122807,48.5294118 84.0526316,48.7647059 84.0526316,49.0588235 C84.0526316,49.3529412 84.122807,49.5882353 84.1929825,49.8235294 C84.2631579,50.0588235 84.4035088,50.1764706 84.5438596,50.3529412 C84.6842105,50.4705882 84.8947368,50.5882353 85.0350877,50.6470588 C85.245614,50.7058824 85.3859649,50.7647059 85.5964912,50.7647059 C85.7368421,50.7647059 85.8070175,50.7647059 85.9473684,50.7058824 C86.0877193,50.7058824 86.1578947,50.6470588 86.2982456,50.6470588 C86.4385965,50.5882353 86.5087719,50.5882353 86.5789474,50.5294118 C86.6491228,50.4705882 86.7894737,50.4117647 86.8596491,50.3529412 L86.9298246,50.4117647 C87,50.4117647 86.9298246,50.4705882 86.9298246,50.5294118 Z" id="Shape" fill="#FFFFFF"></path>
                    <path d="M94,51 C93.8666667,51 93.8,51 93.7333333,51 C93.6666667,51 93.5333333,51 93.4666667,51 C93.4,51 93.2666667,51 93.2,51 C93.1333333,51 93,51 92.9333333,51 C92.8666667,50.8208955 92.8,50.641791 92.7333333,50.4029851 C92.6666667,50.2238806 92.6,49.9850746 92.5333333,49.8059701 C92.4,49.8059701 92.2666667,49.8059701 92.1333333,49.8059701 C92,49.8059701 91.8666667,49.8059701 91.7333333,49.8059701 C91.6,49.8059701 91.5333333,49.8059701 91.4,49.8059701 C91.2666667,49.8059701 91.2,49.8059701 91.0666667,49.8059701 C91,49.9850746 90.9333333,50.2238806 90.8,50.4029851 C90.7333333,50.5820896 90.6666667,50.761194 90.6,51 C90.5333333,51 90.4666667,51 90.4666667,51 C90.4,51 90.3333333,51 90.3333333,51 C90.2666667,51 90.2,51 90.2,51 C90.1333333,51 90.0666667,51 90,51 C90.0666667,50.880597 90.1333333,50.761194 90.2,50.5820896 C90.2666667,50.4029851 90.4,50.2238806 90.4666667,49.9850746 C90.6,49.7462687 90.6666667,49.5074627 90.8,49.2686567 C90.9333333,49.0298507 91.0666667,48.7313433 91.1333333,48.4925373 C91.2666667,48.2537313 91.4,47.9552239 91.4666667,47.7164179 C91.6,47.4776119 91.6666667,47.238806 91.8,47 C91.8666667,47 91.8666667,47 91.9333333,47 C92,47 92,47 92.0666667,47 C92.1333333,47 92.1333333,47 92.2,47 C92.2666667,47 92.2666667,47 92.3333333,47 C92.4666667,47.2985075 92.6,47.6567164 92.8,48.0746269 C92.9333333,48.4328358 93.1333333,48.7910448 93.2666667,49.1492537 C93.4,49.5074627 93.6,49.8656716 93.7333333,50.1641791 C93.7333333,50.5223881 93.8666667,50.761194 94,51 Z M91.7333333,48.1343284 C91.6,48.3731343 91.5333333,48.6119403 91.4,48.7910448 C91.3333333,49.0298507 91.2,49.2686567 91.1333333,49.5074627 L92.3333333,49.5074627 C92.2666667,49.2686567 92.1333333,49.0298507 92.0666667,48.7910448 C91.9333333,48.6119403 91.8,48.3731343 91.7333333,48.1343284 Z" id="Shape" fill="#FFFFFF"></path>
                    <path d="M98.0810811,47.7878788 C98.0810811,47.5454545 98.0810811,47.3030303 98,47 C98.0810811,47 98.1621622,47 98.3243243,47 C98.4054054,47 98.5675676,47 98.6486486,47 C98.8108108,47 98.8918919,47 98.972973,47 C99.0540541,47 99.1351351,47 99.2972973,47 C99.2972973,47.2424242 99.2972973,47.4848485 99.2162162,47.7878788 C99.2162162,48.030303 99.2162162,48.3333333 99.2162162,48.6363636 L99.2162162,49.4242424 C99.2162162,49.6666667 99.2162162,49.8484848 99.2162162,50.0909091 C99.2162162,50.2727273 99.2162162,50.4545455 99.2162162,50.6363636 C99.5405405,50.6363636 99.7837838,50.6363636 100.108108,50.6363636 C100.432432,50.6363636 100.675676,50.5757576 101,50.5757576 C101,50.6363636 101,50.6363636 101,50.6969697 C101,50.7575758 101,50.7575758 101,50.8181818 C101,50.8787879 101,50.9393939 101,50.9393939 C101,51 101,51 101,51 C100.837838,51 100.675676,51 100.513514,51 C100.27027,51 100.027027,51 99.7027027,51 C99.3783784,51 99.1351351,51 98.8918919,51 C98.7297297,51 98.5675676,51 98.4054054,51 C98.3243243,51 98.1621622,51 98.1621622,51 C98.0810811,51 98.0810811,51 98,51 C98,50.7575758 98,50.5151515 98.0810811,50.2727273 C98.0810811,50.030303 98.0810811,49.7272727 98.0810811,49.4242424 L98.0810811,48.6363636 C98.0810811,48.3333333 98.0810811,48.0909091 98.0810811,47.7878788 Z" id="Shape" fill="#FFFFFF"></path>
                    <path d="M105.65,47.2352941 C105.425,47.2352941 105.275,47.2941176 105.125,47.4117647 C104.975,47.5294118 104.9,47.6470588 104.9,47.7647059 C104.9,47.8823529 104.975,48 105.05,48.1176471 C105.125,48.2352941 105.275,48.2941176 105.425,48.3529412 C105.575,48.4117647 105.8,48.4705882 105.95,48.5882353 C106.175,48.6470588 106.325,48.7647059 106.475,48.8235294 C106.625,48.9411765 106.775,49.0588235 106.85,49.1764706 C106.925,49.2941176 107,49.4705882 107,49.7058824 C107,49.8823529 106.925,50.0588235 106.85,50.2352941 C106.775,50.4117647 106.625,50.5294118 106.475,50.6470588 C106.325,50.7647059 106.1,50.8235294 105.875,50.8823529 C105.65,50.9411765 105.35,51 105.125,51 C104.9,51 104.6,51 104.45,50.9411765 C104.225,50.8823529 104.075,50.8235294 104,50.7647059 C104.075,50.6470588 104.075,50.5294118 104.15,50.4117647 C104.15,50.2941176 104.225,50.1764706 104.225,50.0588235 L104.375,50.0588235 C104.375,50.1176471 104.45,50.2352941 104.45,50.2941176 C104.525,50.3529412 104.6,50.4117647 104.675,50.4705882 C104.75,50.5294118 104.825,50.5882353 104.975,50.5882353 C105.125,50.6470588 105.2,50.6470588 105.35,50.6470588 C105.65,50.6470588 105.875,50.5882353 106.025,50.4705882 C106.175,50.3529412 106.25,50.2352941 106.25,50.0588235 C106.25,49.9411765 106.175,49.8235294 106.1,49.7058824 C106.025,49.5882353 105.875,49.5294118 105.725,49.4705882 C105.575,49.4117647 105.425,49.3529412 105.2,49.2941176 C104.975,49.2352941 104.825,49.1764706 104.675,49.0588235 C104.525,48.9411765 104.375,48.8235294 104.3,48.7058824 C104.225,48.5882353 104.15,48.4117647 104.15,48.1764706 C104.15,48 104.225,47.8235294 104.3,47.6470588 C104.375,47.4705882 104.525,47.3529412 104.675,47.2941176 C104.825,47.1764706 104.975,47.1176471 105.2,47.0588235 C105.425,47 105.575,47 105.8,47 C106.025,47 106.325,47 106.475,47.0588235 C106.7,47.1176471 106.85,47.1764706 107,47.2352941 C106.925,47.2941176 106.925,47.4117647 106.85,47.4705882 C106.85,47.5294118 106.775,47.6470588 106.7,47.7647059 L106.625,47.7647059 C106.4,47.3529412 106.1,47.2352941 105.65,47.2352941 Z" id="Shape" fill="#FFFFFF"></path>
                    <path d="M109.315789,51.3636364 C109.421053,51 109.526316,50.7272727 109.631579,50.4545455 C109.736842,50.2727273 109.842105,50.0909091 109.947368,50.0909091 C110.052632,50 110.157895,50 110.263158,50 C110.368421,50 110.473684,50 110.473684,50 C110.578947,50 110.684211,50.0909091 110.684211,50.0909091 C110.789474,50.0909091 110.789474,50.1818182 110.894737,50.2727273 C110.894737,50.3636364 111,50.4545455 111,50.5454545 C111,50.6363636 111,50.6363636 111,50.7272727 C111,50.8181818 110.894737,50.9090909 110.789474,51.0909091 C110.684211,51.2727273 110.473684,51.4545455 110.263158,51.8181818 C110.052632,52.0909091 109.631579,52.5454545 109.210526,53 L109,52.9090909 C109.105263,52.1818182 109.210526,51.7272727 109.315789,51.3636364 Z" id="Shape" fill="#FFFFFF"></path>
                    <path d="M119.0625,47.7878788 C119.0625,47.5454545 119.0625,47.3030303 119,47 C119.0625,47 119.125,47 119.25,47 C119.3125,47 119.4375,47 119.5,47 C119.625,47 119.6875,47 119.75,47 C119.8125,47 119.875,47 120,47 C120,47.2424242 120,47.4848485 119.9375,47.7878788 C119.9375,48.030303 119.9375,48.3333333 119.9375,48.6363636 L119.9375,49.4242424 C119.9375,49.7272727 119.9375,50.030303 119.9375,50.2727273 C119.9375,50.5151515 119.9375,50.7575758 120,51 C119.9375,51 119.875,51 119.75,51 C119.6875,51 119.5625,51 119.5,51 C119.375,51 119.3125,51 119.25,51 C119.1875,51 119.125,51 119,51 C119,50.7575758 119,50.5151515 119.0625,50.2727273 C119.0625,50.030303 119.0625,49.7272727 119.0625,49.4242424 L119.0625,48.6363636 C119.0625,48.3333333 119.0625,48.0909091 119.0625,47.7878788 Z" id="Shape" fill="#FFFFFF"></path>
                    <path d="M124.067797,47.4705882 C124.067797,47.2941176 124.067797,47.1176471 124.067797,47 C124.20339,47 124.271186,47 124.338983,47 C124.40678,47 124.542373,47 124.610169,47 C125.084746,47.4705882 125.559322,47.8823529 126.033898,48.3529412 C126.508475,48.8235294 126.983051,49.2352941 127.457627,49.7058824 L127.457627,49.2352941 L127.457627,48.7058824 C127.457627,48.5294118 127.457627,48.3529412 127.457627,48.1764706 C127.457627,48 127.457627,47.8235294 127.457627,47.7058824 C127.457627,47.5294118 127.457627,47.4117647 127.457627,47.2941176 C127.457627,47.1764706 127.457627,47.1176471 127.457627,47.0588235 C127.59322,47.0588235 127.661017,47.0588235 127.728814,47.0588235 C127.79661,47.0588235 127.932203,47.0588235 128,47.0588235 C128,47.4117647 127.932203,47.7058824 127.932203,48 C127.932203,48.2941176 127.932203,48.5294118 127.932203,48.7647059 C127.932203,49 127.932203,49.2352941 127.932203,49.4705882 C127.932203,49.7058824 127.932203,49.9411765 127.932203,50.2352941 L127.932203,50.9411765 C127.864407,50.9411765 127.728814,50.9411765 127.661017,50.9411765 C127.59322,50.9411765 127.457627,50.9411765 127.389831,50.9411765 C126.508475,50.0588235 125.559322,49.1176471 124.542373,48.1764706 C124.542373,48.2941176 124.542373,48.4117647 124.542373,48.5294118 C124.542373,48.6470588 124.542373,48.7647059 124.542373,48.8823529 L124.542373,49.5294118 C124.542373,49.7647059 124.542373,49.9411765 124.542373,50.1176471 C124.542373,50.2941176 124.542373,50.4117647 124.542373,50.5294118 C124.542373,50.6470588 124.542373,50.7058824 124.542373,50.8235294 C124.542373,50.8823529 124.542373,50.9411765 124.542373,51 C124.474576,51 124.40678,51 124.40678,51 C124.338983,51 124.271186,51 124.271186,51 C124.20339,51 124.067797,51 124,51 C124,50.9411765 124,50.8823529 124,50.6470588 C124,50.4705882 124,50.2352941 124.067797,49.9411765 C124.067797,49.6470588 124.067797,49.4117647 124.135593,49.0588235 C124.135593,48.7647059 124.135593,48.4705882 124.135593,48.1764706 C124.135593,47.8823529 124.135593,47.6470588 124.067797,47.4705882 Z" id="Shape" fill="#FFFFFF"></path>
                    <path d="M135.929825,50.5294118 C135.929825,50.5882353 135.859649,50.7058824 135.859649,50.7647059 C135.508772,50.9411765 135.017544,51 134.45614,51 C134.035088,51 133.684211,50.9411765 133.403509,50.8823529 C133.122807,50.7647059 132.842105,50.6470588 132.631579,50.4705882 C132.421053,50.2941176 132.280702,50.1176471 132.140351,49.8823529 C132,49.6470588 132,49.4117647 132,49.1176471 C132,48.7058824 132.070175,48.4117647 132.210526,48.1176471 C132.350877,47.8235294 132.561404,47.6470588 132.77193,47.4705882 C133.052632,47.2941176 133.333333,47.1764706 133.614035,47.1176471 C133.964912,47.0588235 134.245614,47 134.666667,47 C134.807018,47 134.877193,47 135.017544,47 C135.157895,47 135.298246,47.0588235 135.368421,47.0588235 C135.508772,47.0588235 135.578947,47.1176471 135.719298,47.1764706 C135.859649,47.2352941 135.929825,47.2352941 136,47.2941176 C135.929825,47.4117647 135.929825,47.4705882 135.929825,47.5882353 C135.929825,47.7058824 135.859649,47.7647059 135.859649,47.8823529 L135.789474,47.8823529 C135.649123,47.7058824 135.438596,47.5882353 135.22807,47.4705882 C135.017544,47.4117647 134.807018,47.3529412 134.596491,47.3529412 C134.385965,47.3529412 134.245614,47.4117647 134.035088,47.4705882 C133.824561,47.5294118 133.684211,47.6470588 133.54386,47.7647059 C133.403509,47.8823529 133.263158,48.0588235 133.192982,48.2941176 C133.122807,48.5294118 133.052632,48.7647059 133.052632,49.0588235 C133.052632,49.3529412 133.122807,49.5882353 133.192982,49.8235294 C133.263158,50.0588235 133.403509,50.1764706 133.54386,50.3529412 C133.684211,50.4705882 133.894737,50.5882353 134.035088,50.6470588 C134.245614,50.7058824 134.385965,50.7647059 134.596491,50.7647059 C134.736842,50.7647059 134.807018,50.7647059 134.947368,50.7058824 C135.087719,50.7058824 135.157895,50.6470588 135.298246,50.6470588 C135.438596,50.5882353 135.508772,50.5882353 135.578947,50.5294118 C135.649123,50.4705882 135.789474,50.4117647 135.859649,50.3529412 L135.929825,50.4117647 C136,50.4117647 135.929825,50.4705882 135.929825,50.5294118 Z" id="Shape" fill="#FFFFFF"></path>
                    <path d="M138.145941,50.1333333 C138.267949,50 138.328953,50 138.511966,50 C138.633975,50 138.755983,50.0666667 138.877992,50.1333333 C139,50.2666667 139,50.3333333 139,50.5333333 C139,50.6666667 138.938996,50.8 138.877992,50.8666667 C138.755983,50.9333333 138.694979,51 138.511966,51 C138.389958,51 138.267949,50.9333333 138.145941,50.8666667 C138.023932,50.8 138.023932,50.6666667 138.023932,50.5333333 C137.962928,50.4 138.023932,50.2666667 138.145941,50.1333333 Z" id="Shape" fill="#FFFFFF"></path>
                </g>
            </g>
        </g>
    </g>
</svg>