<?xml version="1.0" encoding="UTF-8"?>
<svg width="25px" height="25px" viewBox="0 0 25 25" version="1.1" xmlns="http://www.w3.org/2000/svg" xmlns:xlink="http://www.w3.org/1999/xlink">
    <!-- Generator: Sketch 47.1 (45422) - http://www.bohemiancoding.com/sketch -->
    <title>BoD</title>
    <desc>Created with Sketch.</desc>
    <defs></defs>
    <g id="ForNasdaq" stroke="none" stroke-width="1" fill="none" fill-rule="evenodd">
        <g id="Nasdaq_UI_Elements" transform="translate(-790.000000, -1342.000000)" fill="#5A626F">
            <g id="Contents" transform="translate(0.000000, 535.000000)">
                <g id="Icons" transform="translate(130.000000, 742.000000)">
                    <path d="M677.122709,69.684933 L680.315067,66.4925754 L683.507425,69.684933 L680.315067,72.8772906 L677.122709,69.684933 Z M666.06467,67.8722248 L666.82736,68.6350028 L667.877291,69.684933 L664.684845,72.8772906 L663.634827,71.8271846 L662.872313,71.0646704 L661.492487,69.684933 L664.684933,66.4924874 L666.06467,67.8722248 Z M674.732355,75.2676451 C675.963283,76.4985735 675.963283,78.5015145 674.732355,79.7324428 C673.501514,80.9632832 671.498573,80.9632832 670.267645,79.7323549 C669.036717,78.5014265 669.036717,76.4984855 670.267645,75.2676451 C671.498486,74.0367168 673.501427,74.0367168 674.732355,75.2676451 L674.732355,75.2676451 Z M680.315155,82.1227094 L681.366756,83.1743106 L682.128567,83.9361212 L683.507513,85.315067 L680.315067,88.5075126 L678.93533,87.1277752 L678.172815,86.365261 L677.122709,85.3151549 L680.315155,82.1227094 Z M667.778524,86.9063207 L669.369866,85.315067 L667.400521,83.3458103 L669.918753,80.8275786 C671.432084,82.0031873 673.567916,82.0031873 675.081335,80.8275786 L677.599479,83.3458103 L675.630134,85.3151549 L677.221388,86.9063207 C674.260071,88.3899253 670.739841,88.3899253 667.778524,86.9063207 L667.778524,86.9063207 Z M666.06467,87.1277752 L664.684933,88.5074246 L661.492575,85.315067 L662.872225,83.9354176 L663.634739,83.1729034 L664.684933,82.1227094 L667.877291,85.315067 L666.827185,86.365261 L666.06467,87.1277752 Z M663.093591,72.7786123 L664.684845,74.369866 L666.654278,72.4005214 L669.172421,74.9186652 C667.996813,76.4320843 667.996813,78.5679157 669.172509,80.0812469 L666.654278,82.5994786 L664.684933,80.6302219 L663.093591,82.2214756 C661.610075,79.2602469 661.610075,75.739929 663.093591,72.7786123 L663.093591,72.7786123 Z M680.315067,74.369866 L684.999912,69.684933 L680.315067,65 L678.005361,67.3097936 C674.519519,65.4226809 670.37503,65.4835413 666.995518,67.3104972 L664.684933,65 L660,69.684933 L662.311289,71.9962217 C660.46472,75.4188287 660.46472,79.5812592 662.311289,83.0037783 L660.000088,85.315067 L664.684933,90 L666.996134,87.6887113 C670.418653,89.5353676 674.581259,89.5353676 678.003778,87.6887113 L680.315067,90 L685,85.315067 L682.691438,83.0065926 C684.183837,80.2575838 684.514348,76.9859845 683.509447,73.9027711 L682.506042,74.2297639 C683.385528,76.9283782 683.139975,79.7857397 681.909663,82.2247297 L680.315155,80.630134 L678.345722,82.5994786 L675.827579,80.0813348 C677.110133,78.4302761 676.994656,76.0373711 675.478687,74.5214014 C673.962629,73.0053438 671.569724,72.8898673 669.918665,74.1724214 L667.400521,71.6542776 L669.369866,69.684933 L667.779052,68.0941191 C670.705805,66.6243224 674.211172,66.5783252 677.221915,68.0931516 L675.630134,69.684933 L680.315067,74.369866 Z" id="BoD"></path>
                </g>
            </g>
        </g>
    </g>
</svg>