<?xml version="1.0" encoding="UTF-8"?>
<svg width="25px" height="31px" viewBox="0 0 25 31" version="1.1" xmlns="http://www.w3.org/2000/svg" xmlns:xlink="http://www.w3.org/1999/xlink">
    <!-- Generator: Sketch 47.1 (45422) - http://www.bohemiancoding.com/sketch -->
    <title>Icon/PDF Copy 7</title>
    <desc>Created with Sketch.</desc>
    <defs></defs>
    <g id="ForNasdaq" stroke="none" stroke-width="1" fill="none" fill-rule="evenodd">
        <g id="Nasdaq_UI_Elements" transform="translate(-331.000000, -1342.000000)" fill="#08743B">
            <g id="Contents" transform="translate(0.000000, 535.000000)">
                <g id="Icons" transform="translate(130.000000, 742.000000)">
                    <g id="Icon/Excel/Green" transform="translate(201.000000, 65.000000)">
                        <g id="File,-Pdf,-Acrobat,-Document,-Adobe,-Pdf-icon,-Reader" stroke-width="1">
                            <g id="Group" fill-rule="nonzero">
                                <path d="M22.5,30.8112744 L2.5,30.8112744 C1.1215,30.8112744 0,29.696602 0,28.3264942 L0,2.48478019 C0,1.11467239 1.1215,0 2.5,0 L12.67175,0 C13.3395,0 13.9675,0.258665618 14.43925,0.727792118 L24.26775,10.496457 C24.74,10.9658319 25,11.5895118 25,12.2531966 L25,28.3264942 C25,29.696602 23.8785,30.8112744 22.5,30.8112744 Z M2.60527894,1.24 C1.78673814,1.24 1.12107078,1.90161483 1.12107078,2.71517241 L1.12107078,28.2848276 C1.12107078,29.0983852 1.78673814,29.76 2.60527894,29.76 L22.3947211,29.76 C23.2132619,29.76 23.8789292,29.0983852 23.8789292,28.2848276 L23.8789292,12.3807479 C23.8789292,11.9925317 23.7203663,11.612429 23.4443036,11.337801 L13.719277,1.67197966 C13.439009,1.39341793 13.0662254,1.24 12.6699418,1.24 L2.60527894,1.24 Z" id="Shape"></path>
                            </g>
                        </g>
                        <path d="M4.16666667,25.4658341 L19.4444444,25.4658341 L19.4444444,10.3333333 L4.16666667,10.3333333 L4.16666667,25.4658341 Z M5.63435185,23.943183 L17.9747222,23.943183 L17.9747222,11.8565126 L5.63435185,11.8565126 L5.63435185,23.943183 Z M13.2907151,13.7777778 L11.8596325,15.9794613 L10.5170762,13.7777778 L7.62728174,13.7777778 L10.493394,17.8267703 L6.94444444,22.4564459 L9.8049181,22.4564459 L11.8466636,19.6056605 L13.7897333,22.4564459 L16.6383658,22.4564459 L13.2264348,17.8267703 L16.2312572,13.7777778 L13.2907151,13.7777778 Z" id="Page-1"></path>
                    </g>
                </g>
            </g>
        </g>
    </g>
</svg>