<?xml version="1.0" encoding="UTF-8"?>
<svg width="13px" height="21px" viewBox="0 0 13 21" version="1.1" xmlns="http://www.w3.org/2000/svg" xmlns:xlink="http://www.w3.org/1999/xlink">
    <!-- Generator: Sketch 47.1 (45422) - http://www.bohemiancoding.com/sketch -->
    <title>highlights</title>
    <desc>Created with Sketch.</desc>
    <defs></defs>
    <g id="ForNasdaq" stroke="none" stroke-width="1" fill="none" fill-rule="evenodd">
        <g id="Nasdaq_UI_Elements" transform="translate(-707.000000, -1343.000000)" fill="#5A626F">
            <g id="Contents" transform="translate(0.000000, 535.000000)">
                <g id="Icons" transform="translate(130.000000, 742.000000)">
                    <g id="highlights" transform="translate(577.000000, 66.000000)">
                        <g id="Group-3">
                            <path d="M10.9983174,8.83785567 C10.7526796,9.18909023 10.4730157,9.52694734 10.1769122,9.88465683 L10.1080317,9.96785361 C9.46491299,10.7455175 9.11936334,11.6363094 9.08087689,12.615307 C9.07590679,12.7429732 8.99383636,12.881329 8.82549002,12.8835281 C8.57112266,12.8868266 8.29770323,12.8884148 7.96508859,12.8884148 C7.74035069,12.8884148 7.51561279,12.8876818 7.29074746,12.8870099 C7.0638431,12.8862769 6.83681131,12.885666 6.60914232,12.885666 C6.42735122,12.8857882 6.2454964,12.8859714 6.06370529,12.8862769 C5.80621568,12.8866434 5.5487898,12.8870099 5.29130019,12.8870099 C5.03170784,12.8870099 4.77205178,12.8866434 4.51252315,12.8855438 C4.31257206,12.8846276 4.18882922,12.8670964 4.16512564,12.531194 C4.09981338,11.6052175 3.7161596,10.7701955 3.02480542,10.0492789 C2.04977301,9.03259233 1.49420461,8.18400963 1.22339767,7.29767685 C0.78309745,5.85645454 1.06531014,4.46214496 2.0623257,3.15335335 C3.16218419,1.70950443 4.63703063,0.977348346 6.44576609,0.977348346 C6.58766893,0.977348346 6.7336498,0.981868582 6.87963067,0.990786886 C8.15624643,1.0687915 9.31765774,1.54653159 10.2383376,2.37226877 C11.1217417,3.16471503 11.713184,4.23271243 11.9035135,5.37963072 C12.1015531,6.57297305 11.8139879,7.67181801 10.9983174,8.83785567 M12.9103419,5.22600377 C12.4526463,2.46841542 10.0888522,0.207503271 6.94449689,0.0154543207 C6.77615056,0.00513107882 6.60984324,0 6.44576609,0 C4.31053304,0 2.53977426,0.869351354 1.23894517,2.57702325 C0.0976054417,4.07529827 -0.308222649,5.76171284 0.244988135,7.57237282 C0.615388306,8.78459019 1.38938639,9.7880826 2.27431975,10.7107605 C2.78681391,11.2451868 3.09693564,11.8741716 3.14791107,12.597165 C3.2029008,13.3769668 3.69647034,13.8593493 4.50793537,13.8628922 C4.76899325,13.8639917 5.03017858,13.8643582 5.29130019,13.8643582 C5.73083578,13.8643582 6.17030765,13.8633198 6.60990696,13.8630144 C7.06167665,13.8630144 7.51344634,13.8657632 7.96508859,13.8657632 C8.25660429,13.8657632 8.54792884,13.8646026 8.83925339,13.8608153 C9.5363423,13.8517749 10.0734958,13.3195476 10.0996845,12.6520187 C10.1301423,11.876676 10.4022873,11.1853853 10.906944,10.5749702 C11.2296184,10.1848249 11.5562435,9.79516838 11.845083,9.38217762 C12.7253011,8.1239027 13.165665,6.76392248 12.9103419,5.22600377" id="Fill-1"></path>
                        </g>
                        <path d="M8.90193957,15.0002919 L8.90098537,15.0002919 C8.82699841,15.0003649 8.75286465,15.0003649 8.67880429,15.0003649 C8.12632429,15.0003649 7.57369748,15 7.02121748,15 C5.98532664,15 4.9495826,15.0013136 3.91376517,15.0085383 C3.71543901,15.0099248 3.49347813,15.0561191 3.32524588,15.1540539 C3.04801498,15.3155513 2.95421009,15.6008903 3.02026987,15.9135226 C3.06952111,16.1463183 3.21199005,16.282055 3.47490799,16.3120485 C5.39930294,16.5311246 7.32318409,16.755528 9.24537705,16.9933591 C9.28156313,16.9978107 9.31628122,17 9.34923771,17 C9.60173289,17 9.76343257,16.8718529 9.86340304,16.6569364 C9.94715217,16.476611 9.95713454,16.2624243 10,16.0632708 C9.96667651,15.2274684 9.73840325,15.0002919 8.90193957,15.0002919" id="Fill-4"></path>
                        <path d="M9.33632352,17.6837877 C8.40054542,17.580915 7.46719905,17.4563965 6.53245259,17.3441318 C5.60964376,17.2332612 4.68624543,17.1264262 3.61156333,17 C3.5061142,17.0706607 3.24562317,17.1606193 3.12469933,17.3425909 C2.81284698,17.8122684 3.1133512,18.2742415 3.72113905,18.3400594 C4.47475766,18.4217999 5.22697617,18.5170415 5.97963682,18.6077338 C7.06021405,18.7378288 8.13990701,18.8768757 9.22166326,18.9958176 C9.24738076,18.9986792 9.27295088,19 9.29800518,19 C9.66844038,19 9.96938674,18.7009942 9.99716753,18.3287596 C10.0273801,17.9235793 9.81648182,17.7366181 9.33632352,17.6837877" id="Fill-6"></path>
                        <path d="M4,19.1132694 C4.0670253,19.2465833 4.11036882,19.400379 4.20531525,19.5095667 C4.56346573,19.9212435 4.91927727,20.3386785 5.31660503,20.7109224 C5.47660327,20.8607821 5.73659128,20.958672 5.95959478,20.9768213 C6.1733156,20.9942418 6.38827898,21 6.60353473,21 C6.87448653,21 7.14594998,20.9908889 7.4166825,20.9845475 C7.55745757,20.9811946 7.73836011,20.9693138 7.8299443,20.8847626 C8.2341427,20.5125187 8.61239347,20.1123583 9,19.7222566 C8.98318885,19.6778673 8.96630462,19.633405 8.94949347,19.5890885 C7.31998187,19.3927257 5.69047027,19.1963628 4.06088558,19 C4.04063912,19.0377565 4.02031956,19.075513 4,19.1132694 Z" id="Fill-8"></path>
                    </g>
                </g>
            </g>
        </g>
    </g>
</svg>