<?xml version="1.0" encoding="UTF-8"?>
<svg width="31px" height="21px" viewBox="0 0 31 21" version="1.1" xmlns="http://www.w3.org/2000/svg" xmlns:xlink="http://www.w3.org/1999/xlink">
    <!-- Generator: Sketch 47.1 (45422) - http://www.bohemiancoding.com/sketch -->
    <title>management</title>
    <desc>Created with Sketch.</desc>
    <defs>
        <polygon id="path-1" points="0.00019375 9 30.7345625 9 30.7345625 0.374556522 0.00019375 0.374556522"></polygon>
        <polygon id="path-3" points="0.271448276 0.340294118 11.7285517 0.340294118 11.7285517 12.8565029 0.271448276 12.8565029"></polygon>
    </defs>
    <g id="ForNasdaq" stroke="none" stroke-width="1" fill="none" fill-rule="evenodd">
        <g id="Nasdaq_UI_Elements" transform="translate(-736.000000, -1344.000000)">
            <g id="Contents" transform="translate(0.000000, 535.000000)">
                <g id="Icons" transform="translate(130.000000, 742.000000)">
                    <g id="management" transform="translate(606.000000, 67.000000)">
                        <g id="Group-3" transform="translate(0.000000, 12.000000)">
                            <mask id="mask-2" fill="white">
                                <use xlink:href="#path-1"></use>
                            </mask>
                            <g id="Clip-2"></g>
                            <path d="M20.4330687,5.36133913 C20.2513312,4.60964348 19.7898187,3.95773043 19.1442437,3.54138261 L17.0436062,2.18551304 L17.9643062,1.57938261 C17.9953062,1.55903478 18.0309562,1.54846957 18.0681562,1.54846957 L18.6866062,1.54846957 L20.9910687,3.71316522 L21.7742062,4.44881739 L22.5654812,3.72255652 L24.9319437,1.54846957 L25.5267562,1.54846957 C25.5627937,1.54846957 25.5984437,1.55864348 25.6290562,1.5786 L28.2969937,3.30033913 C28.5856812,3.4869913 28.7891187,3.7742087 28.8701062,4.11073043 L29.2545062,5.69825217 L20.5144437,5.69825217 L20.4330687,5.36133913 Z M19.8320563,7.82616522 L1.48044375,7.82616522 L2.01248125,5.62468696 C2.12214375,5.17038261 2.39649375,4.77946957 2.78438125,4.52394783 L5.90298125,2.47155652 C5.97738125,2.42264348 6.06340625,2.39681739 6.15214375,2.39681739 L6.98294375,2.39681739 L9.80704375,5.04986087 L10.5897938,5.78551304 L11.3810688,5.05886087 L14.2791813,2.39681739 L14.6170813,2.39681739 L15.0789813,2.39681739 C15.1665563,2.39681739 15.2514188,2.42186087 15.3250438,2.4692087 L15.9748813,2.88907826 L18.5180438,4.5302087 C18.9136813,4.78533913 19.1922938,5.17938261 19.3035063,5.63955652 L19.3178438,5.69825217 L19.6014938,6.87216522 L19.8320563,7.82616522 Z M30.7347563,6.87216522 L29.9996688,3.83212174 C29.8481563,3.20407826 29.4625938,2.65977391 28.9228063,2.31151304 L26.2548688,0.589773913 C26.0374813,0.448904348 25.7848313,0.374556522 25.5267563,0.374556522 L24.4824438,0.374556522 L21.7831188,2.85386087 L19.1438563,0.374556522 L18.0681563,0.374556522 C17.8058188,0.374556522 17.5492938,0.451252174 17.3295813,0.596034783 L15.9686813,1.49133913 L15.9512438,1.48038261 C15.6908438,1.31212174 15.3882063,1.22290435 15.0789813,1.22290435 L13.8292938,1.22290435 L10.5987063,4.19055652 L7.43980625,1.22290435 L6.15214375,1.22290435 C5.83826875,1.22290435 5.53098125,1.31486087 5.26825625,1.4882087 L2.14965625,3.5406 C1.51570625,3.95812174 1.06271875,4.60338261 0.88291875,5.34646957 L0.00019375,9.00007826 L21.3126938,9.00007826 L20.7980938,6.87216522 L30.7347563,6.87216522 Z" id="Fill-1" fill="#5A626F" mask="url(#mask-2)"></path>
                        </g>
                        <g id="Group-6" transform="translate(5.000000, 0.000000)">
                            <mask id="mask-4" fill="white">
                                <use xlink:href="#path-3"></use>
                            </mask>
                            <g id="Clip-5"></g>
                            <path d="M6,1.48723824 C8.55806897,1.48723824 10.4871724,3.52020882 10.4871724,6.21617941 C10.4871724,9.14232647 8.39006897,11.7094441 6,11.7094441 C3.60993103,11.7094441 1.51282759,9.14232647 1.51282759,6.21617941 C1.51282759,3.52020882 3.44193103,1.48723824 6,1.48723824 M6,12.8565029 C9.16386207,12.8565029 11.7285517,9.67226765 11.7285517,6.21617941 C11.7285517,2.75970882 9.16386207,0.340179412 6,0.340179412 C2.83613793,0.340179412 0.271448276,2.75970882 0.271448276,6.21617941 C0.271448276,9.67226765 2.83613793,12.8565029 6,12.8565029" id="Fill-4" fill="#5A626F" mask="url(#mask-4)"></path>
                        </g>
                        <path d="M22.5001945,3.09685203 C24.4314615,3.09685203 25.8328362,4.60977661 25.8328362,6.69452671 C25.8328362,8.89663998 24.2443263,10.903148 22.5001945,10.903148 C20.7556737,10.903148 19.1671638,8.89663998 19.1671638,6.69452671 C19.1671638,4.60977661 20.5689275,3.09685203 22.5001945,3.09685203 M22.5001945,12 C24.9854753,12 27,9.4556689 27,6.69452671 C27,3.9330189 24.9854753,2 22.5001945,2 C20.0149138,2 18,3.9330189 18,6.69452671 C18,9.4556689 20.0149138,12 22.5001945,12" id="Fill-7" fill="#5A626F"></path>
                    </g>
                </g>
            </g>
        </g>
    </g>
</svg>