<?xml version="1.0" encoding="UTF-8"?>
<svg width="25px" height="31px" viewBox="0 0 25 31" version="1.1" xmlns="http://www.w3.org/2000/svg" xmlns:xlink="http://www.w3.org/1999/xlink">
    <!-- Generator: Sketch 47.1 (45422) - http://www.bohemiancoding.com/sketch -->
    <title>Icon/PDF Copy 4</title>
    <desc>Created with Sketch.</desc>
    <defs></defs>
    <g id="ForNasdaq" stroke="none" stroke-width="1" fill="none" fill-rule="evenodd">
        <g id="Nasdaq_UI_Elements" transform="translate(-368.000000, -1342.000000)" fill="#FF001F">
            <g id="Contents" transform="translate(0.000000, 535.000000)">
                <g id="Icons" transform="translate(130.000000, 742.000000)">
                    <g id="Icon/PDF/Red" transform="translate(238.000000, 65.000000)">
                        <g id="File,-Pdf,-Acrobat,-Document,-Adobe,-Pdf-icon,-Reader">
                            <g id="Group" fill-rule="nonzero">
                                <path d="M22.5,30.8112744 L2.5,30.8112744 C1.1215,30.8112744 0,29.696602 0,28.3264942 L0,2.48478019 C0,1.11467239 1.1215,0 2.5,0 L12.67175,0 C13.3395,0 13.9675,0.258665618 14.43925,0.727792118 L24.26775,10.496457 C24.74,10.9658319 25,11.5895118 25,12.2531966 L25,28.3264942 C25,29.696602 23.8785,30.8112744 22.5,30.8112744 Z M2.60527894,1.24 C1.78673814,1.24 1.12107078,1.90161483 1.12107078,2.71517241 L1.12107078,28.2848276 C1.12107078,29.0983852 1.78673814,29.76 2.60527894,29.76 L22.3947211,29.76 C23.2132619,29.76 23.8789292,29.0983852 23.8789292,28.2848276 L23.8789292,12.3807479 C23.8789292,11.9925317 23.7203663,11.612429 23.4443036,11.337801 L13.719277,1.67197966 C13.439009,1.39341793 13.0662254,1.24 12.6699418,1.24 L2.60527894,1.24 Z" id="Shape"></path>
                                <path d="M21.138392,19.6921123 C21.1190173,19.5518131 21.005537,19.3757514 20.8837531,19.25746 C20.5350085,18.9163404 19.7683239,18.7375277 18.6003063,18.721022 C17.8087114,18.7127691 16.8565832,18.7815432 15.8546344,18.9218423 C15.4062485,18.6660027 14.9440235,18.3854043 14.5814398,18.0470357 C13.6044013,17.1419686 12.7906639,15.884778 12.2813861,14.501043 C12.3145999,14.3717477 12.342278,14.2589582 12.3699561,14.1434177 C12.3699561,14.1434177 12.9179834,11.0403301 12.774057,9.98946184 C12.7546823,9.84641171 12.7408433,9.80514725 12.7020939,9.69235772 L12.655041,9.5713153 C12.505579,9.22744478 12.2121907,8.86431752 11.7527335,8.88357427 L11.4814877,8.87532137 L11.4759521,8.87532137 C10.9611386,8.87532137 10.5459665,9.13666296 10.4352539,9.52454891 C10.1031162,10.745977 10.4463252,12.5753681 11.0690834,14.9411973 L10.9085502,15.3263322 C10.462932,16.4102121 9.90383355,17.4995939 9.41116259,18.4596804 L9.34750286,18.5834738 C8.82715376,19.5930776 8.35662532,20.4513784 7.92761409,21.1776329 L7.48753161,21.4087139 C7.45431784,21.4252197 6.69870452,21.8241095 6.5215644,21.9286461 C5.0186412,22.8227095 4.02222803,23.8350643 3.85615917,24.6383458 C3.80357069,24.8969364 3.84232009,25.2243011 4.11079809,25.3756042 L4.5370415,25.5901794 C4.72248506,25.6809612 4.91899988,25.7277276 5.11828251,25.7277276 C6.18942667,25.7277276 7.43217532,24.4017629 9.14545241,21.4307216 C11.1216719,20.7924979 13.3746728,20.2588109 15.3481244,19.9672087 C16.8510476,20.8062528 18.6999476,21.3922081 19.8679652,21.3922081 C20.0755513,21.3922081 20.2554593,21.3729514 20.3993856,21.3344379 C20.6235786,21.2739167 20.8117899,21.1473723 20.9280381,20.9768125 C21.1549989,20.6384439 21.199284,20.17078 21.138392,19.6921123 Z M4.88578611,24.9216951 C5.07953311,24.390759 5.85452114,23.3398907 6.99762847,22.4100648 C7.06959164,22.3522946 7.24673176,22.1872367 7.40726499,22.0331828 C6.21156919,23.928597 5.41167084,24.6823612 4.88578611,24.9216951 Z M11.65586,9.4255142 C11.999069,9.4255142 12.1955838,10.286566 12.2121907,11.0953494 C12.2287976,11.9041329 12.0378184,12.4708315 11.8025542,12.891729 C11.6060394,12.2700111 11.5119337,11.2906679 11.5119337,10.6496932 C11.5119337,10.6496932 11.4980946,9.4255142 11.65586,9.4255142 Z M9.63535555,20.4678842 C9.8761554,20.0414847 10.1252587,19.5903266 10.3798976,19.1144098 C11.0026558,17.9452501 11.3956855,17.03193 11.686306,16.2809168 C12.267547,17.3317851 12.9927144,18.2258484 13.8424334,18.9410991 C13.9503781,19.0291299 14.0638585,19.1199118 14.1801067,19.2106936 C12.4502228,19.5490622 10.9528352,19.9644577 9.63535555,20.4678842 Z M20.5488476,20.3716004 C20.4436706,20.4348726 20.1419789,20.4733861 19.9482319,20.4733861 C19.3227058,20.4733861 18.54495,20.1900368 17.4571989,19.7251239 C17.8751389,19.6948633 18.2598651,19.6783575 18.6030741,19.6783575 C19.2313679,19.6783575 19.4168115,19.6756065 20.0340341,19.8324115 C20.6484889,19.9892164 20.6567923,20.3055773 20.5488476,20.3716004 Z" id="Shape"></path>
                            </g>
                        </g>
                    </g>
                </g>
            </g>
        </g>
    </g>
</svg>