<?xml version="1.0" encoding="UTF-8"?>
<svg width="25px" height="31px" viewBox="0 0 25 31" version="1.1" xmlns="http://www.w3.org/2000/svg" xmlns:xlink="http://www.w3.org/1999/xlink">
    <!-- Generator: Sketch 47.1 (45422) - http://www.bohemiancoding.com/sketch -->
    <title>Icon/PDF Copy 5</title>
    <desc>Created with Sketch.</desc>
    <defs></defs>
    <g id="ForNasdaq" stroke="none" stroke-width="1" fill="none" fill-rule="evenodd">
        <g id="Nasdaq_UI_Elements" transform="translate(-405.000000, -1342.000000)" fill="#6E318D">
            <g id="Contents" transform="translate(0.000000, 535.000000)">
                <g id="Icons" transform="translate(130.000000, 742.000000)">
                    <g id="Icon/Search/Purple" transform="translate(275.000000, 65.000000)">
                        <g id="File,-Pdf,-Acrobat,-Document,-Adobe,-Pdf-icon,-Reader">
                            <g id="Group" fill-rule="nonzero">
                                <path d="M22.5,30.8112744 L2.5,30.8112744 C1.1215,30.8112744 0,29.696602 0,28.3264942 L0,2.48478019 C0,1.11467239 1.1215,0 2.5,0 L12.67175,0 C13.3395,0 13.9675,0.258665618 14.43925,0.727792118 L24.26775,10.496457 C24.74,10.9658319 25,11.5895118 25,12.2531966 L25,28.3264942 C25,29.696602 23.8785,30.8112744 22.5,30.8112744 Z M2.60527894,1.24 C1.78673814,1.24 1.12107078,1.90161483 1.12107078,2.71517241 L1.12107078,28.2848276 C1.12107078,29.0983852 1.78673814,29.76 2.60527894,29.76 L22.3947211,29.76 C23.2132619,29.76 23.8789292,29.0983852 23.8789292,28.2848276 L23.8789292,12.3807479 C23.8789292,11.9925317 23.7203663,11.612429 23.4443036,11.337801 L13.719277,1.67197966 C13.439009,1.39341793 13.0662254,1.24 12.6699418,1.24 L2.60527894,1.24 Z" id="Shape"></path>
                            </g>
                        </g>
                        <g id="Search" transform="translate(13.749299, 18.461526) rotate(-45.000000) translate(-13.749299, -18.461526) translate(5.763187, 7.094860)">
                            <path d="M8.13076132,13.1266949 C5.13072768,13.1266949 2.69003477,10.6772254 2.69003477,7.66640385 C2.69003477,4.65558226 5.13072768,2.2060668 8.13076132,2.2060668 C11.130795,2.2060668 13.5714879,4.65558226 13.5714879,7.66640385 C13.5714879,10.6772254 11.130795,13.1266949 8.13076132,13.1266949 M15.7696502,7.66640385 C15.7696502,3.43912026 12.3428525,0 8.13076132,0 C3.91867013,0 0.491872434,3.43912026 0.491872434,7.66640385 C0.491872434,11.4783954 3.27868433,14.6490649 6.91494858,15.2352352 L6.91494858,20.9302426 C6.91494858,21.6013465 7.46206202,22.1504274 8.13076132,22.1504274 C8.79946062,22.1504274 9.34657407,21.6013465 9.34657407,20.9302426 L9.34657407,15.2352352 C12.9828383,14.6490649 15.7696502,11.4783954 15.7696502,7.66640385" id="Fill-1"></path>
                        </g>
                    </g>
                </g>
            </g>
        </g>
    </g>
</svg>