<?xml version="1.0" encoding="UTF-8"?>
<svg width="17px" height="16px" viewBox="0 0 17 16" version="1.1" xmlns="http://www.w3.org/2000/svg" xmlns:xlink="http://www.w3.org/1999/xlink">
    <!-- Generator: Sketch 47.1 (45422) - http://www.bohemiancoding.com/sketch -->
    <title>Speaker</title>
    <desc>Created with Sketch.</desc>
    <defs></defs>
    <g id="ForNasdaq" stroke="none" stroke-width="1" fill="none" fill-rule="evenodd">
        <g id="Nasdaq_UI_Elements" transform="translate(-133.000000, -1399.000000)">
            <g id="Contents" transform="translate(0.000000, 535.000000)">
                <g id="Icons" transform="translate(130.000000, 742.000000)">
                    <g id="Speaker" transform="translate(2.000000, 120.000000)">
                        <g id="Group">
                            <polygon id="Frames-24px" points="0 0 20 0 20 20 0 20"></polygon>
                            <g id="Solid" transform="translate(1.666667, 2.500000)" fill-rule="nonzero" fill="#6E318D">
                                <path d="M7.81916667,0.0658333333 C7.50763948,-0.0627141602 7.14937599,0.00860985497 6.91083333,0.246666667 L3.33333333,4.16833333 L0.833333333,4.16833333 C0.375,4.16833333 0,4.54416667 0,5.00166667 L0,10.0016667 C0,10.46 0.375,10.835 0.833333333,10.835 L3.33333333,10.835 L6.91083333,14.7583333 C7.14926912,14.9966973 7.50783993,15.0679061 7.81926391,14.938739 C8.13068788,14.809572 8.33359859,14.5054816 8.33333333,14.1683333 L8.33333333,0.835 C8.33353194,0.49814232 8.13051084,0.194433273 7.81916667,0.0658333333 L7.81916667,0.0658333333 Z" id="Shape"></path>
                                <path d="M10,1.66833333 L10,3.335 C12.2975,3.335 14.1666667,5.205 14.1666667,7.50166667 C14.1666667,9.79916667 12.2975,11.6683333 10,11.6683333 L10,13.335 C13.2166667,13.335 15.8333333,10.7191667 15.8333333,7.50166667 C15.8333333,4.28583333 13.2166667,1.66833333 10,1.66833333 Z" id="Shape"></path>
                                <path d="M12.5,7.50166667 C12.5,6.12416667 11.3783333,5.00166667 10,5.00166667 L10,6.66833333 C10.4591667,6.66833333 10.8333333,7.0425 10.8333333,7.50166667 C10.8333333,7.96083333 10.4591667,8.335 10,8.335 L10,10.0016667 C11.3783333,10.0016667 12.5,8.88083333 12.5,7.50166667 Z" id="Shape"></path>
                            </g>
                        </g>
                    </g>
                </g>
            </g>
        </g>
    </g>
</svg>