<?xml version="1.0" encoding="UTF-8"?>
<svg width="25px" height="31px" viewBox="0 0 25 31" version="1.1" xmlns="http://www.w3.org/2000/svg" xmlns:xlink="http://www.w3.org/1999/xlink">
    <!-- Generator: Sketch 47.1 (45422) - http://www.bohemiancoding.com/sketch -->
    <title>Icon/PDF Copy</title>
    <desc>Created with Sketch.</desc>
    <defs></defs>
    <g id="ForNasdaq" stroke="none" stroke-width="1" fill="none" fill-rule="evenodd">
        <g id="Nasdaq_UI_Elements" transform="translate(-130.000000, -1342.000000)" fill="#CCCCCC">
            <g id="Contents" transform="translate(0.000000, 535.000000)">
                <g id="Icons" transform="translate(130.000000, 742.000000)">
                    <g id="Icon/Word/Grey" transform="translate(0.000000, 65.000000)">
                        <g id="File,-Pdf,-Acrobat,-Document,-Adobe,-Pdf-icon,-Reader" stroke-width="1">
                            <g id="Group" fill-rule="nonzero">
                                <path d="M22.5,30.8112744 L2.5,30.8112744 C1.1215,30.8112744 0,29.696602 0,28.3264942 L0,2.48478019 C0,1.11467239 1.1215,0 2.5,0 L12.67175,0 C13.3395,0 13.9675,0.258665618 14.43925,0.727792118 L24.26775,10.496457 C24.74,10.9658319 25,11.5895118 25,12.2531966 L25,28.3264942 C25,29.696602 23.8785,30.8112744 22.5,30.8112744 Z M2.60527894,1.24 C1.78673814,1.24 1.12107078,1.90161483 1.12107078,2.71517241 L1.12107078,28.2848276 C1.12107078,29.0983852 1.78673814,29.76 2.60527894,29.76 L22.3947211,29.76 C23.2132619,29.76 23.8789292,29.0983852 23.8789292,28.2848276 L23.8789292,12.3807479 C23.8789292,11.9925317 23.7203663,11.612429 23.4443036,11.337801 L13.719277,1.67197966 C13.439009,1.39341793 13.0662254,1.24 12.6699418,1.24 L2.60527894,1.24 Z" id="Shape"></path>
                            </g>
                        </g>
                        <path d="M4.16666667,25.4888889 L19.4185576,25.4888889 L19.4185576,10.4194444 L4.18836806,10.4194444 L4.16666667,25.4888889 Z M5.58895502,11.7442434 L17.9962693,11.7442434 L17.9962693,13.9779708 L14.3319848,13.9779708 L14.3319848,15.3872301 L15.1384479,15.3872301 L13.6024972,17.6346805 L13.6024972,13.9779708 L11.3754099,13.9779708 L11.3754099,15.4254099 L9.27200406,17.5967724 L9.27200406,16.2781395 L10.7609749,15.4254099 L10.7609749,13.939791 L6.30652638,13.939791 L6.38350197,15.349186 L7.07450169,15.349186 L7.07450169,22.5866533 L8.68729092,22.5866533 L11.4904624,19.7678631 L11.4904624,22.6246973 L13.8328761,22.6246973 L17.5192124,15.4254099 L17.9962693,15.4254099 L17.9962693,24.0779788 L5.58895502,24.0779788 L5.58895502,11.7442434 Z" id="Page-1"></path>
                    </g>
                </g>
            </g>
        </g>
    </g>
</svg>